<?xml version="1.0" encoding="utf-8"?>
<!-- Generator: Adobe Illustrator 18.1.1, SVG Export Plug-In . SVG Version: 6.00 Build 0)  -->
<!DOCTYPE svg PUBLIC "-//W3C//DTD SVG 1.1//EN" "http://www.w3.org/Graphics/SVG/1.1/DTD/svg11.dtd">
<svg version="1.1" id="Layer_1" xmlns="http://www.w3.org/2000/svg" xmlns:xlink="http://www.w3.org/1999/xlink" x="0px" y="0px"
	 width="96px" height="96px" viewBox="-249 372.9 96 96" enable-background="new -249 372.9 96 96" xml:space="preserve">
<path fill="#999999" d="M-247.1,375.6v90.5h92.3v-90.5H-247.1z M-158.8,461.4h-84.4v-81.1h84.4V461.4z"/>
<path fill="#FD8D10" d="M-220.9,417.3l-10.8,11.2v18.9c0,0.5,0.4,1,1,1h13.1c0.5,0,1-0.4,1-1v-29l-3-1.1H-220.9z"/>
<path fill="#FD8D10" d="M-194.2,426.1h-13.1c-0.5,0-1,0.4-1,1v20.4c0,0.5,0.4,1,1,1h13.1c0.5,0,1-0.4,1-1V427
	C-193.3,426.5-193.7,426.1-194.2,426.1z"/>
<path fill="#9ADA7F" d="M-175.2,405.3l-2.4-2l-8.6,9.4v34.7c0,0.5,0.4,1,1,1h13.1c0.5,0,1-0.4,1-1v-41.8c-0.1,0-0.1,0.1-0.2,0.1
	c-0.5,0.3-1.1,0.4-1.6,0.4C-173.8,406.1-174.6,405.8-175.2,405.3z"/>
<path fill="#9ADA7F" d="M-234.9,427c0.5,0,1-0.2,1.4-0.6l12.3-12.8l21.6,7.9c0.7,0.3,1.6,0.1,2.1-0.5l19.8-21.6l4.6,3.9
	c0.2,0.2,0.5,0.2,0.8,0.1c0.3-0.1,0.4-0.4,0.4-0.7l-1-11.3c0-0.4-0.4-0.7-0.8-0.7l-11.3,1c-0.3,0-0.5,0.2-0.6,0.5c0,0.1,0,0.2,0,0.3
	c0,0.2,0.1,0.4,0.3,0.5l4.7,3.9l-18.9,20.6l-21.5-7.9c-0.7-0.3-1.5-0.1-2.1,0.5l-13.2,13.7c-0.7,0.8-0.7,2,0.1,2.7
	C-235.8,426.9-235.4,427-234.9,427z"/>
</svg>
