<?xml version="1.0" encoding="utf-8"?>
<!-- Generator: Adobe Illustrator 18.1.1, SVG Export Plug-In . SVG Version: 6.00 Build 0)  -->
<!DOCTYPE svg PUBLIC "-//W3C//DTD SVG 1.1//EN" "http://www.w3.org/Graphics/SVG/1.1/DTD/svg11.dtd">
<svg version="1.1" id="Layer_1" xmlns="http://www.w3.org/2000/svg" xmlns:xlink="http://www.w3.org/1999/xlink" x="0px" y="0px"
	 width="31.7px" height="31px" viewBox="-281 405.9 31.7 31" enable-background="new -281 405.9 31.7 31" xml:space="preserve">
<path fill="#999999" d="M-249.8,409.4v0.3c0,0.7-0.4,1.2-0.9,1.2h-7.5v0h-12.1c-0.5,0-0.9-0.5-0.9-1.2v-0.3c0-0.7,0.4-1.2,0.9-1.2
	h12.1v0h7.5C-250.1,408.2-249.8,408.7-249.8,409.4z"/>
<path fill="#999999" d="M-249.8,421.2v0.3c0,0.7-0.4,1.2-0.9,1.2h-19.6c-0.5,0-0.9-0.5-0.9-1.2l0-0.3c0-0.7,0.4-1.2,0.9-1.2h19.6
	C-250.1,420-249.8,420.6-249.8,421.2z"/>
<path fill="#999999" d="M-249.8,433v0.3c0,0.7-0.4,1.2-0.9,1.2h-19.6c-0.5,0-0.9-0.5-0.9-1.2V433c0-0.7,0.4-1.2,0.9-1.2h12.1v0h7.5
	C-250.1,431.8-249.8,432.4-249.8,433z"/>
<g>
	<g>
		<path fill="#FF0000" d="M-277.4,422.2c-0.2,0-0.3-0.1-0.3-0.3l-0.2-2c0-0.2,0.1-0.3,0.3-0.3h0.8c0.2,0,0.3,0.1,0.3,0.3l-0.2,2
			c0,0.2-0.1,0.3-0.3,0.3H-277.4z"/>
		<path fill="#FF0000" d="M-276.8,423.1c0,0.1-0.1,0.2-0.2,0.2h-0.3c-0.1,0-0.2-0.1-0.2-0.2v-0.3c0-0.1,0.1-0.2,0.2-0.2h0.3
			c0.1,0,0.2,0.1,0.2,0.2V423.1z"/>
	</g>
	<path fill="#FF0000" d="M-277.2,417.8c-2,0-3.6,1.6-3.6,3.6s1.6,3.6,3.6,3.6s3.6-1.6,3.6-3.6S-275.2,417.8-277.2,417.8z
		 M-277.2,424.5c-1.7,0-3.1-1.3-3.1-3.1c0-1.6,1.3-3.1,3.1-3.1c1.9,0,3.1,1.5,3.1,3.1C-274.1,423.1-275.5,424.5-277.2,424.5z"/>
</g>
<g>
	<path fill="#69B749" d="M-273.3,407.5l-0.7-0.8c-0.1-0.1-0.3-0.2-0.5,0l-3.4,3.5l-1.8-1.8c-0.1-0.1-0.4-0.1-0.5-0.1l-0.8,0.8
		c-0.1,0.2-0.1,0.3,0,0.5l2.6,2.7c0.1,0.1,0.2,0.1,0.3,0.1c0.1,0,0.2,0,0.3-0.1l4.4-4.3C-273.2,407.9-273.2,407.6-273.3,407.5z"/>
</g>
<g>
	<path fill="#69B749" d="M-273.3,431.1l-0.7-0.8c-0.1-0.1-0.3-0.2-0.5,0l-3.4,3.5l-1.8-1.8c-0.1-0.1-0.4-0.1-0.5-0.1l-0.8,0.8
		c-0.1,0.2-0.1,0.3,0,0.5l2.6,2.7c0.1,0.1,0.2,0.1,0.3,0.1c0.1,0,0.2,0,0.3-0.1l4.4-4.3C-273.2,431.5-273.2,431.3-273.3,431.1z"/>
</g>
</svg>
