<?xml version="1.0" encoding="utf-8"?>
<!-- Generator: Adobe Illustrator 18.1.1, SVG Export Plug-In . SVG Version: 6.00 Build 0)  -->
<!DOCTYPE svg PUBLIC "-//W3C//DTD SVG 1.1//EN" "http://www.w3.org/Graphics/SVG/1.1/DTD/svg11.dtd">
<svg version="1.1" id="Layer_1" xmlns="http://www.w3.org/2000/svg" xmlns:xlink="http://www.w3.org/1999/xlink" x="0px" y="0px"
	 width="31.7px" height="31px" viewBox="-281 405.9 31.7 31" enable-background="new -281 405.9 31.7 31" xml:space="preserve">
<path fill="#999999" d="M-252.2,435.7l-27.6-27.6c-0.3-0.3-0.3-0.9,0-1.2l0,0c0.3-0.3,0.9-0.3,1.2,0l27.6,27.6
	c0.3,0.3,0.3,0.9,0,1.2l0,0C-251.3,436-251.8,436-252.2,435.7z"/>
<g>
	<path fill="#9ADA7F" d="M-252.5,411.8l-0.9-1.1c-0.3-0.3-0.8-0.2-1.1,0.1l-6.2,6.2l-3.2-3.3c-0.3-0.3-0.8-0.3-1-0.1l-1.1,1.1
		c-0.2,0.4-0.2,0.6,0.1,0.8l4.7,4.8c0.1,0.1,0.3,0.2,0.5,0.2c0.2,0,0.3-0.1,0.5-0.2l7.9-7.7C-252.3,412.5-252.3,412.1-252.5,411.8z"
		/>
</g>
<g>
	<g>
		<path fill="#FD8D10" d="M-272,429c-0.3,0-0.5-0.2-0.5-0.5l-0.4-3.5c0-0.3,0.2-0.5,0.5-0.5h1.4c0.3,0,0.5,0.2,0.5,0.5l-0.4,3.5
			c0,0.3-0.2,0.5-0.5,0.5H-272z"/>
		<path fill="#FD8D10" d="M-271,430.6c0,0.2-0.2,0.4-0.4,0.4h-0.6c-0.2,0-0.4-0.2-0.4-0.4V430c0-0.2,0.2-0.4,0.4-0.4h0.6
			c0.2,0,0.4,0.2,0.4,0.4V430.6z"/>
	</g>
	<path fill="#FD8D10" d="M-271.7,421.4c-3.4,0-6.2,2.8-6.2,6.2s2.8,6.2,6.2,6.2c3.4,0,6.2-2.8,6.2-6.2S-268.2,421.4-271.7,421.4z
		 M-271.7,433c-3,0-5.4-2.3-5.4-5.4c0-2.7,2.3-5.4,5.4-5.4c3.2,0,5.4,2.6,5.4,5.4C-266.3,430.6-268.7,433-271.7,433z"/>
</g>
</svg>
