<?xml version="1.0" encoding="utf-8"?>
<!-- Generator: Adobe Illustrator 18.1.0, SVG Export Plug-In . SVG Version: 6.00 Build 0)  -->
<!DOCTYPE svg PUBLIC "-//W3C//DTD SVG 1.1//EN" "http://www.w3.org/Graphics/SVG/1.1/DTD/svg11.dtd">
<svg version="1.1" id="Layer_1" xmlns="http://www.w3.org/2000/svg" xmlns:xlink="http://www.w3.org/1999/xlink" x="0px" y="0px"
	 width="512px" height="512px" viewBox="-41 164.9 512 512" enable-background="new -41 164.9 512 512" xml:space="preserve">
<path fill="#999999" d="M471,660.9c0,8.8-7.2,16-16,16H-25c-8.8,0-16-7.2-16-16v-480c0-8.8,7.2-16,16-16s16,7.2,16,16v80H7
	c8.8,0,16,7.2,16,16c0,8.8-7.2,16-16,16H-9v64H7c8.8,0,16,7.2,16,16s-7.2,16-16,16H-9v64H7c8.8,0,16,7.2,16,16s-7.2,16-16,16H-9v64
	H7c8.8,0,16,7.2,16,16s-7.2,16-16,16H-9v64h464C463.8,644.9,471,652,471,660.9z"/>
<path fill="#9ADA7F" d="M87,612.9c17.7,0,32-14.3,32-32v-96c0-17.7-14.3-32-32-32s-32,14.3-32,32v96C55,598.6,69.3,612.9,87,612.9z"
	/>
<path fill="#FD8D10" d="M183,612.9c17.7,0,32-14.3,32-32v-192c0-17.7-14.3-32-32-32s-32,14.3-32,32v192
	C151,598.6,165.3,612.9,183,612.9z"/>
<path fill="#9ADA7F" d="M279,612.9c17.7,0,32-14.3,32-32v-256c0-17.7-14.3-32-32-32s-32,14.3-32,32v256
	C247,598.6,261.3,612.9,279,612.9z"/>
<path fill="#FD8D10" d="M375,612.9c17.7,0,32-14.3,32-32v-320c0-17.7-14.3-32-32-32s-32,14.3-32,32v320
	C343,598.6,357.3,612.9,375,612.9z"/>
</svg>
