<?xml version="1.0" encoding="utf-8"?>
<!-- Generator: Adobe Illustrator 18.1.1, SVG Export Plug-In . SVG Version: 6.00 Build 0)  -->
<!DOCTYPE svg PUBLIC "-//W3C//DTD SVG 1.1//EN" "http://www.w3.org/Graphics/SVG/1.1/DTD/svg11.dtd">
<svg version="1.1" id="Layer_1" xmlns="http://www.w3.org/2000/svg" xmlns:xlink="http://www.w3.org/1999/xlink" x="0px" y="0px"
	 width="512px" height="512px" viewBox="-41 164.9 512 512" enable-background="new -41 164.9 512 512" xml:space="preserve">
<path fill="#999999" d="M471,660.9c0,8.8-7.2,12-16,12H-25c-8.8,0-12-3.2-12-12v-480c0-8.8,3.2-16,12-16s12,7.2,12,16v80H7
	c8.8,0,16,7.2,16,16c0,8.8-7.2,16-16,16h-20v64H7c8.8,0,16,7.2,16,16s-7.2,16-16,16h-20v64H7c8.8,0,16,7.2,16,16s-7.2,16-16,16h-20
	v64H7c8.8,0,16,7.2,16,16s-7.2,16-16,16h-20v68h468C463.8,648.9,471,652,471,660.9z"/>
<path fill="#9ADA7F" d="M293.1,388.9c8.5,0,15.5-6.9,15.5-15.5V327c0-8.6-6.9-15.5-15.5-15.5c-8.5,0-15.5,6.9-15.5,15.5v46.4
	C277.6,382,284.5,388.9,293.1,388.9z"/>
<path fill="#FD8D10" d="M335.5,388.9c8.5,0,15.5-6.9,15.5-15.5v-92.8c0-8.6-6.9-15.5-15.5-15.5c-8.5,0-15.5,6.9-15.5,15.5v92.8
	C320,382,326.9,388.9,335.5,388.9z"/>
<path fill="#9ADA7F" d="M376.9,388.9c8.6,0,15.5-6.9,15.5-15.5V249.6c0-8.6-6.9-15.5-15.5-15.5c-8.6,0-15.5,6.9-15.5,15.5v123.8
	C361.4,382,368.4,388.9,376.9,388.9z"/>
<path fill="#FD8D10" d="M419.3,388.9c8.6,0,15.5-6.9,15.5-15.5V218.7c0-8.6-6.9-15.5-15.5-15.5c-8.6,0-15.5,6.9-15.5,15.5v154.7
	C403.9,382,410.8,388.9,419.3,388.9z"/>
<rect x="110" y="490.4" transform="matrix(0.6887 0.7251 -0.7251 0.6887 443.0976 88.2768)" fill="#9ADA7F" width="17.4" height="139.3"/>
<rect x="195.4" y="493.1" transform="matrix(-0.601 0.7993 -0.7993 -0.601 767.6401 720.0536)" fill="#9ADA7F" width="17.4" height="117.2"/>
<rect x="316.4" y="426" transform="matrix(0.655 0.7556 -0.7556 0.655 504.1095 -66.736)" fill="#9ADA7F" width="17.4" height="185.5"/>
<path fill="#FD8D10" stroke="#FD8D10" stroke-width="0.3831" stroke-miterlimit="10" d="M403.9,430.5c-10.2,0-18.5,8.3-18.5,18.5
	c0,5,2,9.5,5.2,12.8c0,0,2.7,2.5,5.5,3.9c2.8,1.4,5.6,1.5,5.6,1.5c0.7,0.1,1.5,0.2,2.2,0.2c10.2,0,18.5-8.3,18.5-18.5
	S414.1,430.5,403.9,430.5z"/>
<path fill="#FD8D10" stroke="#FD8D10" stroke-width="0.3831" stroke-miterlimit="10" d="M248.6,566.6c-10.2,0-18.5,8.3-18.5,18.5
	c0,5,2,9.5,5.2,12.8c0,0,2.7,2.5,5.5,3.9c2.8,1.4,5.6,1.5,5.6,1.5c0.7,0.1,1.5,0.2,2.2,0.2c10.2,0,18.5-8.3,18.5-18.5
	C267.1,574.9,258.8,566.6,248.6,566.6z"/>
<path fill="#FD8D10" stroke="#FD8D10" stroke-width="0.3831" stroke-miterlimit="10" d="M68.2,587.6c-10.2,0-18.5,8.3-18.5,18.5
	c0,5,2,9.5,5.2,12.8c0,0,2.7,2.5,5.5,3.9c2.8,1.4,5.6,1.5,5.6,1.5c0.7,0.1,1.5,0.2,2.2,0.2c10.2,0,18.5-8.3,18.5-18.5
	C86.6,595.9,78.4,587.6,68.2,587.6z"/>
<path fill="#FD8D10" stroke="#FD8D10" stroke-width="0.3831" stroke-miterlimit="10" d="M156.6,500.2c-10.2,0-18.5,8.3-18.5,18.5
	c0,5,2,9.5,5.2,12.8c0,0,2.7,2.5,5.5,3.9c2.8,1.4,5.6,1.5,5.6,1.5c0.7,0.1,1.5,0.2,2.2,0.2c10.2,0,18.5-8.3,18.5-18.5
	C175.1,508.5,166.8,500.2,156.6,500.2z"/>
<rect x="143" y="398.9" transform="matrix(-0.204 -0.979 0.979 -0.204 -289.218 728.9669)" fill="#9ADA7F" width="17.4" height="166.3"/>
<rect x="326.8" y="420.7" transform="matrix(0.5435 -0.8394 0.8394 0.5435 -286.7941 520.8949)" fill="#9ADA7F" width="17.4" height="206.8"/>
<path fill="#FD8D10" stroke="#FD8D10" stroke-width="0.3831" stroke-miterlimit="10" d="M436.2,590.7c6.7-7.7,6-19.3-1.6-26.1
	c-0.6-0.5-1.2-0.9-1.8-1.3c0,0-2.2-1.8-5.2-2.5c-2.9-0.8-6.7-0.7-6.7-0.7c-4.6,0.4-9.1,2.4-12.4,6.2c-6.7,7.7-6,19.3,1.6,26.1
	C417.8,599.1,429.5,598.4,436.2,590.7z"/>
<path fill="#FD8D10" stroke="#FD8D10" stroke-width="0.3831" stroke-miterlimit="10" d="M258.1,466.4c0-10.2-8.3-18.5-18.5-18.5
	c-0.8,0-1.5,0.1-2.2,0.2c0,0-2.8,0.1-5.6,1.5c-2.7,1.4-5.5,3.9-5.5,3.9c-3.2,3.3-5.2,7.8-5.2,12.8c0,10.2,8.3,18.5,18.5,18.5
	S258.1,476.6,258.1,466.4z"/>
<path fill="#FD8D10" stroke="#FD8D10" stroke-width="0.3831" stroke-miterlimit="10" d="M85.3,500.2c0-10.2-8.3-18.5-18.5-18.5
	c-0.8,0-1.5,0.1-2.2,0.2c0,0-2.8,0.1-5.6,1.5c-2.7,1.4-5.5,3.9-5.5,3.9c-3.2,3.3-5.2,7.8-5.2,12.8c0,10.2,8.3,18.5,18.5,18.5
	S85.3,510.4,85.3,500.2z"/>
<path fill="#9ADA7F" d="M117.7,339.3L94,380.3c-25.2-16.8-41.9-45.5-41.9-78.1c0-49.8,38.9-90.4,87.9-93.5v47.2
	c-23.1,2.9-41,22.4-41,46.3C99,317.4,106.4,330.8,117.7,339.3z"/>
<path fill="#9ADA7F" d="M183.1,273.9l40.9-23.6c-15.8-23.7-42.1-39.7-72.2-41.6v47.2C164.5,257.5,175.6,264.2,183.1,273.9z"/>
<path fill="#FD8D10" d="M229.8,260.5L189.1,284c2.4,5.6,3.7,11.7,3.7,18.2c0,25.9-21,46.9-46.9,46.9c-6.4,0-12.6-1.3-18.2-3.7
	l-23.5,40.7c12.6,6.3,26.7,9.9,41.7,9.9c51.8,0,93.7-42,93.7-93.7C239.6,287.2,236,273.1,229.8,260.5z"/>
</svg>
