<?xml version="1.0" encoding="UTF-8"?>
<svg width="125px" height="29px" viewBox="0 0 125 29" version="1.1" xmlns="http://www.w3.org/2000/svg" xmlns:xlink="http://www.w3.org/1999/xlink">
    <!-- Generator: Sketch 50.2 (55047) - http://www.bohemiancoding.com/sketch -->
    <title>xl-logo-tagline-white-125x30</title>
    <desc>Created with Sketch.</desc>
    <defs></defs>
    <g id="Page-1" stroke="none" stroke-width="1" fill="none" fill-rule="evenodd">
        <g id="xl-logo-tagline-white-125x30" fill="#FFFFFF" fill-rule="nonzero">
            <path d="M117.73045,17.4729444 C118.067245,17.7959527 118.46322,18.0528261 118.897275,18.2298778 C119.40662,18.4380455 119.95398,18.5404152 120.505203,18.5306 C120.942328,18.5470259 121.378335,18.4765159 121.787275,18.3232667 C122.082585,18.2236214 122.278334,17.946576 122.270946,17.6387222 C122.285387,17.3310928 122.11133,17.0449529 121.829392,16.9128333 C121.589455,16.776704 121.335844,16.6655192 121.072635,16.5810667 C120.644588,16.4415939 120.209558,16.3239201 119.769268,16.2285111 C119.412541,16.1389782 119.061667,16.0281066 118.718592,15.8965111 C118.35194,15.7573937 118.0083,15.5652393 117.698953,15.3263556 C117.386048,15.087338 117.122152,14.7916987 116.921374,14.4552444 C116.709849,14.0856598 116.604397,13.6661885 116.616351,13.2419111 C116.608756,12.7851684 116.73266,12.3356733 116.973671,11.9456444 C117.212383,11.5650304 117.531428,11.2396471 117.909077,10.9916556 C118.309709,10.7288918 118.749464,10.5294533 119.212455,10.4005444 C119.686997,10.2637083 120.178796,10.1939071 120.673187,10.1932222 C121.421771,10.1779676 122.168701,10.268782 122.891137,10.4628889 C123.484961,10.6349301 124.043486,10.9086901 124.541182,11.2716556 L123.258637,12.9930778 C122.934616,12.7701502 122.581084,12.5922117 122.207962,12.4642556 C121.714692,12.2957833 121.19504,12.2149943 120.673164,12.2256444 C120.246095,12.1873141 119.81729,12.2777626 119.443435,12.4850333 C119.229322,12.6266334 119.099648,12.8632143 119.096757,13.1175222 C119.096757,13.4219 119.289456,13.660437 119.674854,13.8331333 C120.256508,14.0677835 120.857885,14.251687 121.472083,14.3827333 C121.935587,14.4808392 122.389279,14.6196133 122.827748,14.7974 C123.202935,14.9486392 123.550859,15.15876 123.858041,15.4196222 C124.140707,15.662788 124.366526,15.9635795 124.51991,16.3012333 C124.683003,16.6849594 124.761873,17.0984174 124.751329,17.5143889 C124.757312,17.961654 124.641078,18.4022513 124.414842,18.7898778 C124.186753,19.1745283 123.874442,19.5040365 123.500732,19.7543222 C123.088937,20.0291254 122.634473,20.2358203 122.155236,20.3662667 C121.625181,20.513757 121.076746,20.5870068 120.526025,20.5838667 C119.676358,20.5956517 118.830761,20.4659664 118.024809,20.2002667 C117.340429,19.9818886 116.724968,19.5924887 116.238277,19.0699333 L117.73045,17.4729444 Z" id="Shape"></path>
            <polygon id="Shape" points="39.212759 13.0966444 34.7356644 6.41848889 37.9306869 6.41848889 40.8526239 10.9397778 43.6690653 6.41848889 46.5488851 6.41848889 42.2397973 13.0345333 47.0533784 20.2520333 43.8583333 20.2520333 40.6211599 15.2121889 37.4261486 20.2520333 34.5463626 20.2520333"></polygon>
            <path d="M56.3640315,18.8415556 C56.3223724,18.8831111 56.2068168,18.9971852 56.0173649,19.1837778 C55.76975,19.4132535 55.4944479,19.6117834 55.1976689,19.7748889 C54.7658262,20.0132642 54.3072926,20.2011581 53.8313514,20.3347667 C53.1850236,20.5128182 52.5157826,20.5966681 51.8448649,20.5836556 C51.1109077,20.5930517 50.3823084,20.4591931 49.7009685,20.1897778 C48.4400125,19.6969201 47.4556191,18.6916179 46.9998086,17.4312444 C46.7472712,16.7398223 46.6226391,16.0092708 46.6318468,15.2743778 C46.6253931,14.5902461 46.7502446,13.9110915 46.9998086,13.2727778 C47.2331693,12.675687 47.5830624,12.1296056 48.0296396,11.6655111 C48.4766538,11.2055349 49.0127309,10.838808 49.6060811,10.5870778 C50.2472322,10.3181692 50.9381162,10.183953 51.6347297,10.1929778 C52.4237813,10.1692984 53.2067093,10.3365909 53.9151351,10.6802444 C54.5114633,10.9822279 55.0266769,11.4194849 55.4184572,11.9561 C55.8027657,12.4945595 56.0808451,13.0996217 56.2381532,13.7396444 C56.4063585,14.4043546 56.4910784,15.0869515 56.4904054,15.7720667 L56.4904054,16.1248444 L49.133018,16.1248444 C49.1280634,16.4648321 49.2114157,16.8004097 49.3751351,17.0996111 C49.5335275,17.3869336 49.7477374,17.6406532 50.0055293,17.8462778 C50.2687754,18.0558727 50.5678383,18.2174041 50.8886374,18.3232667 C51.202813,18.4313764 51.5329682,18.4873938 51.8656982,18.4890444 C52.6121568,18.5021324 53.3520739,18.3497386 54.0308896,18.0431 C54.2525062,17.9445862 54.4608434,17.8192575 54.6511036,17.67 C54.8121697,17.5387111 54.9348236,17.4315444 55.0190653,17.3485 L56.3640315,18.8415556 Z M53.9470608,14.3618556 C53.9454909,14.106101 53.8955754,13.85288 53.7998761,13.6151889 C53.700836,13.3655874 53.5546021,13.1368406 53.368964,12.9411333 C53.1631281,12.7293305 52.9165879,12.5601111 52.6437387,12.4433556 C52.3255459,12.30726 51.9814757,12.2400644 51.6347297,12.2463 C51.2641189,12.2396216 50.8959391,12.3066385 50.5521396,12.4433556 C50.2605193,12.5598703 49.9932771,12.7286393 49.7639189,12.9411333 C49.5600072,13.132821 49.3957455,13.3617399 49.2802477,13.6151889 C49.171463,13.8495893 49.1142018,14.1040564 49.1122297,14.3618556 L53.9470608,14.3618556 Z" id="Shape"></path>
            <path d="M58.2317793,6.41848889 L60.7121734,6.41848889 L60.7121734,11.1886667 C61.0007679,10.9503677 61.3275187,10.761082 61.6790541,10.6285556 C62.2255147,10.4080557 62.8124953,10.3021485 63.4026802,10.3175667 C64.0588266,10.3052954 64.709246,10.4400432 65.3049775,10.7116667 C65.8460703,10.9651835 66.3289686,11.3250937 66.7240541,11.7693222 C67.1264888,12.229921 67.4303437,12.7660743 67.6173423,13.3455333 C67.8228737,13.9683073 67.9258554,14.6195721 67.9223649,15.2745222 C67.9272871,15.9805572 67.7951562,16.6809926 67.5331081,17.338 C67.2827919,17.9676594 66.9035355,18.5396086 66.4190428,19.0181 C65.9155841,19.5082917 65.3192051,19.8958482 64.6639527,20.1586444 C63.9297218,20.4509573 63.1436761,20.5955078 62.3520158,20.5838 C61.5587389,20.5893071 60.766749,20.5198831 59.9868806,20.3764778 C59.3925806,20.2704706 58.8062132,20.1249915 58.2317793,19.9410333 L58.2317793,6.41848889 Z M60.7121734,18.2609333 C60.9101901,18.3308165 61.1142086,18.3828805 61.3217342,18.4164889 C61.6493452,18.4581776 61.9796625,18.4755782 62.3099099,18.4685444 C62.7652065,18.4784695 63.2171859,18.3899342 63.6341104,18.2091556 C64.0008907,18.0447504 64.3298754,17.8083346 64.600991,17.5143333 C64.867891,17.2227434 65.071687,16.8804893 65.1999099,16.5085111 C65.332641,16.1317186 65.4002307,15.7355915 65.3998536,15.3366889 C65.4009186,14.9729469 65.3550391,14.6105513 65.2633221,14.2582444 C65.1784833,13.9270533 65.0323972,13.6141642 64.8324099,13.3353111 C64.637247,13.0669274 64.3816835,12.8468366 64.0857883,12.6923222 C63.7504918,12.5256343 63.3785122,12.4436471 63.0031982,12.4537111 C62.3775845,12.4079621 61.7597925,12.6136689 61.2902027,13.0240889 C60.8885099,13.446062 60.6795876,14.0119962 60.7121171,14.5900222 L60.7121734,18.2609333 Z" id="Shape"></path>
            <polygon id="Shape" points="69.58625 10.5248889 72.0666329 10.5248889 72.0666329 20.2520333 69.58625 20.2520333"></polygon>
            <path d="M80.2026689,19.3393333 C79.8652077,19.7085024 79.4487841,19.9990297 78.983536,20.1898889 C78.4088657,20.4444212 77.7846966,20.5717676 77.1548423,20.5629889 C76.7446856,20.562504 76.3370601,20.4995823 75.9463514,20.3764444 C75.5497556,20.2536387 75.1792547,20.0603315 74.8531194,19.8060556 C74.5156559,19.5406492 74.24269,19.204071 74.0542455,18.8210111 C73.84239,18.3808168 73.7380825,17.8977467 73.7496959,17.4105778 C73.740699,16.8992479 73.848411,16.3924722 74.0648536,15.9277889 C74.269469,15.4992815 74.5715162,15.1231245 74.9475,14.8285778 C75.3536625,14.5175549 75.8179385,14.288514 76.3138176,14.1545333 C76.8885808,13.9968023 77.4830361,13.9199288 78.0795833,13.9261889 C78.2758221,13.9261889 78.493048,13.9296926 78.7312613,13.9367 C78.9696246,13.9437815 79.2008934,13.9541519 79.4250676,13.9678111 C79.6773198,13.981737 79.9365128,13.9955889 80.2026464,14.0093667 L80.2026464,13.7812556 C80.217661,13.32665 79.9956677,12.8961268 79.6144032,12.6404444 C79.1598318,12.3461786 78.6227225,12.2009853 78.0796171,12.2255556 C77.5064924,12.2039016 76.934768,12.2955894 76.3980968,12.4952222 C76.0109245,12.6576666 75.6382602,12.8519008 75.2840315,13.0758778 L74.1491329,11.4167778 C74.3449137,11.2786296 74.5690841,11.1369074 74.8216441,10.9916111 C75.1028107,10.8334691 75.3983041,10.7015281 75.7042905,10.5975 C76.0844741,10.4691491 76.4747591,10.3720222 76.8711599,10.3071111 C77.3819389,10.2259145 77.8988002,10.1877989 78.4161374,10.1931778 C78.9977139,10.1857074 79.5765325,10.2732762 80.1291216,10.4523333 C80.6103888,10.6086139 81.0565571,10.8550855 81.4431419,11.1782222 C81.8041991,11.4852785 82.0913362,11.867892 82.2836599,12.2982222 C82.4824184,12.7459517 82.5827459,13.2301608 82.5780293,13.7189333 L82.5780293,20.2521 L80.2656194,20.2521 L80.2026689,19.3393333 Z M80.2026689,15.8551444 C79.9504167,15.8414481 79.7052628,15.8275963 79.4672072,15.8135889 C79.2705105,15.8001222 79.0637725,15.7897519 78.8469932,15.7824778 C78.6294557,15.7756333 78.4437012,15.7721333 78.2897297,15.7719778 C77.689513,15.7113333 77.0883832,15.878164 76.6082207,16.2386444 C76.3026893,16.5122455 76.1274126,16.8997021 76.1250113,17.3068 C76.1075904,17.6845619 76.2757641,18.0474527 76.5767455,18.2815667 C76.9692876,18.5429036 77.4392184,18.6670206 77.9115878,18.6341222 C78.4833429,18.6331596 79.0383152,18.4433756 79.4880405,18.0950222 C79.6940265,17.9338063 79.8685817,17.7369745 80.0031869,17.5141333 C80.1337105,17.3014872 80.2027011,17.0576253 80.2026689,16.8090222 L80.2026689,15.8551444 Z" id="Shape"></path>
            <polygon id="Shape" points="84.5615991 6.41848889 87.21 6.41848889 87.21 17.9291667 94.1258221 17.9291667 94.1258221 20.2520333 84.5616329 20.2520333"></polygon>
            <path d="M101.353142,19.3393333 C101.015678,19.7084999 100.599255,19.9990268 100.134009,20.1898889 C99.5593345,20.4444207 98.9351619,20.571767 98.3053041,20.5629889 C97.895151,20.5625039 97.4875292,20.4995822 97.0968243,20.3764444 C96.7002262,20.2536363 96.329722,20.0603294 96.0035811,19.8060556 C95.6661208,19.540646 95.3931556,19.2040686 95.2047072,18.8210111 C94.9928517,18.3808168 94.8885442,17.8977467 94.9001577,17.4105778 C94.8911643,16.8992328 94.9988922,16.3924438 95.2153604,15.9277556 C95.4199682,15.4992435 95.7220166,15.1230849 96.0980068,14.8285444 C96.5041664,14.5175236 96.9684382,14.2884829 97.4643131,14.1545 C98.0390763,13.996769 98.6335316,13.9198955 99.2300788,13.9261556 C99.4263326,13.9261556 99.6435623,13.9296593 99.881768,13.9366667 C100.120139,13.9437481 100.351408,13.9541185 100.575574,13.9677778 C100.827827,13.9817037 101.08702,13.9955556 101.353153,14.0093333 L101.353153,13.7812222 C101.368156,13.3266284 101.146164,12.8961204 100.76491,12.6404444 C100.310333,12.3461827 99.7732211,12.2009898 99.2301126,12.2255556 C98.6569915,12.2039012 98.0852708,12.2955891 97.5486036,12.4952222 C97.1614301,12.6576643 96.7887657,12.8518986 96.4345383,13.0758778 L95.2996396,11.4167778 C95.4954279,11.2786296 95.7195983,11.1369074 95.9721509,10.9916111 C96.2533185,10.8334712 96.5488117,10.7015303 96.8547973,10.5975 C97.2349684,10.4691327 97.625242,10.3719872 98.0216329,10.3070556 C98.5324081,10.2258589 99.0492656,10.1877433 99.5665991,10.1931222 C100.148179,10.1856524 100.727001,10.2732212 101.279595,10.4522778 C101.76086,10.6085558 102.207025,10.8550277 102.593604,11.1781667 C102.954661,11.4852256 103.241801,11.8678382 103.434133,12.2981667 C103.632886,12.7458978 103.733213,13.2301058 103.728502,13.7188778 L103.728502,20.2520444 L101.416126,20.2520444 L101.353142,19.3393333 Z M101.353142,15.8551444 C101.10089,15.8414481 100.855736,15.8275963 100.61768,15.8135889 C100.420983,15.8001222 100.214245,15.7897519 99.9974662,15.7824778 C99.7799362,15.7756333 99.5941817,15.7721333 99.4402027,15.7719778 C98.8399823,15.7113316 98.2388483,15.8781623 97.7586824,16.2386444 C97.453151,16.5122455 97.2778743,16.8997021 97.275473,17.3068 C97.2580548,17.6845639 97.4262329,18.047455 97.7272185,18.2815667 C98.1197599,18.5429052 98.5896912,18.6670224 99.0620608,18.6341222 C99.6338129,18.6331623 100.188782,18.4433778 100.638502,18.0950222 C100.844491,17.9338094 101.019047,17.736977 101.153649,17.5141333 C101.284176,17.3014881 101.35317,17.0576263 101.353142,16.8090222 L101.353142,15.8551444 Z" id="Shape"></path>
            <path d="M105.712128,6.41848889 L108.192534,6.41848889 L108.192534,11.1886667 C108.481132,10.9503723 108.807881,10.761087 109.159414,10.6285556 C109.705879,10.4080567 110.292863,10.3021495 110.883052,10.3175667 C111.539195,10.3052967 112.18961,10.4400444 112.785338,10.7116667 C113.326432,10.9651863 113.809334,11.3250959 114.204426,11.7693222 C114.60686,12.229921 114.910715,12.7660743 115.097714,13.3455333 C115.303236,13.9683091 115.406214,14.6195731 115.402725,15.2745222 C115.407653,15.9805577 115.275522,16.6809941 115.013468,17.338 C114.763152,17.9676594 114.383896,18.5396086 113.899403,19.0181 C113.395941,19.5082929 112.799558,19.8958495 112.144302,20.1586444 C111.410071,20.4509582 110.624025,20.5955087 109.832365,20.5838 C109.039088,20.5893066 108.247098,20.5198826 107.46723,20.3764778 C106.87293,20.2704692 106.286563,20.1249902 105.712128,19.9410333 L105.712128,6.41848889 Z M108.192534,18.2609333 C108.390551,18.3308151 108.594569,18.3828792 108.802095,18.4164889 C109.129706,18.4581771 109.460023,18.4755777 109.79027,18.4685444 C110.245567,18.4784705 110.697547,18.3899352 111.114471,18.2091556 C111.481251,18.0447504 111.810236,17.8083346 112.081351,17.5143333 C112.348251,17.2227434 112.552047,16.8804893 112.68027,16.5085111 C112.813005,16.1317192 112.880598,15.7355921 112.880225,15.3366889 C112.881286,14.9729464 112.835403,14.6105509 112.743682,14.2582444 C112.658844,13.9270533 112.512758,13.6141642 112.31277,13.3353111 C112.117629,13.066929 111.862084,12.8468377 111.566205,12.6923222 C111.230909,12.5256329 110.858929,12.4436457 110.483615,12.4537111 C109.858005,12.4079652 109.240218,12.6136718 108.770631,13.0240889 C108.368929,13.4460573 108.160002,14.0119939 108.192534,14.5900222 L108.192534,18.2609333 Z" id="Shape"></path>
            <rect id="Rectangle-path" x="69.502455" y="6.41848889" width="2.6484009" height="2.57175556"></rect>
            <polygon id="Shape" points="69.58625 23.5678444 72.2493356 23.5678444 72.2493356 24.0996111 70.1950113 24.0996111 70.1950113 25.3133889 71.7421396 25.3133889 71.7421396 25.8513889 70.1950113 25.8513889 70.1950113 27.2027444 72.4015653 27.2027444 72.4015653 27.7407556 69.58625 27.7407556"></polygon>
            <path d="M73.0256757,27.7407556 L73.0256757,25.1318667 C73.0256757,25.0359556 73.0235661,24.9358481 73.0193468,24.8315444 L73.5647185,24.8315444 L73.583705,25.2695444 C73.6217755,25.2194852 73.6682845,25.1642111 73.723232,25.1037222 C73.7827599,25.0394766 73.8510169,24.9836726 73.9260586,24.9379 C74.120344,24.8198817 74.3447703,24.7591135 74.5728941,24.7627556 C74.8947245,24.7374713 75.2104374,24.8597581 75.4288851,25.0943111 C75.6270233,25.3525882 75.7258736,25.6718437 75.7078491,25.9952778 L75.7078491,27.7407222 L75.1371622,27.7407222 L75.1371622,26.0391111 C75.1553675,25.8251035 75.092078,25.6120837 74.9596509,25.4416444 C74.8286555,25.3092898 74.645838,25.239625 74.4586824,25.2507444 C74.314555,25.2455868 74.1718333,25.2802604 74.0466104,25.3508556 C73.9390157,25.415305 73.8487371,25.5043761 73.7834122,25.6105333 C73.7155593,25.7227324 73.6673365,25.8454025 73.6407658,25.9734 C73.6110137,26.1101142 73.5961284,26.2495699 73.5963626,26.3894 L73.5963626,27.7407556 L73.0256757,27.7407556 Z" id="Shape"></path>
            <path d="M76.7769369,25.3008 L76.2442793,25.3008 L76.2442793,24.8315556 L76.7769369,24.8315556 L76.7769369,23.8806333 L77.3476239,23.8806333 L77.3476239,24.8315556 L78.2099437,24.8315556 L78.2099437,25.3007778 L77.3476239,25.3007778 L77.3476239,26.7335 C77.3305363,26.9017088 77.3695069,27.0708276 77.4586261,27.2152111 C77.5368502,27.3047513 77.6528396,27.3532913 77.772455,27.3465444 C77.8659423,27.3497059 77.9589981,27.3326399 78.0450901,27.2965444 C78.124484,27.2579457 78.197234,27.2072715 78.2606757,27.1463778 L78.5206532,27.4904222 C78.3033405,27.7151261 77.9981149,27.8360609 77.6836486,27.8220556 C77.4280002,27.8439599 77.1757749,27.7521994 76.995732,27.5717889 C76.831326,27.3448606 76.7538007,27.0677639 76.7769369,26.7897556 L76.7769369,25.3008 Z" id="Shape"></path>
            <path d="M81.6429054,27.3153444 C81.5950603,27.3662013 81.5442415,27.4142537 81.4907095,27.4592556 C81.4103448,27.5259616 81.3219851,27.582682 81.2276126,27.6281444 C81.1059195,27.6875546 80.9784656,27.7347078 80.8471847,27.7688889 C80.6847058,27.8105591 80.5173002,27.8305593 80.3494369,27.8283556 C80.1348106,27.8308284 79.9217007,27.7926026 79.7216892,27.7157556 C79.5378053,27.6448341 79.3713666,27.5360324 79.2334797,27.3966111 C79.0955023,27.2549334 78.9886316,27.0866938 78.9195495,26.9024111 C78.8433988,26.6981742 78.8058114,26.4819011 78.8086486,26.2643 C78.8069984,26.0602919 78.8435419,25.8577368 78.9164414,25.6668222 C78.9841199,25.4877526 79.0875967,25.3239363 79.2207207,25.1851111 C79.3531803,25.0485924 79.5115568,24.9391077 79.6868356,24.8628889 C79.8736495,24.7822213 80.0757208,24.7416944 80.2796284,24.744 C80.5060662,24.7378669 80.7305025,24.7873214 80.9327815,24.8879222 C81.1094941,24.9796099 81.2624623,25.1101764 81.3798536,25.2695222 C81.4987492,25.433747 81.5858019,25.6182714 81.6366104,25.8137667 C81.6920154,26.0220463 81.7197068,26.2365559 81.7189865,26.4518889 L79.391982,26.4518889 C79.3947146,26.5754006 79.4238808,26.6969469 79.4775676,26.8085556 C79.5290187,26.9152102 79.6011683,27.0108746 79.6899324,27.0901333 C79.7794503,27.1698125 79.8824819,27.2333256 79.9943131,27.2777667 C80.1090876,27.3238076 80.2319035,27.3471788 80.3557995,27.3465556 C80.5680291,27.3545103 80.7790503,27.3115886 80.9707883,27.2214667 C81.1003202,27.1603753 81.2182877,27.0778409 81.3195721,26.9774444 L81.6429054,27.3153444 Z M81.1292793,26.0327778 C81.1173794,25.8195394 81.0324419,25.6166083 80.8883784,25.4572222 C80.7310192,25.2931373 80.508164,25.2061242 80.2796171,25.2195333 C80.1546028,25.2175667 80.0305136,25.2409811 79.9150563,25.2883222 C79.8122273,25.3309489 79.7185859,25.3925428 79.6391554,25.4698 C79.5635337,25.544194 79.5032505,25.6323508 79.4616441,25.7293889 C79.4197782,25.825459 79.3961468,25.9282975 79.3919257,26.0327889 L81.1292793,26.0327778 Z" id="Shape"></path>
            <path d="M82.5150338,27.7407556 L82.5150338,25.1131667 C82.5150338,25.0214556 82.5129242,24.9275926 82.508705,24.8315778 L83.0540653,24.8315778 L83.0730631,25.3008 C83.1134266,25.242539 83.1579065,25.1871607 83.2061712,25.1350778 C83.2650334,25.0713172 83.3322203,25.0155553 83.4059685,24.9692556 C83.4912821,24.9158297 83.5828233,24.8727661 83.6786036,24.841 C83.7941818,24.8037275 83.9152591,24.7857692 84.0368356,24.7878667 C84.0952079,24.787519 84.1535178,24.7916948 84.2112275,24.8003556 C84.2619752,24.8082155 84.3118558,24.8207937 84.3602027,24.8379222 L84.2334234,25.3634778 C83.916557,25.2514301 83.5625038,25.3362837 83.3330405,25.5792667 C83.2557365,25.6625034 83.1944913,25.7589716 83.1523198,25.8639222 C83.1077414,25.9732952 83.0851227,26.0901713 83.0857207,26.2080556 L83.0857207,27.7408 L82.5150338,27.7407556 Z" id="Shape"></path>
            <path d="M85.0294032,28.992 L85.0294032,25.1319 C85.0294032,25.0359889 85.0272935,24.9358815 85.0230743,24.8315778 L85.5684459,24.8315778 L85.5874324,25.2445 C85.6268715,25.1961854 85.669207,25.1502439 85.7142117,25.1069222 C85.7765218,25.0470755 85.845681,24.9945889 85.9202928,24.9505222 C86.011011,24.8967123 86.107853,24.8536623 86.2088063,24.8222667 C86.3319877,24.7848875 86.4603767,24.7669258 86.5892342,24.7690444 C86.794078,24.7639974 86.9972205,24.8068943 87.182027,24.8942222 C87.3447344,24.974161 87.4868032,25.0896874 87.5974099,25.232 C87.7093185,25.3779578 87.7921491,25.5435367 87.841509,25.7199556 C87.8951361,25.909364 87.9218141,26.1052091 87.920777,26.3018667 C87.9265587,26.536286 87.8800205,26.7690916 87.7844595,26.9837889 C87.7013459,27.1651808 87.5803332,27.3272031 87.4293468,27.4592444 C87.2865876,27.5825835 87.1207247,27.6771377 86.9411261,27.7375667 C86.7709155,27.7964669 86.5919929,27.827145 86.4116216,27.8283556 C86.2498998,27.8332441 86.0883963,27.8131801 85.9329505,27.7688889 C85.8125,27.7292815 85.6994219,27.6865296 85.5937162,27.6406333 L85.5937162,28.992 L85.0294032,28.992 Z M85.5937725,27.1088778 C85.6827181,27.1748092 85.7809869,27.2275075 85.8854392,27.2652889 C86.0377402,27.3195694 86.1990498,27.3450253 86.3609122,27.3403222 C86.4970967,27.3418564 86.6320959,27.3152173 86.7572072,27.2621222 C86.8753401,27.2116994 86.981253,27.137063 87.0679167,27.0431667 C87.1556126,26.9475989 87.2234893,26.8360097 87.267714,26.7147 C87.3154132,26.5822177 87.3390154,26.4424625 87.3374324,26.3018778 C87.3382672,26.1669784 87.3222762,26.0324902 87.2898198,25.9014444 C87.2609664,25.7823871 87.2093444,25.6698584 87.1377252,25.5699 C87.0675913,25.4736953 86.9751911,25.3954026 86.8682095,25.3415333 C86.741759,25.2816508 86.6025551,25.2526865 86.4623649,25.2570889 C86.2749754,25.2520986 86.0915064,25.3105848 85.9425,25.4228111 C85.7898621,25.5471025 85.6829041,25.7174864 85.6381194,25.9076889 C85.6162863,25.9777837 85.6034977,26.050315 85.6000563,26.1235667 C85.5957995,26.2007444 85.5936899,26.2810296 85.5937275,26.3644222 L85.5937725,27.1088778 Z" id="Shape"></path>
            <path d="M88.6528829,27.7407556 L88.6528829,25.1131667 C88.6528829,25.0214556 88.6507733,24.9275926 88.6465541,24.8315778 L89.1919257,24.8315778 L89.2109122,25.3008 C89.2512793,25.2425416 89.2957589,25.1871636 89.3440203,25.1350778 C89.4028841,25.0713146 89.4700751,25.0155524 89.5438288,24.9692556 C89.6291401,24.9158255 89.7206818,24.8727615 89.816464,24.841 C89.9320417,24.8037259 90.0531194,24.7857675 90.1746959,24.7878667 C90.2330646,24.7875186 90.2913707,24.7916944 90.3490766,24.8003556 C90.3998283,24.8082141 90.4497127,24.8207924 90.4980631,24.8379222 L90.3712838,25.3634778 C90.054413,25.2514465 89.7003659,25.3362976 89.4708896,25.5792667 C89.3935893,25.662504 89.3323478,25.7589722 89.2901802,25.8639222 C89.2455982,25.9732945 89.2229756,26.0901706 89.2235698,26.2080556 L89.2235698,27.7408 L88.6528829,27.7407556 Z" id="Shape"></path>
            <path d="M91.1569032,23.6804444 L91.7973086,23.6804444 L91.7973086,24.3124 L91.1569032,24.3124 L91.1569032,23.6804444 Z M91.1949662,24.8315556 L91.7656644,24.8315556 L91.7656644,27.7407333 L91.1949662,27.7407333 L91.1949662,24.8315556 Z" id="Shape"></path>
            <path d="M92.8168919,27.0087778 C92.9262209,27.1155485 93.0553872,27.2005213 93.1973198,27.2590444 C93.3602864,27.3244406 93.5350517,27.3563795 93.7109459,27.3529111 C93.8743656,27.3582689 94.0369094,27.3272379 94.186509,27.2621222 C94.3039514,27.2157564 94.3797899,27.102226 94.3766667,26.9774556 C94.3783434,26.9175737 94.3641479,26.8582973 94.3354842,26.8054889 C94.30136,26.7512533 94.2531917,26.7069798 94.1959459,26.6772333 C94.1137055,26.6328984 94.0264862,26.5982178 93.9360698,26.5739 C93.828277,26.5426704 93.6940353,26.5082741 93.5333446,26.4707111 C93.4180288,26.4453404 93.3046934,26.4118889 93.1942005,26.3706111 C93.0857544,26.33091 92.9841452,26.2749816 92.8929392,26.2047889 C92.8046797,26.1365933 92.731342,26.0514578 92.6773536,25.9545222 C92.6197425,25.8455818 92.5913821,25.723894 92.5949775,25.6010667 C92.5919659,25.4703865 92.625995,25.3414725 92.693232,25.2288444 C92.7599533,25.1212314 92.849795,25.029375 92.9564189,24.9597556 C93.0701333,24.8850524 93.1953957,24.8290784 93.3273086,24.7940222 C93.4667418,24.7561947 93.6107418,24.7372544 93.7553491,24.7377222 C93.9739345,24.7329348 94.1916954,24.7657397 94.3988739,24.8346667 C94.5721004,24.8956854 94.7323053,24.9879789 94.8713063,25.1068333 L94.5605968,25.4946778 C94.4620964,25.4095842 94.3494832,25.341858 94.2276914,25.2944667 C94.0792436,25.2375368 93.9209105,25.2099217 93.7616779,25.2131889 C93.6107905,25.2066479 93.460578,25.2366988 93.3241892,25.3007111 C93.2160909,25.3557584 93.1513268,25.4687744 93.1592455,25.5885444 C93.1625428,25.7185995 93.251202,25.8314161 93.3780405,25.8669556 C93.564193,25.9397689 93.7561115,25.9973193 93.9518468,26.0390222 C94.0839781,26.0701646 94.2141823,26.1087878 94.3418131,26.1547 C94.4555132,26.1949139 94.5623999,26.2518533 94.6588514,26.3235889 C94.7487675,26.3913522 94.8223832,26.4778963 94.8744257,26.5770222 C94.930151,26.6898901 94.9573486,26.814393 94.9536937,26.9398889 C94.9566221,27.0749387 94.9214967,27.2081395 94.8522297,27.3246556 C94.7834927,27.4363049 94.6903462,27.5313944 94.5795946,27.6029778 C94.4591866,27.6808205 94.326275,27.7379597 94.186509,27.7719667 C94.035222,27.8098722 93.8796914,27.8287883 93.7236036,27.8282667 C93.2600955,27.8632697 92.8034388,27.7016904 92.4681081,27.3840333 L92.8168919,27.0087778 Z" id="Shape"></path>
            <path d="M98.2468694,27.3153444 C98.1990242,27.3662013 98.1482055,27.4142537 98.0946734,27.4592556 C98.0143088,27.5259616 97.9259491,27.582682 97.8315766,27.6281444 C97.7098834,27.6875546 97.5824296,27.7347078 97.4511486,27.7688889 C97.2886697,27.8105591 97.1212641,27.8305593 96.9534009,27.8283556 C96.7387745,27.8308292 96.5256644,27.7926034 96.3256532,27.7157556 C96.1417693,27.6448341 95.9753305,27.5360324 95.8374437,27.3966111 C95.6994663,27.2549334 95.5925956,27.0866938 95.5235135,26.9024111 C95.4473627,26.6981742 95.4097754,26.4819011 95.4126126,26.2643 C95.4109642,26.060293 95.4475037,25.857739 95.5203941,25.6668222 C95.588081,25.4877541 95.691561,25.3239386 95.8246847,25.1851111 C95.957142,25.0485897 96.1155191,24.9391047 96.2907995,24.8628889 C96.4776135,24.7822213 96.6796847,24.7416944 96.8835923,24.744 C97.1100301,24.7378669 97.3344665,24.7873214 97.5367455,24.8879222 C97.713456,24.9796128 97.8664235,25.1101788 97.9838176,25.2695222 C98.1027087,25.4337496 98.1897609,25.6182732 98.2405743,25.8137667 C98.2959794,26.0220463 98.3236708,26.2365559 98.3229505,26.4518889 L95.9959459,26.4518889 C95.9986854,26.5753997 96.0278512,26.6969447 96.0815315,26.8085556 C96.1329867,26.9152107 96.2051402,27.010875 96.2939077,27.0901333 C96.3834255,27.1698125 96.4864571,27.2333256 96.5982883,27.2777667 C96.7130451,27.323801 96.8358413,27.3471721 96.9597185,27.3465556 C97.1719517,27.3545104 97.3829765,27.3115886 97.5747185,27.2214667 C97.7042504,27.1603753 97.8222179,27.0778409 97.9235023,26.9774444 L98.2468694,27.3153444 Z M97.733232,26.0327778 C97.7213415,25.8195394 97.6364071,25.6166065 97.4923423,25.4572222 C97.3349831,25.2931373 97.112128,25.2061242 96.8835811,25.2195333 C96.7585668,25.2175667 96.6344776,25.2409811 96.5190203,25.2883222 C96.4161912,25.3309489 96.3225499,25.3925428 96.2431194,25.4698 C96.1674976,25.544194 96.1072145,25.6323508 96.0656081,25.7293889 C96.0237421,25.825459 96.0001108,25.9282975 95.9958896,26.0327889 L97.733232,26.0327778 Z" id="Shape"></path>
            <path d="M100.550214,23.5675111 L101.964234,23.5675111 C102.276086,23.5645868 102.58676,23.605673 102.886824,23.6895222 C103.153902,23.7635255 103.401573,23.8937079 103.612815,24.0711222 C103.820068,24.2501674 103.982787,24.4738644 104.088378,24.7249 C104.209206,25.0230605 104.267438,25.3423168 104.25955,25.6633333 C104.266572,25.9771758 104.208316,26.2891073 104.088378,26.5798667 C103.982224,26.8297079 103.819554,27.0522805 103.612815,27.2305556 C103.40037,27.4086977 103.15173,27.5398974 102.883615,27.6153333 C102.582847,27.7011488 102.271016,27.7432874 101.957939,27.7404222 L100.550282,27.7404222 L100.550214,23.5675111 Z M101.945158,27.2024111 C102.390389,27.2294914 102.829933,27.0923605 103.178446,26.8176444 C103.489251,26.520102 103.650608,26.1020665 103.619144,25.6759111 C103.648789,25.2455239 103.49477,24.8224994 103.194324,24.5091111 C102.841376,24.2161066 102.386102,24.0712492 101.92616,24.1056111 L101.158975,24.1056111 L101.158975,27.2024111 L101.945158,27.2024111 Z" id="Shape"></path>
            <path d="M107.518829,27.3150111 C107.470981,27.3658651 107.420162,27.4139173 107.366633,27.4589222 C107.286268,27.5256282 107.197909,27.5823487 107.103536,27.6278111 C106.981843,27.6872212 106.854389,27.7343745 106.723108,27.7685556 C106.560629,27.8102257 106.393224,27.8302259 106.22536,27.8280222 C106.010734,27.8304959 105.797624,27.79227 105.597613,27.7154222 C105.413729,27.6445008 105.24729,27.5356991 105.109403,27.3962778 C104.971426,27.2546001 104.864555,27.0863605 104.795473,26.9020778 C104.719322,26.6978409 104.681735,26.4815677 104.684572,26.2639667 C104.682922,26.0599586 104.719465,25.8574035 104.792365,25.6664889 C104.860043,25.4874193 104.96352,25.3236029 105.096644,25.1847778 C105.229101,25.0482564 105.387479,24.9387713 105.562759,24.8625556 C105.749573,24.781888 105.951644,24.7413611 106.155552,24.7436667 C106.38199,24.7375279 106.606428,24.7869828 106.808705,24.8875889 C106.985415,24.9792795 107.138383,25.1098455 107.255777,25.2691889 C107.374668,25.4334163 107.46172,25.6179398 107.512534,25.8134333 C107.567939,26.021713 107.59563,26.2362225 107.59491,26.4515556 L105.267905,26.4515556 C105.270648,26.5750481 105.299814,26.6965743 105.353491,26.8081667 C105.404942,26.9148275 105.477096,27.0104961 105.565867,27.0897556 C105.655385,27.1694347 105.758417,27.2329478 105.870248,27.2773889 C105.985022,27.3234304 106.107838,27.3468016 106.231734,27.3461778 C106.443968,27.3541339 106.654993,27.3112121 106.846734,27.2210889 C106.976249,27.1600039 107.094204,27.0774852 107.195484,26.9771111 L107.518829,27.3150111 Z M107.005169,26.0324444 C106.993265,25.819207 106.908328,25.6162774 106.764268,25.4568889 C106.606907,25.2928081 106.384052,25.2057991 106.155507,25.2192111 C106.030492,25.2172445 105.906403,25.2406588 105.790946,25.288 C105.688117,25.3306266 105.594476,25.3922206 105.515045,25.4694778 C105.439423,25.5438717 105.37914,25.6320286 105.337534,25.7290667 C105.295668,25.8251368 105.272036,25.9279753 105.267815,26.0324667 L107.005169,26.0324444 Z" id="Shape"></path>
            <polygon id="Shape" points="107.718086 24.8312444 108.37116 24.8312444 109.290529 27.1023 110.203671 24.8312444 110.818671 24.8312444 109.556836 27.7404444 108.986239 27.7404444"></polygon>
            <path d="M113.295023,27.8467667 C113.002676,27.8491808 112.713119,27.7905413 112.445372,27.6747 C112.188441,27.5636265 111.955886,27.4042578 111.760687,27.2054889 C111.564109,27.0043571 111.409043,26.7674311 111.304122,26.5079 C111.193116,26.2355365 111.137116,25.9443971 111.139268,25.6508444 C111.136934,25.3582698 111.192948,25.0680991 111.304122,24.7968556 C111.409314,24.5391402 111.563158,24.3034827 111.757477,24.1024111 C111.952013,23.9028152 112.184784,23.7433231 112.442286,23.6331889 C112.987059,23.403767 113.603155,23.403767 114.147928,23.6331889 C114.406067,23.7438163 114.639768,23.9032194 114.835856,24.1024111 C115.031787,24.3028502 115.186794,24.5386186 115.292421,24.7968556 C115.403547,25.0681131 115.459559,25.3582742 115.457275,25.6508444 C115.459377,25.9443927 115.403379,26.2355226 115.292421,26.5079 C115.187428,26.7673946 115.032371,27.0043078 114.835856,27.2054889 C114.639819,27.4047366 114.406105,27.5641447 114.147928,27.6747 C113.878975,27.790353 113.5884,27.8489742 113.295023,27.8467667 Z M113.295023,27.2836889 C113.720771,27.2910113 114.128061,27.1124254 114.407872,26.7957333 C114.542909,26.6423252 114.647251,26.4650517 114.715372,26.2733 C114.787911,26.0714684 114.824383,25.8587427 114.823164,25.6446 C114.824712,25.4283618 114.788241,25.2134969 114.715372,25.0095556 C114.647206,24.8178511 114.542868,24.6406147 114.407872,24.4872111 C114.27451,24.3369568 114.110233,24.2164632 113.92598,24.1337556 C113.727642,24.0461597 113.5123,24.0023867 113.295023,24.0055 C113.078785,24.0021445 112.864465,24.0459388 112.667365,24.1337556 C112.48434,24.2170086 112.321195,24.3374543 112.188604,24.4872111 C112.053571,24.6405895 111.949229,24.817833 111.881104,25.0095556 C111.808192,25.2134859 111.771719,25.4283583 111.773311,25.6446 C111.772049,25.8587462 111.808522,26.0714792 111.881104,26.2733 C111.949184,26.4650698 112.05353,26.6423503 112.188604,26.7957333 C112.321641,26.9458337 112.484623,27.0672513 112.667365,27.1524 C112.863911,27.242191 113.078458,27.2870684 113.295023,27.2836889 Z" id="Shape"></path>
            <path d="M116.031655,28.9916667 L116.031655,25.1315556 C116.031655,25.0356444 116.029546,24.935537 116.025327,24.8312333 L116.570698,24.8312333 L116.589685,25.2441556 C116.629114,25.195833 116.67145,25.149891 116.716464,25.1065778 C116.778773,25.0467304 116.847933,24.9942438 116.922545,24.9501778 C117.013265,24.8963686 117.110107,24.8533151 117.211059,24.8219111 C117.334241,24.7845374 117.462629,24.7665758 117.591486,24.7686889 C117.796331,24.7636453 117.999474,24.806546 118.184279,24.8938778 C118.346989,24.9738129 118.489059,25.0893399 118.599662,25.2316556 C118.711572,25.3776141 118.794406,25.5431925 118.843773,25.7196111 C118.897389,25.9090177 118.924063,26.1048581 118.923029,26.3015111 C118.928831,26.5359264 118.882312,26.7687324 118.786768,26.9834333 C118.703656,27.1648292 118.582643,27.3268555 118.431655,27.4589 C118.288898,27.5822414 118.123034,27.6767959 117.943435,27.7372222 C117.773228,27.7961216 117.594309,27.8267997 117.413941,27.8280111 C117.252216,27.8329005 117.090709,27.8128364 116.935259,27.7685444 C116.814809,27.728937 116.70173,27.6861852 116.596025,27.6402889 L116.596025,28.9916667 L116.031655,28.9916667 Z M116.596014,27.1085444 C116.684976,27.1744819 116.783264,27.2271804 116.887736,27.2649556 C117.040033,27.319237 117.201339,27.344693 117.363198,27.3399889 C117.499382,27.3415175 117.63438,27.3148786 117.759493,27.2617889 C117.877628,27.2113699 117.983542,27.136733 118.070203,27.0428333 C118.157898,26.9472633 118.225778,26.8356749 118.270011,26.7143667 C118.317712,26.5818808 118.341314,26.4421218 118.33973,26.3015333 C118.340558,26.166638 118.324567,26.0321542 118.292117,25.9011111 C118.263255,25.7820547 118.21163,25.669527 118.140011,25.5695667 C118.069881,25.4733591 117.97748,25.3950657 117.870495,25.3412 C117.744045,25.2813162 117.604841,25.2523519 117.464651,25.2567556 C117.277262,25.2517689 117.093794,25.3102546 116.944786,25.4224778 C116.792151,25.5467719 116.685194,25.7171547 116.640405,25.9073556 C116.618572,25.9774504 116.605784,26.0499816 116.602342,26.1232333 C116.598086,26.2004111 116.595976,26.2806926 116.596014,26.3640778 L116.596014,27.1085444 Z" id="Shape"></path>
            <path d="M119.684617,27.0084444 C119.793946,27.1152152 119.923112,27.200188 120.065045,27.2587111 C120.228012,27.3241035 120.402778,27.3560386 120.578671,27.3525667 C120.742086,27.3579236 120.904625,27.3268966 121.054223,27.2617889 C121.171672,27.2154293 121.247517,27.1018963 121.244392,26.9771222 C121.246069,26.9172404 121.231873,26.857964 121.203209,26.8051556 C121.169082,26.75092 121.120914,26.7066437 121.063671,26.6768889 C120.981424,26.6325838 120.894206,26.5979259 120.803795,26.5736222 C120.696002,26.5423926 120.561761,26.5079963 120.40107,26.4704333 C120.285752,26.4450642 120.172417,26.4116088 120.061926,26.3703222 C119.953478,26.3306295 119.851868,26.2747045 119.760664,26.2045111 C119.672402,26.1363186 119.599064,26.0511825 119.545079,25.9542444 C119.487468,25.845304 119.459107,25.7236162 119.462703,25.6007889 C119.459689,25.4701085 119.493719,25.341194 119.560957,25.2285667 C119.627677,25.1209496 119.717519,25.0290893 119.824144,24.9594667 C119.937862,24.8847721 120.063123,24.8288022 120.195034,24.7937444 C120.334467,24.7559169 120.478467,24.7369767 120.623074,24.7374444 C120.84166,24.7326571 121.059421,24.7654619 121.266599,24.8343889 C121.439828,24.8954032 121.600033,24.9876971 121.739032,25.1065556 L121.428322,25.4944 C121.329822,25.4093064 121.217208,25.3415802 121.095417,25.2941889 C120.946969,25.237259 120.788636,25.209644 120.629403,25.2129111 C120.478516,25.2063701 120.328303,25.236421 120.191914,25.3004333 C120.083816,25.3554806 120.019052,25.4684966 120.026971,25.5882667 C120.030267,25.7183187 120.11892,25.8311343 120.245755,25.8666778 C120.431908,25.9394877 120.623826,25.997038 120.819561,26.0387444 C120.951698,26.0698802 121.081906,26.1085035 121.209538,26.1544222 C121.323239,26.1946358 121.430125,26.2515752 121.526577,26.3233111 C121.616488,26.391084 121.690102,26.4776305 121.742151,26.5767556 C121.797877,26.689623 121.825075,26.8141263 121.821419,26.9396222 C121.824347,27.074672 121.789222,27.2078729 121.719955,27.3243889 C121.651218,27.4360382 121.558071,27.5311277 121.44732,27.6027111 C121.326905,27.6805486 121.19399,27.7376873 121.054223,27.7717 C120.90294,27.8096062 120.747413,27.8285223 120.591329,27.828 C120.127821,27.863003 119.671164,27.7014237 119.335833,27.3837667 L119.684617,27.0084444 Z" id="Shape"></path>
            <path d="M24.7163063,19.0307444 L23.166982,16.8504444 C23.0442732,16.6777448 22.8439421,16.5749091 22.6301802,16.5748889 L20.2419032,16.5748889 L20.2419032,9.17761111 C20.2419002,9.00604551 20.1728221,8.84150796 20.0498654,8.72019485 C19.9269087,8.59888173 19.7601453,8.53073039 19.5862613,8.53073333 L17.4178604,8.53073333 L17.4178604,17.9654333 L14.183018,13.4132111 L17.4178604,8.53078889 L14.6844369,8.53078889 C14.4631262,8.53079328 14.256752,8.64095303 14.1356532,8.82372222 L7.37341216,19.0307444 L10.1065203,19.0307 C10.3318619,19.0306934 10.5414096,18.9165057 10.6614189,18.7283222 L12.4813288,15.9815556 L14.6488176,19.0307444 L18.1748536,19.0307444 L24.7163063,19.0307444 Z" id="Shape"></path>
            <polygon id="Shape" points="10.7128378 8.52888889 7.18581081 8.52888889 10.5518018 13.2655556 12.2533784 10.6977778"></polygon>
            <path d="M29.432714,5.16787778 C29.4297416,2.64789242 27.3600414,0.605763445 24.8060023,0.6028 L8.19676802,0.603388889 L10.4133896,2.78981111 L24.8060023,2.78981111 C26.1364818,2.79130523 27.2146604,3.85513796 27.2161374,5.16787778 L27.2161374,24.2119667 L7.09931306,24.2119667 C5.76883356,24.2104726 4.69065494,23.1466398 4.68917793,21.8339 L4.68917793,3.99446667 L5.40483108,4.70072222 C5.59681552,4.89020329 5.90812733,4.890258 6.10018018,4.70084444 L7.01927928,3.79445556 C7.11154369,3.70347964 7.16339068,3.58006021 7.16340969,3.4513596 C7.16342869,3.322659 7.11161816,3.19922467 7.01938063,3.10822222 L4.06147523,0.1895 C3.9385162,0.0681654778 3.77173888,-8.03792401e-07 3.59783784,-8.03792401e-07 C3.4239368,-8.03792401e-07 3.25715948,0.0681654778 3.13420045,0.1895 L0.144009009,3.14015556 C-0.048015988,3.32962412 -0.048015988,3.63680922 0.144009009,3.82627778 L1.06252252,4.73254444 C1.25454632,4.92200043 1.56587035,4.92200043 1.75789414,4.73254444 L2.47255631,4.02754444 L2.47255631,21.8339 C2.47552257,24.3539052 4.54525373,26.3960449 7.09931306,26.3989778 L29.432714,26.3989778 L29.432714,5.16787778 Z" id="Shape"></path>
        </g>
    </g>
</svg>