<?xml version="1.0" encoding="UTF-8"?>
<svg width="300px" height="80px" viewBox="0 0 300 80" version="1.1" xmlns="http://www.w3.org/2000/svg" xmlns:xlink="http://www.w3.org/1999/xlink">
    <!-- Generator: Sketch 50.2 (55047) - http://www.bohemiancoding.com/sketch -->
    <title>xli-2color-mark-300</title>
    <desc>Created with Sketch.</desc>
    <defs></defs>
    <g id="xli-2color-mark-300" stroke="none" stroke-width="1" fill="none" fill-rule="evenodd">
        <g fill-rule="nonzero">
            <path d="M179.698367,14.5316333 C179.968063,14.7937743 180.285136,15.0022533 180.6327,15.1459667 C181.040567,15.3148999 181.478871,15.3979718 181.920267,15.39 C182.270311,15.4033347 182.61946,15.3461105 182.946933,15.2217333 C183.18341,15.1408673 183.340159,14.9160172 183.334233,14.6661667 C183.345803,14.4165067 183.206428,14.1842848 182.980667,14.0770667 C182.788535,13.9665938 182.585458,13.876355 182.3747,13.8078 C182.031935,13.6946042 181.683575,13.5991114 181.331,13.5217 C181.045351,13.4490199 180.764388,13.3590315 180.489667,13.2522333 C180.196074,13.1393225 179.920908,12.9833718 179.6732,12.7895 C179.422633,12.5955239 179.211311,12.3555919 179.050533,12.0825333 C178.881164,11.7826112 178.796717,11.4422082 178.806267,11.0979 C178.800171,10.7272113 178.899392,10.3624031 179.0924,10.0458667 C179.283548,9.73696748 179.539026,9.47289406 179.841433,9.27163333 C180.162227,9.05835073 180.514358,8.89646748 180.8851,8.79183333 C181.265099,8.68080073 181.658912,8.62416022 182.0548,8.6236 C182.654231,8.61122087 183.252336,8.68491626 183.830833,8.84243333 C184.306352,8.98205582 184.753601,9.20424182 185.152133,9.49883333 L184.125133,10.8959 C183.865669,10.7149768 183.582578,10.5705597 183.2838,10.4667 C182.888808,10.3299822 182.472694,10.2644219 182.0548,10.2730667 C181.712817,10.2419647 181.369446,10.3153649 181.070067,10.4835667 C180.898604,10.5984857 180.794766,10.7905013 180.792467,10.9969 C180.792467,11.2439 180.946767,11.4374889 181.255367,11.5776667 C181.721124,11.768108 182.202678,11.917357 182.6945,12.0237 C183.065659,12.1033715 183.428959,12.2160415 183.780067,12.3603667 C184.080507,12.4831166 184.359115,12.6536519 184.6051,12.8653667 C184.831447,13.062704 185.012275,13.3068099 185.1351,13.5808333 C185.265712,13.8922522 185.328876,14.2278058 185.320433,14.5654 C185.325226,14.9283963 185.232143,15.2859805 185.050967,15.6005667 C184.86835,15.9127688 184.618265,16.1802097 184.319,16.3833333 C183.989267,16.60638 183.625354,16.774139 183.2416,16.88 C182.81715,16.9997374 182.377975,17.0592083 181.936967,17.0566667 C181.256592,17.0662285 180.579476,16.9609862 179.9341,16.7453667 C179.386098,16.5680837 178.893292,16.2520178 178.5036,15.8279 L179.698367,14.5316333 Z" id="Shape" fill="#778798"></path>
            <polygon id="Shape" fill="#778798" points="113.2695 10.9799333 109.684433 5.55993333 112.242867 5.55993333 114.582633 9.22933333 116.8379 5.55993333 119.143933 5.55993333 115.6934 10.9295333 119.547933 16.7871 116.9895 16.7871 114.397333 12.6968667 111.8389 16.7871 109.532867 16.7871"></polygon>
            <path d="M127.448967,15.6424 L127.171367,15.9202 C126.973086,16.1064412 126.752641,16.2675743 126.515,16.3999667 C126.169195,16.5934307 125.802017,16.7459264 125.4209,16.8543667 C124.903332,16.9988538 124.36742,17.0668956 123.830167,17.0563333 C123.242473,17.0639486 122.65907,16.9553223 122.1135,16.7367 C121.10374,16.3367292 120.31545,15.5208264 119.950467,14.4979 C119.748236,13.9367587 119.648429,13.3438581 119.6558,12.7474333 C119.650634,12.1922124 119.750616,11.6410316 119.950467,11.123 C120.137332,10.6384136 120.417507,10.1952231 120.7751,9.81856667 C121.133047,9.44524706 121.562323,9.14761772 122.037467,8.94333333 C122.550854,8.72504016 123.104078,8.61605969 123.6619,8.62333333 C124.293752,8.60411381 124.920702,8.73987683 125.488,9.01876667 C125.965502,9.26381646 126.378054,9.61865507 126.691767,10.0541333 C126.999518,10.4911236 127.2222,10.9821737 127.348167,11.5016 C127.48286,12.0410632 127.550702,12.5950429 127.550167,13.1510667 L127.550167,13.4374 L121.658667,13.4374 C121.654702,13.7133211 121.721431,13.9856644 121.8525,14.2285 C121.979356,14.4616686 122.150885,14.6675746 122.3573,14.8344667 C122.568092,15.0045785 122.807575,15.1356705 123.064467,15.2215667 C123.316044,15.3093271 123.580424,15.3547984 123.846867,15.3561333 C124.444593,15.3667709 125.037083,15.2430854 125.580633,14.9942 C125.758104,14.9142508 125.92494,14.8125366 126.0773,14.6914 C126.2063,14.5847333 126.304522,14.4977556 126.371967,14.4304667 L127.448967,15.6424 Z M125.5136,12.0067333 C125.512336,11.7991722 125.472364,11.5936682 125.395733,11.4007667 C125.316435,11.1981935 125.199332,11.0125506 125.050667,10.8537333 C124.885836,10.6818258 124.688403,10.5444852 124.4699,10.4497333 C124.215109,10.3392668 123.939596,10.2847075 123.661933,10.2897333 C123.365157,10.2843509 123.070335,10.3387651 122.795033,10.4497333 C122.561523,10.5443098 122.347531,10.6812828 122.163867,10.8537333 C122.000588,11.0093007 121.869056,11.1950804 121.776567,11.4007667 C121.689462,11.5909982 121.643612,11.7975138 121.642033,12.0067333 L125.5136,12.0067333 Z" id="Shape" fill="#778798"></path>
            <path d="M129.393967,5.56006667 L131.380267,5.56006667 L131.380267,9.43146667 C131.611361,9.23806332 131.873007,9.08443467 132.1545,8.97686667 C132.592058,8.79796477 133.062048,8.71204457 133.5346,8.72456667 C134.060045,8.71464965 134.580893,8.82406192 135.057933,9.04456667 C135.491216,9.25031487 135.877899,9.54240884 136.194267,9.90293333 C136.516524,10.2767517 136.759846,10.7118861 136.9096,11.1821667 C137.074169,11.6875902 137.156626,12.2161331 137.153833,12.7476667 C137.157768,13.3206771 137.051963,13.8891425 136.842133,14.4223667 C136.641681,14.9333808 136.337989,15.3975609 135.950033,15.7859 C135.54688,16.1837198 135.069327,16.4982488 134.544633,16.7115333 C133.956689,16.9487544 133.327259,17.0660634 132.693333,17.0565667 C132.058112,17.0610359 131.423921,17.0047013 130.799433,16.8883333 C130.323551,16.80231 129.854017,16.6842639 129.394033,16.535 L129.393967,5.56006667 Z M131.380267,15.1712333 C131.53884,15.2279321 131.702217,15.2701709 131.8684,15.2974333 C132.13073,15.3312585 132.395226,15.3453758 132.659667,15.3396667 C133.024249,15.3477286 133.386176,15.2758801 133.720033,15.1291667 C134.01374,14.9957351 134.277177,14.8038538 134.494267,14.5652333 C134.70792,14.3285556 134.871026,14.0507655 134.9736,13.7488667 C135.079846,13.4430719 135.133933,13.1215927 135.1336,12.7978667 C135.134465,12.5026634 135.097725,12.2085523 135.024267,11.9226333 C134.956345,11.6538346 134.839373,11.3998884 134.679233,11.1735667 C134.522948,10.9557704 134.318318,10.7771538 134.0814,10.6517333 C133.812908,10.5164495 133.515037,10.4499163 133.2145,10.4581 C132.713544,10.4209669 132.21885,10.5879126 131.842833,10.921 C131.521161,11.2634531 131.353854,11.722752 131.3799,12.1918667 L131.380267,15.1712333 Z" id="Shape" fill="#778798"></path>
            <polygon id="Shape" fill="#778798" points="138.9331 8.89273333 140.9193 8.89273333 140.9193 16.7871 138.9331 16.7871"></polygon>
            <path d="M147.8811,16.0464 C147.610882,16.3460204 147.277424,16.5818099 146.904867,16.7367 C146.444698,16.9432737 145.944892,17.0466254 145.440533,17.0395 C145.1121,17.0390974 144.785695,16.9880302 144.472833,16.8881 C144.155251,16.7884222 143.858565,16.6315328 143.5974,16.4251667 C143.327176,16.2097699 143.108598,15.9366131 142.9577,15.6257333 C142.788063,15.2684823 142.70454,14.8764381 142.713833,14.4810667 C142.706646,14.0661015 142.792909,13.654836 142.966233,13.2777333 C143.13004,12.9299731 143.371866,12.6246906 143.6729,12.3856333 C143.998146,12.1332216 144.369921,11.9473398 144.767,11.8386 C145.227239,11.7105813 145.703248,11.6481877 146.180933,11.6532667 C146.338089,11.6532667 146.512044,11.6561111 146.7028,11.6618 C146.893556,11.6674889 147.078744,11.6758889 147.258367,11.687 C147.460344,11.6983111 147.667889,11.7095556 147.881,11.7207333 L147.881,11.5355 C147.893006,11.1665559 147.715235,10.8171637 147.409933,10.6096667 C147.045918,10.3708754 146.615825,10.2530578 146.180933,10.273 C145.722009,10.2554333 145.264207,10.3298372 144.834467,10.4918333 C144.524433,10.6236746 144.226018,10.7813174 143.942367,10.9631 L143.033567,9.61643333 C143.190367,9.50432222 143.369878,9.38931111 143.5721,9.2714 C143.797199,9.14300385 144.033778,9.0358736 144.278767,8.9514 C144.583189,8.84723691 144.895696,8.76840211 145.2131,8.7157 C145.622114,8.64979417 146.036,8.61886006 146.450267,8.62323333 C146.91596,8.61717866 147.379445,8.6882388 147.821933,8.83353333 C148.207315,8.96038248 148.564593,9.16041833 148.874167,9.42266667 C149.163281,9.67186678 149.393202,9.98238754 149.5472,10.3316333 C149.70637,10.6949909 149.786713,11.0879602 149.782933,11.4846333 L149.782933,16.7871 L147.931267,16.7871 L147.8811,16.0464 Z M147.8811,13.2187 C147.6791,13.2075889 147.482789,13.1963444 147.292167,13.1849667 C147.134656,13.1740333 146.9691,13.1656333 146.7955,13.1597667 C146.6213,13.1542111 146.472556,13.1513667 146.349267,13.1512333 C145.868634,13.1020292 145.387277,13.2374489 145.0028,13.5300333 C144.758144,13.752086 144.617791,14.0665395 144.615867,14.3969333 C144.601909,14.7035193 144.736578,14.9980376 144.9776,15.1880333 C145.291928,15.400118 145.668222,15.5008393 146.046467,15.4741333 C146.504309,15.4733856 146.948719,15.319366 147.308833,15.0366333 C147.473783,14.9057896 147.613558,14.7460339 147.721333,14.5651667 C147.825851,14.3925951 147.881095,14.194688 147.881067,13.9929333 L147.8811,13.2187 Z" id="Shape" fill="#778798"></path>
            <polygon id="Shape" fill="#778798" points="151.803267 5.56006667 153.924 5.56006667 153.924 14.9019 159.4619 14.9019 159.4619 16.7871 151.803267 16.7871"></polygon>
            <path d="M165.701767,16.0464 C165.431554,16.3460121 165.09811,16.5818007 164.725567,16.7367 C164.265385,16.9432692 163.765569,17.0466205 163.2612,17.0395 C162.932767,17.0390942 162.606362,16.9880271 162.2935,16.8881 C161.975921,16.7884153 161.679235,16.6315265 161.418067,16.4251667 C161.147853,16.2097603 160.929277,15.9366059 160.778367,15.6257333 C160.60873,15.2684823 160.525206,14.8764381 160.5345,14.4810667 C160.527312,14.0661015 160.613576,13.654836 160.7869,13.2777333 C160.950709,12.9299744 161.192534,12.6246923 161.493567,12.3856333 C161.8188,12.1332217 162.190564,11.9473398 162.587633,11.8386 C163.047883,11.7105791 163.523904,11.6481855 164.0016,11.6532667 C164.158733,11.6532667 164.332678,11.6561111 164.523433,11.6618 C164.714189,11.6674889 164.899378,11.6758889 165.079,11.687 C165.281,11.6983111 165.488544,11.7095556 165.701633,11.7207333 L165.701633,11.5355 C165.71364,11.1665559 165.535868,10.8171637 165.230567,10.6096667 C164.866563,10.3708759 164.436481,10.253058 164.0016,10.273 C163.542665,10.2554334 163.084852,10.3298372 162.6551,10.4918333 C162.34507,10.6236817 162.046655,10.7813242 161.763,10.9631 L160.854233,9.61643333 C161.011011,9.50432222 161.190511,9.38931111 161.392733,9.2714 C161.617835,9.14301006 161.854414,9.03588008 162.0994,8.9514 C162.403822,8.84723691 162.716329,8.76840211 163.033733,8.7157 C163.442747,8.64979578 163.856633,8.61886167 164.2709,8.62323333 C164.736604,8.61717927 165.2001,8.68823935 165.6426,8.83353333 C166.027967,8.96039406 166.385232,9.16042895 166.6948,9.42266667 C166.983914,9.67187475 167.213845,9.98239278 167.367867,10.3316333 C167.527011,10.694998 167.607342,11.0879641 167.603567,11.4846333 L167.603567,16.7871 L165.751933,16.7871 L165.701767,16.0464 Z M165.701767,13.2187 C165.499789,13.2075889 165.303489,13.1963444 165.112867,13.1849667 C164.955333,13.1740333 164.789778,13.1656333 164.6162,13.1597667 C164.442,13.1542111 164.293256,13.1513667 164.169967,13.1512333 C163.689323,13.1020205 163.207953,13.2374407 162.823467,13.5300333 C162.578811,13.752086 162.438457,14.0665395 162.436533,14.3969333 C162.422592,14.703516 162.557259,14.9980271 162.798267,15.1880333 C163.112595,15.400118 163.488889,15.5008393 163.867133,15.4741333 C164.324976,15.4733856 164.769386,15.319366 165.1295,15.0366333 C165.29445,14.9057896 165.434225,14.7460339 165.542,14.5651667 C165.646518,14.3925951 165.701762,14.194688 165.701733,13.9929333 L165.701767,13.2187 Z" id="Shape" fill="#778798"></path>
            <path d="M169.623933,5.56006667 L171.610267,5.56006667 L171.610267,9.43146667 C171.841361,9.23806332 172.103007,9.08443467 172.3845,8.97686667 C172.822057,8.79796196 173.292047,8.71204164 173.7646,8.72456667 C174.290045,8.71464965 174.810893,8.82406192 175.287933,9.04456667 C175.721211,9.25032292 176.107893,9.54241574 176.424267,9.90293333 C176.746526,10.2767446 176.989839,10.7118818 177.139567,11.1821667 C177.304146,11.6875885 177.386615,12.2161313 177.383833,12.7476667 C177.387768,13.3206771 177.281963,13.8891425 177.072133,14.4223667 C176.871681,14.9333808 176.567989,15.3975609 176.180033,15.7859 C175.776868,16.1837208 175.299304,16.4982496 174.7746,16.7115333 C174.186668,16.9487578 173.557249,17.0660671 172.923333,17.0565667 C172.288112,17.0610373 171.653921,17.0047027 171.029433,16.8883333 C170.553541,16.8023053 170.083996,16.6842594 169.624,16.535 L169.623933,5.56006667 Z M171.610267,15.1712333 C171.768828,15.2279321 171.932194,15.2701709 172.098367,15.2974333 C172.360708,15.3312581 172.625215,15.3453754 172.889667,15.3396667 C173.254249,15.3477286 173.616176,15.2758801 173.950033,15.1291667 C174.24374,14.9957351 174.507177,14.8038538 174.724267,14.5652333 C174.938001,14.3285933 175.101197,14.0508267 175.203867,13.7489333 C175.310113,13.4431385 175.3642,13.1216594 175.363867,12.7979333 C175.364715,12.5027311 175.327975,12.208622 175.254533,11.9227 C175.186611,11.6539013 175.069639,11.3999551 174.9095,11.1736333 C174.753215,10.9558371 174.548584,10.7772204 174.311667,10.6518 C174.043174,10.5165162 173.745304,10.449983 173.444767,10.4581667 C172.943801,10.4210397 172.449099,10.5879841 172.073067,10.9210667 C171.751407,11.2635252 171.584112,11.7228235 171.610167,12.1919333 L171.610267,15.1712333 Z" id="Shape" fill="#778798"></path>
            <rect id="Rectangle-path" fill="#778798" x="138.866033" y="5.56006667" width="2.12073333" height="2.08716667"></rect>
            <path d="M3.1451,14.1974667 L0.4263,11.4786667 C-0.142053363,10.9102572 -0.142053363,9.98874283 0.4263,9.42033333 L9.27726667,0.5685 C9.64121265,0.204510685 10.1348553,1.99747315e-05 10.6495833,1.99747315e-05 C11.1643113,1.99747315e-05 11.657954,0.204510685 12.0219,0.5685 L20.7769333,9.32456667 C21.0499177,9.59757427 21.2032518,9.96785422 21.2031955,10.3539288 C21.2031392,10.7400034 21.0496972,11.1102386 20.7766333,11.3831667 L18.0562,14.1022667 C17.4877175,14.6704797 16.5662651,14.6703305 15.9979667,14.1019333 L10.6495,8.75243333 L5.2034,14.1975667 C4.63497433,14.7658886 3.71347044,14.7658438 3.1451,14.1974667 Z" id="Shape" fill="#06B052"></path>
            <path d="M80.5593333,72.6348333 L21.0136,72.6348333 C17.0754543,72.630351 13.8841053,69.4389125 13.8797333,65.5007667 L13.8797333,7.72856667 L7.31873333,7.72856667 L7.31873333,65.5007667 C7.32751334,73.0606199 13.4537469,79.186928 21.0136,79.1958 L87.1195333,79.1958 L80.5593333,72.6348333 Z" id="Shape" fill="#06B052"></path>
            <polygon id="Shape" fill="#059949" points="53.7966667 57.09 41.9566667 40.2066667 36.92 47.91 43.36 57.09"></polygon>
            <path d="M43.4653333,25.5918333 C42.8102418,25.5918352 42.1993591,25.9223159 41.8409,26.4706333 L21.8249667,57.0912333 L29.9149667,57.0912333 C30.5819659,57.091202 31.2022121,56.7486404 31.5574333,56.1841 L51.5562,25.5917667 L43.4653333,25.5918333 Z" id="Shape" fill="#06B052"></path>
            <path d="M59.9151667,49.7241333 L59.9151667,27.5324667 C59.9151483,26.4606791 59.0462876,25.5918333 57.9745,25.5918333 L51.5561333,25.5918333 L51.5561333,57.0909333 L59.9151667,49.7241333 Z" id="Shape" fill="#06B052"></path>
            <path d="M68.5732667,50.5506 C68.2100487,50.032501 67.6170685,49.7239941 66.9843333,49.7239333 L59.9151667,49.7239333 L51.5561667,57.0907667 L51.5561667,57.0912333 L73.1592,57.0912333 L68.5732667,50.5506 Z" id="Shape" fill="#059949"></path>
            <polygon id="Shape" fill="#059949" points="31.7066667 25.5866667 21.2666667 25.5866667 31.23 39.7966667 36.27 32.09"></polygon>
            <path d="M73.4247,1.8084 L24.2621667,1.81016667 L30.8232,8.36933333 L73.4247,8.36933333 C77.3628587,8.37379732 80.554228,11.5652412 80.5586,15.5034 L80.5586,72.6348667 L87.1195667,79.1957667 L87.1195667,15.5034 C87.11075,7.9435674 80.9845325,1.8172903 73.4247,1.8084 Z" id="Shape" fill="#059949"></path>
            <polygon id="Shape" fill="#4A5661" points="109.5336 25.5715 115.486933 25.5715 115.486933 57.0858 109.5336 57.0858"></polygon>
            <polygon id="Shape" fill="#4A5661" points="123.7436 25.5715 129.2714 25.5715 138.012367 40.4548333 146.611433 25.5716667 152.139267 25.5716667 153.651333 57.0859667 147.839867 57.0859667 146.8006 35.2573667 139.2408 48.1088667 136.453333 48.1088667 128.8464 35.5882667 127.806933 57.0858 122.231667 57.0858"></polygon>
            <path d="M160.376633,25.5715 L170.487767,25.5715 C172.34414,25.5028484 174.192392,25.8499174 175.8974,26.5873333 C177.175768,27.1713971 178.312248,28.0257811 179.228467,29.0915667 C180.014598,30.0223929 180.594376,31.1093627 180.929533,32.2807333 C181.226315,33.2942553 181.385155,34.3431503 181.401767,35.3991 C181.44451,36.9639463 181.120986,38.51713 180.457,39.9347667 C179.875064,41.1341818 179.036171,42.1907506 177.9999,43.0294333 C176.990531,43.8333213 175.835564,44.4349463 174.5983,44.8013333 C173.388432,45.171756 172.130792,45.3627985 170.8655,45.3683667 L166.0936,45.3683667 L166.0936,57.0858 L160.376633,57.0858 L160.376633,25.5715 Z M170.3933,40.3601667 C171.727519,40.4267503 173.031693,39.9493389 174.0076,39.0371 C174.917652,38.1254249 175.405794,36.8752252 175.354267,35.5881 C175.410058,34.2517995 174.906973,32.952601 173.965772,32.0023628 C173.024571,31.0521246 171.730239,30.5366477 170.393467,30.5796667 L166.0936,30.5796667 L166.0936,40.3601667 L170.3933,40.3601667 Z" id="Shape" fill="#4A5661"></path>
            <path d="M192.497267,25.5715 L198.6395,25.5715 L210.593033,57.0858 L203.978567,57.0858 L201.237933,49.1008667 L189.5205,49.1008667 L186.780167,57.0858 L180.5436,57.0858 L192.497267,25.5715 Z M199.537267,44.1872 L195.379367,31.9498333 L191.174333,44.1872 L199.537267,44.1872 Z" id="Shape" fill="#4A5661"></path>
            <path d="M239.9472,51.3215667 C239.390648,52.142095 238.731796,52.8883509 237.986567,53.5423 C237.08162,54.3484501 236.091417,55.0534552 235.033533,55.6448 C233.85262,56.3107852 232.600464,56.8416637 231.300733,57.2274 C229.905589,57.6426201 228.456801,57.8496619 227.0012,57.8418333 C224.78312,57.8694004 222.582057,57.4516329 220.528333,56.6132667 C218.626593,55.8292903 216.905926,54.6634637 215.472767,53.1879 C214.039501,51.6986159 212.915415,49.9401905 212.1654,48.0141333 C210.59049,43.8262726 210.59049,39.2088941 212.1654,35.0210333 C212.920061,33.0567917 214.051664,31.2591387 215.496467,29.7293333 C218.539009,26.5329222 222.777779,24.7517432 227.190267,24.8154667 C228.622915,24.8024227 230.051543,24.9691238 231.4427,25.3116667 C232.666203,25.6163743 233.848185,26.0685047 234.9627,26.6581333 C235.983776,27.2012764 236.928944,27.8764157 237.773867,28.6661667 C238.576843,29.4207637 239.304699,30.2515014 239.9472,31.1467 L235.742167,34.8792 C234.803271,33.4993985 233.608333,32.312574 232.222167,31.3831 C230.712509,30.4544148 228.96147,29.994004 227.190267,30.0600333 C225.751287,30.0365854 224.326995,30.352209 223.032633,30.9813667 C221.828291,31.5768287 220.758895,32.4130066 219.890567,33.4382 C219.00471,34.4966598 218.331007,35.7158313 217.906267,37.0291 C217.445447,38.4236449 217.214027,39.8837397 217.221033,41.3524333 C217.210184,42.7981473 217.441806,44.2354491 217.906267,45.6045667 C218.330076,46.8705301 218.995974,48.04202 219.8669,49.0538333 C220.712733,50.0268586 221.750197,50.8149368 222.914433,51.3688 C224.163731,51.9506841 225.528782,52.2414967 226.906767,52.2193333 C228.082034,52.2448394 229.254003,52.0853808 230.379733,51.7468 C231.982301,51.2509867 233.419599,50.3281264 234.537367,49.0772667 C234.993567,48.5576444 235.410889,48.1088222 235.789333,47.7308 L239.9472,51.3215667 Z" id="Shape" fill="#4A5661"></path>
            <polygon id="Shape" fill="#4A5661" points="254.449433 30.8160667 243.771267 30.8160667 243.771267 25.5715 271.080533 25.5715 271.080533 30.8160667 260.402633 30.8160667 260.402633 57.0858 254.4493 57.0858"></polygon>
        </g>
    </g>
</svg>