<?xml version="1.0" encoding="UTF-8" standalone="no"?>
<svg
   xmlns:dc="http://purl.org/dc/elements/1.1/"
   xmlns:cc="http://creativecommons.org/ns#"
   xmlns:rdf="http://www.w3.org/1999/02/22-rdf-syntax-ns#"
   xmlns:svg="http://www.w3.org/2000/svg"
   xmlns="http://www.w3.org/2000/svg"
   xmlns:sodipodi="http://sodipodi.sourceforge.net/DTD/sodipodi-0.dtd"
   xmlns:inkscape="http://www.inkscape.org/namespaces/inkscape"
   width="599px"
   height="142px"
   viewBox="0 0 599 142"
   version="1.1"
   id="svg76"
   sodipodi:docname="xebialabs-standard.svg"
   inkscape:version="0.92.1 r15371">
  <metadata
     id="metadata80">
    <rdf:RDF>
      <cc:Work
         rdf:about="">
        <dc:format>image/svg+xml</dc:format>
        <dc:type
           rdf:resource="http://purl.org/dc/dcmitype/StillImage" />
      </cc:Work>
    </rdf:RDF>
  </metadata>
  <sodipodi:namedview
     pagecolor="#ffffff"
     bordercolor="#666666"
     borderopacity="1"
     objecttolerance="10"
     gridtolerance="10"
     guidetolerance="10"
     inkscape:pageopacity="0"
     inkscape:pageshadow="2"
     inkscape:window-width="3840"
     inkscape:window-height="2275"
     id="namedview78"
     showgrid="false"
     inkscape:zoom="1.09"
     inkscape:cx="71.059633"
     inkscape:cy="71"
     inkscape:window-x="5107"
     inkscape:window-y="-13"
     inkscape:window-maximized="1"
     inkscape:current-layer="svg76" />
  <!-- Generator: Sketch 50.2 (55047) - http://www.bohemiancoding.com/sketch -->
  <title
     id="title2">xl-logo-tagline-2color-mark-115x32</title>
  <desc
     id="desc4">Created with Sketch.</desc>
  <defs
     id="defs6" />
  <g
     id="Page-1"
     style="fill:none;fill-rule:evenodd;stroke:none;stroke-width:0.99999982">
    <g
       id="xl-logo-tagline-2color-mark-115x32"
       style="fill-rule:nonzero;stroke-width:1.00008309">
      <path
         d="m 565.10616,85.003513 c 1.61662,1.571392 3.5173,2.821046 5.60076,3.682379 2.44486,1.012708 5.07218,1.510722 7.71805,1.462973 2.09821,0.07991 4.19104,-0.263112 6.15395,-1.008649 1.41749,-0.484761 2.35708,-1.832549 2.32162,-3.330216 0.0693,-1.496576 -0.76616,-2.888608 -2.11946,-3.531351 -1.15168,-0.662273 -2.36902,-1.203174 -3.63243,-1.614 -2.05463,-0.678517 -4.14277,-1.250983 -6.25616,-1.715136 -1.71229,-0.435565 -3.39649,-0.97494 -5.04325,-1.615135 -1.75993,-0.676787 -3.4094,-1.611592 -4.89427,-2.773729 -1.50194,-1.162789 -2.76864,-2.601034 -3.73238,-4.237838 -1.01532,-1.79798 -1.52148,-3.83865 -1.4641,-5.902703 -0.0365,-2.221992 0.55828,-4.408724 1.71513,-6.306162 1.14582,-1.851636 2.67723,-3.434582 4.48995,-4.641027 1.92304,-1.27831 4.03386,-2.248552 6.25621,-2.875676 2.2778,-0.665689 4.63844,-1.005263 7.01152,-1.008594 3.5932,-0.0742 7.17846,0.367581 10.64616,1.311837 2.85035,0.837 5.53126,2.168821 7.92022,3.934595 l -6.15622,8.374487 c -1.5553,-1.084513 -3.25226,-1.95016 -5.04324,-2.572649 -2.3677,-0.819595 -4.86203,-1.212622 -7.36703,-1.160811 -2.04994,-0.186472 -4.1082,0.253548 -5.9027,1.261892 -1.02775,0.688865 -1.65018,1.839799 -1.66406,3.076973 0,1.480757 0.92496,2.641207 2.77487,3.481351 2.79194,1.141542 5.67855,2.036208 8.6267,2.67373 2.22482,0.477272 4.40254,1.152389 6.50719,2.017297 1.8009,0.735758 3.47093,1.757968 4.9454,3.027027 1.3568,1.182969 2.44074,2.646279 3.17698,4.288919 0.78284,1.866776 1.16142,3.878193 1.11081,5.901838 0.0287,2.175885 -0.52921,4.319331 -1.61514,6.205081 -1.09483,1.871273 -2.59392,3.474286 -4.38773,4.691892 -1.97661,1.33688 -4.15804,2.342423 -6.45837,2.977027 -2.54427,0.71752 -5.17676,1.073875 -7.82022,1.058595 -4.0784,0.0573 -8.13727,-0.573569 -12.00584,-1.866162 -3.28502,-1.06238 -6.23923,-2.956758 -8.57535,-5.498919 z"
         id="Shape"
         inkscape:connector-curvature="0"
         style="fill:#4a5661;stroke-width:0.99999982" />
      <polygon
         id="polygon9"
         points="210.52,98.523405 194.98157,74.005243 179.64551,98.523405 165.82254,98.523405 188.22124,63.713405 166.73119,31.225081 182.0673,31.225081 196.09259,53.22054 209.61151,31.225081 223.43465,31.225081 202.75103,63.411243 225.85622,98.523405 "
         style="fill:#4a5661;stroke-width:0.99999982" />
      <path
         d="m 270.54735,91.661622 c -0.19996,0.202234 -0.75463,0.757279 -1.664,1.665135 -1.18856,1.11635 -2.51001,2.08217 -3.93454,2.875675 -2.07284,1.159664 -4.27381,2.073742 -6.55832,2.72373 -3.10238,0.866197 -6.31473,1.274118 -9.53514,1.210808 -3.52299,0.0457 -7.02027,-0.60549 -10.2907,-1.916159 -6.05259,-2.397686 -10.77768,-7.288346 -12.96557,-13.419892 -1.21218,-3.363675 -1.81041,-6.91771 -1.76622,-10.492865 -0.031,-3.328209 0.5683,-6.632206 1.76622,-9.737513 1.12013,-2.904767 2.79962,-5.561379 4.94319,-7.819136 2.14567,-2.237722 4.71884,-4.021798 7.56692,-5.246432 3.07752,-1.308204 6.39377,-1.961148 9.73751,-1.917243 3.78745,-0.115197 7.5455,0.698658 10.94595,2.370486 2.86234,1.469032 5.33537,3.596134 7.21595,6.206595 1.84467,2.619533 3.17946,5.563078 3.93453,8.676703 0.80739,3.233725 1.21405,6.554466 1.21082,9.887459 v 1.716216 h -35.31546 c -0.0238,1.653994 0.3763,3.286534 1.16216,4.742108 0.76028,1.397785 1.78849,2.632097 3.02589,3.632433 1.26358,1.019651 2.69908,1.805479 4.23892,2.320486 1.50804,0.52594 3.09279,0.798457 4.68989,0.806487 3.583,0.06367 7.1346,-0.677705 10.39292,-2.16946 1.06376,-0.479256 2.06378,-1.088963 2.97703,-1.815081 0.77311,-0.638739 1.36185,-1.16009 1.76621,-1.564054 z M 258.94589,69.868487 c -0.008,-1.244213 -0.24712,-2.476099 -0.70649,-3.632433 -0.47539,-1.214278 -1.17731,-2.3271 -2.06837,-3.279189 -0.98802,-1.030392 -2.17141,-1.853622 -3.48108,-2.421622 -1.52733,-0.662086 -3.17887,-0.988984 -4.84325,-0.958648 -1.77893,-0.03249 -3.54619,0.293538 -5.19643,0.958648 -1.39978,0.566829 -2.68254,1.387867 -3.78346,2.421622 -0.97878,0.932535 -1.76723,2.046194 -2.32162,3.279189 -0.52217,1.140325 -0.79703,2.378274 -0.80649,3.632433 z"
         id="path11"
         inkscape:connector-curvature="0"
         style="fill:#4a5661;stroke-width:0.99999982" />
      <path
         d="m 279.51254,31.225081 h 11.90589 v 23.20627 c 1.38526,-1.159292 2.95366,-2.080141 4.64103,-2.724865 2.62301,-1.072722 5.44051,-1.587964 8.27341,-1.512972 3.1495,-0.05971 6.27152,0.595841 9.13102,1.917297 2.59725,1.233325 4.91516,2.984239 6.81157,5.145351 1.93169,2.240751 3.39019,4.849064 4.28778,7.668054 0.98655,3.029711 1.48087,6.198026 1.46411,9.38427 0.0236,3.434765 -0.6106,6.842289 -1.86843,10.038541 -1.20152,3.063208 -3.02195,5.845663 -5.34752,8.17346 -2.4166,2.384716 -5.27921,4.270126 -8.42443,5.548594 -3.52431,1.422037 -7.29733,2.125259 -11.09729,2.068329 -3.80773,0.0268 -7.60928,-0.310978 -11.35265,-1.008599 -2.85264,-0.515711 -5.66721,-1.223447 -8.42449,-2.118379 z m 11.90589,57.611892 c 0.95048,0.339972 1.92977,0.593257 2.92589,0.756757 1.57254,0.202782 3.15806,0.287434 4.74325,0.253243 2.18542,0.04828 4.35492,-0.382428 6.35616,-1.261892 1.76054,-0.799809 3.33967,-1.94994 4.64103,-3.380216 1.28112,-1.418546 2.25934,-3.083566 2.87481,-4.893189 0.63711,-1.833062 0.96154,-3.760186 0.95973,-5.700811 0.005,-1.769538 -0.21512,-3.532525 -0.65535,-5.246433 -0.40723,-1.6112 -1.10844,-3.133363 -2.06838,-4.489945 -0.93678,-1.305651 -2.16349,-2.376363 -3.58379,-3.128055 -1.60942,-0.810933 -3.39492,-1.209808 -5.19643,-1.160864 -3.00295,-0.222548 -5.96835,0.778207 -8.22238,2.774864 -1.92812,2.052842 -2.93095,4.806036 -2.77481,7.618055 z"
         id="path13"
         inkscape:connector-curvature="0"
         style="fill:#4a5661;stroke-width:0.99999982" />
      <polygon
         id="polygon15"
         points="334.014,51.202162 345.91984,51.202162 345.91984,98.523405 334.014,98.523405 "
         style="fill:#4a5661;stroke-width:0.99999982" />
      <path
         d="m 384.97281,94.083243 c -1.61981,1.795958 -3.61865,3.209334 -5.85184,4.137838 -2.75842,1.238265 -5.75443,1.857789 -8.77773,1.815079 -1.96875,-0.002 -3.92535,-0.308462 -5.80075,-0.907511 -1.90366,-0.597434 -3.68207,-1.537847 -5.24752,-2.774865 -1.61982,-1.291166 -2.93006,-2.928574 -3.83459,-4.792108 -1.01691,-2.141486 -1.51758,-4.491557 -1.46184,-6.861568 -0.0432,-2.487551 0.47383,-4.952946 1.51276,-7.213567 0.98215,-2.084631 2.43198,-3.914584 4.2367,-5.347514 1.94958,-1.513084 4.1781,-2.627337 6.55832,-3.279135 2.75887,-0.76734 5.61225,-1.141319 8.47568,-1.110865 0.94195,0 1.98463,0.01704 3.12805,0.05114 1.14415,0.03445 2.25424,0.08479 3.33027,0.151027 1.21082,0.06778 2.45494,0.135189 3.73238,0.202216 v -1.109729 c 0.072,-2.2115 -0.99358,-4.305814 -2.82357,-5.549622 -2.18194,-1.431563 -4.76006,-2.137909 -7.36697,-2.018378 -2.751,-0.105344 -5.49527,0.340705 -8.0713,1.311892 -1.85842,0.79027 -3.64721,1.735193 -5.34751,2.82481 l -5.44751,-8.071297 c 0.93975,-0.672072 2.01576,-1.361532 3.22805,-2.068378 1.3496,-0.76934 2.76797,-1.411215 4.23671,-1.917298 1.82487,-0.624409 3.69824,-1.096919 5.60097,-1.412702 2.45173,-0.395038 4.93267,-0.580465 7.41589,-0.554271 2.79157,-0.03634 5.5699,0.389668 8.22232,1.260757 2.31009,0.760284 4.45169,1.959335 6.3073,3.531352 1.73307,1.493787 3.11133,3.35515 4.03449,5.448648 0.95404,2.178144 1.43561,4.533755 1.41297,6.911568 V 98.52373 h -11.09957 z m 0,-16.950108 c -1.21081,-0.06663 -2.38755,-0.134018 -3.53022,-0.202162 -0.94414,-0.06551 -1.93648,-0.115964 -2.97702,-0.151351 -1.04418,-0.0333 -1.9358,-0.05033 -2.67487,-0.05108 -2.88104,-0.295026 -5.76646,0.516582 -8.07124,2.270271 -1.46655,1.331032 -2.30788,3.215956 -2.31941,5.196432 -0.0836,1.837761 0.72362,3.603175 2.16833,4.742108 1.8842,1.271369 4.13987,1.875182 6.40724,1.715135 2.74443,-0.0047 5.40829,-0.927956 7.56697,-2.622648 0.98872,-0.784307 1.82659,-1.741864 2.47271,-2.825946 0.62651,-1.034495 0.95766,-2.22085 0.95751,-3.43027 z"
         id="path17"
         inkscape:connector-curvature="0"
         style="fill:#4a5661;stroke-width:0.99999982" />
      <polygon
         id="polygon19"
         points="418.608,87.222919 451.80395,87.222919 451.80395,98.523405 405.89584,98.523405 405.89568,31.225081 418.608,31.225081 "
         style="fill:#4a5661;stroke-width:0.99999982" />
      <path
         d="m 486.49508,94.083243 c -1.61982,1.795946 -3.61865,3.20932 -5.85184,4.137838 -2.75843,1.238263 -5.75446,1.857789 -8.77778,1.815079 -1.96874,-0.002 -3.92532,-0.308463 -5.8007,-0.907511 -1.90367,-0.597446 -3.68209,-1.537857 -5.24757,-2.774865 -1.61981,-1.291182 -2.93004,-2.928585 -3.8346,-4.792108 -1.0169,-2.141486 -1.51758,-4.491557 -1.46183,-6.861568 -0.0432,-2.487624 0.47392,-4.953084 1.51297,-7.21373 0.98212,-2.084653 2.43195,-3.914614 4.2367,-5.347513 1.94957,-1.513074 4.17807,-2.627327 6.55827,-3.279135 2.75887,-0.76734 5.61225,-1.141319 8.47568,-1.110865 0.94202,0 1.98472,0.01705 3.12811,0.05114 1.14418,0.03445 2.25427,0.08479 3.33027,0.151027 1.21081,0.06778 2.45493,0.135189 3.73237,0.202216 v -1.109729 c 0.0719,-2.211443 -0.99363,-4.305683 -2.82356,-5.54946 -2.18197,-1.431544 -4.76011,-2.137887 -7.36703,-2.018378 -2.75098,-0.105346 -5.49524,0.340704 -8.07124,1.311892 -1.85844,0.790258 -3.64723,1.735182 -5.34752,2.82481 l -5.44751,-8.071297 c 0.93978,-0.672072 2.0158,-1.361532 3.22805,-2.068378 1.34961,-0.76933 2.76798,-1.411204 4.23671,-1.917298 1.82482,-0.624489 3.69813,-1.097089 5.60081,-1.412973 2.45172,-0.395037 4.93263,-0.580465 7.41584,-0.55427 2.79158,-0.03634 5.56993,0.389671 8.22237,1.260757 2.31008,0.760271 4.45167,1.959324 6.30725,3.531351 1.73307,1.493801 3.11134,3.355159 4.03454,5.448649 0.95401,2.178151 1.43558,4.533758 1.41297,6.911568 V 98.52346 h -11.0994 z m 0,-16.950108 c -1.21081,-0.06663 -2.38755,-0.134018 -3.53022,-0.202162 -0.94414,-0.06551 -1.93648,-0.115964 -2.97702,-0.151351 -1.04415,-0.0333 -1.93577,-0.05033 -2.67487,-0.05108 -2.88106,-0.295035 -5.7665,0.516574 -8.07129,2.270271 -1.46656,1.331032 -2.30788,3.215956 -2.31941,5.196432 -0.0836,1.83777 0.72365,3.603187 2.16838,4.742108 1.8842,1.271377 4.13987,1.87519 6.40724,1.715135 2.74441,-0.0047 5.40827,-0.927945 7.56692,-2.622648 0.98873,-0.784292 1.8266,-1.741852 2.4727,-2.825946 0.62653,-1.03449 0.95771,-2.220845 0.95757,-3.43027 z"
         id="path21"
         inkscape:connector-curvature="0"
         style="fill:#4a5661;stroke-width:0.99999982" />
      <path
         d="m 507.41822,31.225081 h 11.90594 v 23.20627 c 1.38527,-1.15927 2.95367,-2.080117 4.64103,-2.724865 2.62303,-1.072717 5.44055,-1.587959 8.27346,-1.512972 3.14949,-0.0597 6.27149,0.595848 9.13097,1.917297 2.59725,1.233338 4.91518,2.98425 6.81162,5.145351 1.93169,2.240751 3.39019,4.849064 4.28779,7.668054 0.9865,3.02972 1.4808,6.198031 1.46405,9.38427 0.0236,3.434767 -0.61058,6.842296 -1.86843,10.038541 -1.20152,3.063208 -3.02195,5.845663 -5.34752,8.17346 -2.41661,2.384722 -5.27925,4.270132 -8.42448,5.548594 -3.52432,1.422042 -7.29733,2.125259 -11.0973,2.068329 -3.80773,0.0268 -7.60927,-0.310981 -11.35265,-1.008599 -2.85264,-0.515718 -5.6672,-1.223453 -8.42448,-2.118379 z m 11.90594,57.611892 c 0.9505,0.339972 1.92981,0.593257 2.92595,0.756757 1.57252,0.202783 3.15802,0.287434 4.74319,0.253243 2.18542,0.04829 4.35492,-0.382423 6.35616,-1.261892 1.76054,-0.799809 3.33967,-1.94994 4.64103,-3.380216 1.28112,-1.418546 2.25934,-3.083566 2.87481,-4.893189 0.63713,-1.833059 0.96158,-3.760183 0.95978,-5.700811 0.005,-1.76954 -0.21515,-3.532527 -0.6554,-5.246433 -0.40723,-1.6112 -1.10844,-3.133363 -2.06838,-4.489945 -0.93668,-1.305643 -2.1633,-2.376358 -3.58352,-3.128055 -1.60941,-0.810937 -3.39492,-1.209812 -5.19643,-1.160864 -3.00293,-0.222534 -5.96831,0.778221 -8.22232,2.774864 -1.92817,2.05282 -2.93102,4.806025 -2.77487,7.618055 z"
         id="path23"
         inkscape:connector-curvature="0"
         style="fill:#4a5661;stroke-width:0.99999982" />
      <rect
         id="Rectangle-path"
         x="333.61179"
         y="31.22508"
         width="12.712324"
         height="12.511243"
         style="fill:#06b052;stroke-width:0.99999982" />
      <polygon
         id="polygon26"
         points="336.93605,132.33768 347.52751,132.33768 347.52751,134.95503 334.014,134.95503 334.014,114.65438 346.79681,114.65438 346.79681,117.24135 336.93605,117.24135 336.93605,123.14622 344.36227,123.14622 344.36227,125.76351 336.93605,125.76351 "
         style="fill:#778798;stroke-width:0.99999982" />
      <path
         d="m 350.52324,134.95503 v -12.69189 c 0,-0.4666 -0.0101,-0.95361 -0.0304,-1.46103 h 2.61779 l 0.0911,2.13081 c 0.18274,-0.24353 0.40599,-0.51243 0.66973,-0.8067 0.28574,-0.31255 0.61337,-0.58403 0.97357,-0.80671 0.93257,-0.57414 2.00982,-0.86977 3.10481,-0.85205 1.54479,-0.12301 3.06021,0.4719 4.10876,1.61297 0.95107,1.25648 1.42555,2.80962 1.33903,4.38308 v 8.49135 h -2.7393 v -8.2781 c 0.0874,-1.04112 -0.21641,-2.07743 -0.85206,-2.9066 -0.62877,-0.64388 -1.5063,-0.9828 -2.40464,-0.9287 -0.69182,-0.0251 -1.37688,0.14359 -1.97795,0.48703 -0.51645,0.31353 -0.94979,0.74685 -1.26335,1.26329 -0.3257,0.54584 -0.55717,1.14261 -0.6847,1.7653 -0.14281,0.6651 -0.21426,1.34353 -0.21314,2.02378 v 6.57417 z"
         id="path28"
         inkscape:connector-curvature="0"
         style="fill:#778798;stroke-width:0.99999982" />
      <path
         d="m 368.5293,123.08497 h -2.55676 v -2.28281 h 2.55676 v -4.62611 h 2.73929 v 4.62611 h 4.13914 v 2.2827 h -4.13914 v 6.97 c -0.082,0.81832 0.10504,1.64106 0.53281,2.34346 0.37548,0.4356 0.93223,0.67175 1.50638,0.63892 0.44874,0.0154 0.89541,-0.0676 1.30865,-0.24324 0.38109,-0.18778 0.73029,-0.4343 1.03481,-0.73054 l 1.24789,1.67367 c -1.04306,1.09322 -2.50816,1.68158 -4.01762,1.61341 -1.22711,0.10656 -2.43779,-0.33984 -3.302,-1.21751 -0.78915,-1.10398 -1.16127,-2.45202 -1.05021,-3.80449 z"
         id="path30"
         inkscape:connector-curvature="0"
         style="fill:#778798;stroke-width:0.99999982" />
      <path
         d="m 391.88595,132.88546 c -0.22968,0.2474 -0.4736,0.48116 -0.73055,0.70011 -0.38575,0.32451 -0.80987,0.60045 -1.26286,0.82162 -0.58413,0.28902 -1.1959,0.51842 -1.82605,0.6847 -0.7799,0.20272 -1.58345,0.30002 -2.38919,0.2893 -1.03021,0.012 -2.05314,-0.17393 -3.01319,-0.54779 -0.88264,-0.34502 -1.68155,-0.87432 -2.34341,-1.55259 -0.66229,-0.68924 -1.17527,-1.50771 -1.50686,-2.40422 -0.36553,-0.99358 -0.54595,-2.04572 -0.53233,-3.10432 -0.008,-0.99247 0.16749,-1.97788 0.51741,-2.90665 0.32486,-0.87115 0.82154,-1.66809 1.46054,-2.34346 0.6358,-0.66414 1.39601,-1.19677 2.23735,-1.56757 0.89671,-0.39243 1.86665,-0.58959 2.84541,-0.57837 1.0869,-0.0298 2.16419,0.21075 3.13513,0.70016 0.84822,0.44605 1.58247,1.08124 2.14595,1.85643 0.5707,0.79893 0.98855,1.69662 1.23243,2.64768 0.26594,1.01325 0.39886,2.05681 0.3954,3.10437 h -11.16962 c 0.0131,0.60078 0.15314,1.192 0.41081,1.73487 0.24695,0.51888 0.59327,0.9843 1.01936,1.36989 0.42968,0.38763 0.92423,0.69661 1.46102,0.91281 0.55092,0.22398 1.14044,0.33768 1.73514,0.33465 1.0187,0.0387 2.0316,-0.17011 2.95194,-0.60854 0.62176,-0.2972 1.188,-0.69872 1.67417,-1.18714 z m -2.46541,-6.23951 c -0.0571,-1.03738 -0.46482,-2.02461 -1.15632,-2.8 -0.7553,-0.7983 -1.82502,-1.22161 -2.92206,-1.15633 -0.60007,-0.01 -1.1957,0.10434 -1.74989,0.33465 -0.49358,0.20737 -0.94306,0.50702 -1.32432,0.88286 -0.36299,0.36192 -0.65235,0.79079 -0.85206,1.26287 -0.20095,0.46737 -0.31439,0.96766 -0.33465,1.476 z"
         id="path32"
         inkscape:connector-curvature="0"
         style="fill:#778798;stroke-width:0.99999982" />
      <path
         d="m 396.07216,134.95503 v -12.78287 c 0,-0.44616 -0.0101,-0.90279 -0.0304,-1.36989 h 2.61773 l 0.0912,2.2827 c 0.19375,-0.28343 0.40725,-0.55284 0.63892,-0.80621 0.28254,-0.31019 0.60504,-0.58146 0.95903,-0.80671 0.4095,-0.2599 0.8489,-0.4694 1.30865,-0.62394 0.55477,-0.18133 1.13594,-0.26869 1.71951,-0.25849 0.28019,-0.002 0.56008,0.0186 0.83708,0.0608 0.24359,0.0382 0.48302,0.0994 0.71508,0.18276 l -0.60854,2.55675 c -1.52096,-0.54509 -3.22041,-0.13229 -4.32183,1.04979 -0.37106,0.40493 -0.66504,0.87424 -0.86747,1.38481 -0.21397,0.53208 -0.32254,1.10067 -0.31967,1.67416 v 7.45659 z"
         id="path34"
         inkscape:connector-curvature="0"
         style="fill:#778798;stroke-width:0.99999982" />
      <path
         d="M 408.14114,141.04216 V 122.2633 c 0,-0.4666 -0.0101,-0.95361 -0.0304,-1.46103 h 2.61778 l 0.0911,2.00881 c 0.18929,-0.23505 0.3925,-0.45855 0.60854,-0.6693 0.29908,-0.29114 0.63105,-0.54648 0.98918,-0.76086 0.43545,-0.26178 0.90029,-0.47121 1.38487,-0.62395 0.59127,-0.18186 1.20753,-0.26926 1.82605,-0.25897 0.98326,-0.0245 1.95834,0.18417 2.84541,0.60903 0.78099,0.38889 1.46293,0.95091 1.99384,1.64324 0.53717,0.71006 0.93476,1.51558 1.17167,2.37384 0.25741,0.92144 0.38547,1.8742 0.38049,2.83092 0.0278,1.14041 -0.19563,2.27298 -0.65433,3.31746 -0.39894,0.88244 -0.9798,1.67066 -1.70454,2.31302 -0.68524,0.60003 -1.48138,1.06002 -2.34346,1.354 -0.81701,0.28654 -1.67583,0.43579 -2.54162,0.44168 -0.77626,0.0238 -1.55148,-0.0738 -2.29762,-0.2893 -0.57816,-0.19268 -1.12093,-0.40067 -1.62832,-0.62394 v 6.57421 z m 2.70897,-9.16113 c 0.42694,0.32074 0.89863,0.57711 1.4,0.76092 0.73104,0.26406 1.50533,0.3879 2.28227,0.36502 0.65368,0.007 1.30167,-0.12216 1.90221,-0.38043 0.56704,-0.2453 1.07542,-0.6084 1.49141,-1.06519 0.42094,-0.46492 0.74675,-1.00779 0.95903,-1.59795 0.22895,-0.6445 0.34224,-1.32439 0.33465,-2.00832 0.004,-0.65627 -0.0727,-1.31053 -0.22855,-1.94805 -0.13849,-0.5792 -0.38628,-1.12664 -0.73005,-1.61292 -0.33664,-0.46802 -0.78016,-0.84891 -1.29368,-1.11097 -0.60696,-0.29132 -1.27514,-0.43223 -1.94805,-0.41082 -0.89947,-0.0243 -1.78012,0.26025 -2.49535,0.80622 -0.73266,0.60466 -1.24606,1.43356 -1.46103,2.35887 -0.1048,0.341 -0.16618,0.69385 -0.1827,1.05021 -0.0204,0.37546 -0.0306,0.76602 -0.0304,1.17168 z"
         id="path36"
         inkscape:connector-curvature="0"
         style="fill:#778798;stroke-width:0.99999982" />
      <path
         d="m 425.53384,134.95503 v -12.78287 c 0,-0.44616 -0.0101,-0.90279 -0.0304,-1.36989 h 2.61778 l 0.0911,2.2827 c 0.19376,-0.28342 0.40726,-0.55282 0.63892,-0.80621 0.28254,-0.3102 0.60506,-0.58148 0.95908,-0.80671 0.40949,-0.25993 0.84889,-0.46943 1.30865,-0.62394 0.55477,-0.18133 1.13594,-0.2687 1.71951,-0.25849 0.28017,-0.002 0.56004,0.0186 0.83703,0.0608 0.24361,0.0382 0.48305,0.0994 0.71513,0.18276 l -0.60854,2.55675 c -1.52098,-0.54501 -3.2204,-0.13223 -4.32189,1.04979 -0.37104,0.40493 -0.665,0.87424 -0.8674,1.38481 -0.214,0.53208 -0.32259,1.10066 -0.31973,1.67416 v 7.45659 z"
         id="path38"
         inkscape:connector-curvature="0"
         style="fill:#778798;stroke-width:0.99999982" />
      <path
         d="m 437.55313,115.20216 h 3.07395 v 3.07438 h -3.07395 z m 0.18271,5.6 h 2.73935 v 14.15276 h -2.73935 z"
         id="path40"
         inkscape:connector-curvature="0"
         style="fill:#778798;stroke-width:0.99999982" />
      <path
         d="m 445.52108,131.39405 c 0.52478,0.51943 1.14478,0.93281 1.82605,1.21752 0.78225,0.31812 1.62112,0.47348 2.46541,0.45659 0.78441,0.0261 1.56461,-0.12489 2.2827,-0.44162 0.56373,-0.22556 0.92775,-0.77787 0.91276,-1.38486 0.008,-0.29132 -0.0601,-0.57969 -0.19768,-0.8366 -0.16379,-0.26385 -0.395,-0.47923 -0.66978,-0.62395 -0.39475,-0.21568 -0.81341,-0.3844 -1.24741,-0.5027 -0.5174,-0.15193 -1.16176,-0.31926 -1.93308,-0.502 -0.55351,-0.12342 -1.09752,-0.28616 -1.62789,-0.48697 -0.52054,-0.19314 -1.00826,-0.46522 -1.44605,-0.8067 -0.42365,-0.33177 -0.77567,-0.74594 -1.03481,-1.21752 -0.27654,-0.52998 -0.41267,-1.12197 -0.39541,-1.71951 -0.0145,-0.63574 0.14888,-1.26289 0.47162,-1.81081 0.32025,-0.52354 0.75149,-0.97041 1.2633,-1.30908 0.54583,-0.36342 1.14709,-0.63573 1.78027,-0.80627 0.66928,-0.18403 1.36048,-0.27617 2.0546,-0.27389 1.04921,-0.0233 2.09446,0.1363 3.08891,0.47162 0.83149,0.29684 1.60047,0.74584 2.26768,1.32405 l -1.4914,1.88681 c -0.47281,-0.41397 -1.01335,-0.74345 -1.59795,-0.974 -0.71255,-0.27695 -1.47255,-0.4113 -2.23687,-0.3954 -0.72426,-0.0318 -1.44528,0.11437 -2.09994,0.42578 -0.51887,0.2678 -0.82974,0.81761 -0.79173,1.40027 0.0158,0.6327 0.44139,1.18154 1.05021,1.35443 0.89354,0.35423 1.81474,0.6342 2.75427,0.83708 0.63424,0.15148 1.25922,0.33938 1.87184,0.56276 0.54576,0.19564 1.05882,0.47264 1.52179,0.82162 0.43159,0.32966 0.78495,0.75069 1.03475,1.23292 0.26748,0.54909 0.39803,1.15478 0.38049,1.7653 0.0141,0.657 -0.15455,1.305 -0.48703,1.87184 -0.32994,0.54316 -0.77704,1.00575 -1.30865,1.354 -0.57796,0.37869 -1.21593,0.65667 -1.88681,0.8221 -0.72617,0.18441 -1.47272,0.27643 -2.22194,0.2739 -2.22484,0.17028 -4.41679,-0.61578 -6.02638,-2.16114 z"
         id="path42"
         inkscape:connector-curvature="0"
         style="fill:#778798;stroke-width:0.99999982" />
      <path
         d="m 471.58497,132.88546 c -0.22967,0.2474 -0.4736,0.48116 -0.73054,0.70011 -0.38575,0.32451 -0.80987,0.60045 -1.26286,0.82162 -0.58413,0.28902 -1.19591,0.51842 -1.82606,0.6847 -0.7799,0.20272 -1.58344,0.30002 -2.38919,0.2893 -1.0302,0.012 -2.05313,-0.17393 -3.01319,-0.54779 -0.88264,-0.34502 -1.68154,-0.87432 -2.3434,-1.55259 -0.66229,-0.68924 -1.17527,-1.50771 -1.50687,-2.40422 -0.36552,-0.99358 -0.54594,-2.04572 -0.53232,-3.10432 -0.008,-0.99247 0.16748,-1.97786 0.51735,-2.90665 0.3249,-0.87114 0.8216,-1.66808 1.4606,-2.34346 0.63579,-0.66416 1.396,-1.19679 2.23735,-1.56757 0.8967,-0.39243 1.86665,-0.58959 2.8454,-0.57837 1.08691,-0.0298 2.1642,0.21075 3.13514,0.70016 0.84821,0.44606 1.58245,1.08125 2.14594,1.85643 0.57068,0.79895 0.98853,1.69663 1.23244,2.64768 0.26594,1.01325 0.39886,2.05681 0.3954,3.10437 h -11.16962 c 0.0132,0.60078 0.15316,1.19199 0.41081,1.73487 0.24697,0.51889 0.59331,0.9843 1.01941,1.36989 0.42968,0.38763 0.92423,0.69661 1.46102,0.91281 0.55084,0.22395 1.14026,0.33765 1.73487,0.33465 1.01872,0.0387 2.03164,-0.17011 2.952,-0.60854 0.62175,-0.2972 1.188,-0.69872 1.67416,-1.18714 z m -2.46546,-6.23951 c -0.0571,-1.03738 -0.46476,-2.02462 -1.15627,-2.8 -0.75529,-0.7983 -1.82502,-1.22161 -2.92205,-1.15633 -0.60007,-0.01 -1.1957,0.10434 -1.74989,0.33465 -0.49358,0.20737 -0.94306,0.50702 -1.32433,0.88286 -0.36298,0.36192 -0.65234,0.79079 -0.85205,1.26287 -0.20096,0.46737 -0.31439,0.96766 -0.33465,1.476 z"
         id="path44"
         inkscape:connector-curvature="0"
         style="fill:#778798;stroke-width:0.99999982" />
      <path
         d="m 482.64103,114.65276 h 6.78729 c 1.49689,-0.0142 2.98813,0.18565 4.42844,0.59356 1.28198,0.36 2.4708,0.99332 3.48475,1.85644 0.99482,0.87103 1.77587,1.95928 2.28271,3.18054 0.57997,1.45051 0.85948,3.00365 0.82162,4.56535 0.0337,1.5268 -0.24592,3.0443 -0.82162,4.45881 -0.50955,1.21544 -1.29036,2.29823 -2.28271,3.16551 -1.01975,0.86662 -2.21321,1.50489 -3.50016,1.87189 -1.44368,0.41747 -2.94047,0.62245 -4.44324,0.60849 h -6.75676 z m 6.69573,17.68329 c 2.1371,0.13175 4.24692,-0.53538 5.91978,-1.87183 1.49186,-1.44751 2.26638,-3.48119 2.11535,-5.55438 0.1423,-2.09378 -0.59699,-4.15173 -2.03913,-5.67633 -1.69415,-1.42542 -3.87947,-2.13014 -6.08719,-1.96297 h -3.68249 v 15.06551 z"
         id="path46"
         inkscape:connector-curvature="0"
         style="fill:#778798;stroke-width:0.99999982" />
      <path
         d="m 516.09038,132.88384 c -0.22967,0.2474 -0.4736,0.48116 -0.73054,0.70011 -0.38575,0.32451 -0.80988,0.60045 -1.26287,0.82162 -0.58412,0.28902 -1.1959,0.51841 -1.82605,0.6847 -0.7799,0.20272 -1.58345,0.30002 -2.38919,0.2893 -1.03021,0.012 -2.05314,-0.17393 -3.01319,-0.54779 -0.88264,-0.34502 -1.68155,-0.87433 -2.34341,-1.55259 -0.66229,-0.68924 -1.17527,-1.50771 -1.50686,-2.40422 -0.36552,-0.99358 -0.54594,-2.04572 -0.53232,-3.10432 -0.008,-0.99247 0.16748,-1.97788 0.5174,-2.90665 0.32486,-0.87115 0.82155,-1.66809 1.46054,-2.34346 0.6358,-0.66416 1.39601,-1.19679 2.23735,-1.56757 0.89671,-0.39243 1.86665,-0.58959 2.84541,-0.57837 1.0869,-0.0299 2.1642,0.21072 3.13513,0.70016 0.84821,0.44606 1.58246,1.08124 2.14595,1.85643 0.57068,0.79894 0.98853,1.69662 1.23243,2.64767 0.26595,1.01326 0.39887,2.05682 0.39541,3.10438 h -11.16962 c 0.0132,0.60078 0.15316,1.19199 0.41081,1.73487 0.24696,0.51889 0.5933,0.9843 1.0194,1.36989 0.42969,0.38763 0.92424,0.69661 1.46103,0.91281 0.55092,0.22399 1.14043,0.33768 1.73513,0.33465 1.01872,0.0387 2.03163,-0.17014 2.952,-0.60854 0.62167,-0.29717 1.18786,-0.69861 1.674,-1.18692 z m -2.46557,-6.23952 c -0.0571,-1.03737 -0.46484,-2.02459 -1.15632,-2.8 -0.75534,-0.79823 -1.82504,-1.22151 -2.92206,-1.15627 -0.60007,-0.01 -1.1957,0.10432 -1.74989,0.33465 -0.49359,0.20736 -0.94307,0.507 -1.32432,0.88287 -0.36299,0.36191 -0.65235,0.79078 -0.85206,1.26286 -0.20096,0.46737 -0.31439,0.96767 -0.33465,1.476 z"
         id="path48"
         inkscape:connector-curvature="0"
         style="fill:#778798;stroke-width:0.99999982" />
      <polygon
         id="polygon50"
         points="520.18157,120.80065 524.59454,131.84903 528.97762,120.80065 531.92962,120.80065 525.87281,134.95351 523.13395,134.95351 517.04681,120.80065 "
         style="fill:#778798;stroke-width:0.99999982" />
      <path
         d="m 543.81611,135.47076 c -1.40327,0.0117 -2.79314,-0.27353 -4.07833,-0.83708 -1.23326,-0.54038 -2.34952,-1.31568 -3.28648,-2.28265 -0.94358,-0.97848 -1.68789,-2.1311 -2.19152,-3.39368 -0.53282,-1.32501 -0.80162,-2.74136 -0.79129,-4.16946 -0.0112,-1.42333 0.25766,-2.83497 0.79129,-4.15454 0.50493,-1.25375 1.24338,-2.40019 2.17611,-3.37838 0.93377,-0.971 2.05108,-1.74691 3.28708,-2.2827 2.61492,-1.11611 5.57217,-1.11611 8.18708,0 1.23907,0.53819 2.36084,1.31366 3.30206,2.2827 0.94047,0.97511 1.6845,2.12209 2.19151,3.37838 0.5334,1.31963 0.80226,2.73123 0.7913,4.15454 0.0101,1.42807 -0.2587,2.84438 -0.7913,4.16946 -0.50396,1.26241 -1.24824,2.41496 -2.19151,3.39368 -0.94099,0.96929 -2.06282,1.74479 -3.30206,2.28265 -1.29097,0.56263 -2.68573,0.84782 -4.09394,0.83708 z m 0,-2.7393 c 2.04359,0.0356 3.99858,-0.83317 5.34167,-2.37384 0.64819,-0.74631 1.14903,-1.60872 1.476,-2.54157 0.34819,-0.98188 0.52326,-2.01676 0.51741,-3.05854 0.007,-1.05197 -0.16763,-2.09725 -0.51741,-3.0894 -0.32718,-0.93262 -0.828,-1.79486 -1.476,-2.54114 -0.64012,-0.73098 -1.42865,-1.31717 -2.31308,-1.71951 -0.95202,-0.42614 -1.98566,-0.63909 -3.02859,-0.62395 -1.03794,-0.0163 -2.06668,0.19673 -3.01276,0.62395 -0.87853,0.405 -1.66163,0.99095 -2.29805,1.71951 -0.64817,0.74616 -1.14901,1.60843 -1.476,2.54114 -0.34998,0.99209 -0.52505,2.03742 -0.51741,3.0894 -0.006,1.0418 0.16902,2.07671 0.51741,3.05854 0.32678,0.93294 0.82764,1.79538 1.476,2.54157 0.63858,0.73022 1.42089,1.3209 2.29805,1.73514 0.94342,0.43682 1.97325,0.65514 3.01276,0.6387 z"
         id="path52"
         inkscape:connector-curvature="0"
         style="fill:#778798;stroke-width:0.99999982" />
      <path
         d="m 556.95195,141.04054 v -18.77892 c 0,-0.46659 -0.0101,-0.9536 -0.0304,-1.46102 h 2.61778 l 0.0911,2.0088 c 0.18926,-0.23508 0.39247,-0.45858 0.60854,-0.66929 0.29908,-0.29115 0.63105,-0.54649 0.98919,-0.76087 0.43545,-0.26177 0.90029,-0.47122 1.38486,-0.624 0.59128,-0.18181 1.20754,-0.26919 1.82605,-0.25892 0.98326,-0.0245 1.95834,0.18417 2.84541,0.60903 0.78101,0.38888 1.46294,0.9509 1.99384,1.64324 0.53717,0.71007 0.93477,1.51559 1.17173,2.37384 0.25736,0.92144 0.38539,1.87418 0.38043,2.83087 0.0278,1.1404 -0.19544,2.27297 -0.65405,3.31746 -0.39894,0.88246 -0.9798,1.6707 -1.70454,2.31308 -0.68524,0.60004 -1.48138,1.06003 -2.34346,1.354 -0.817,0.28653 -1.67581,0.43578 -2.54157,0.44167 -0.77628,0.0238 -1.55152,-0.0738 -2.29768,-0.28929 -0.57816,-0.19269 -1.12093,-0.40067 -1.62832,-0.62395 v 6.57427 z m 2.70891,-9.16114 c 0.42702,0.32078 0.89881,0.57715 1.40028,0.76092 0.73102,0.26408 1.50529,0.38792 2.28221,0.36503 0.65368,0.007 1.30168,-0.12216 1.90222,-0.38043 0.56705,-0.24528 1.07543,-0.60838 1.4914,-1.06519 0.42094,-0.46494 0.74677,-1.0078 0.95908,-1.59795 0.22897,-0.64452 0.34226,-1.32443 0.33465,-2.00837 0.004,-0.65625 -0.0728,-1.3105 -0.22854,-1.94801 -0.13854,-0.57919 -0.38634,-1.12662 -0.73011,-1.61291 -0.33662,-0.46804 -0.78015,-0.84893 -1.29367,-1.11098 -0.60696,-0.29132 -1.27514,-0.43223 -1.94806,-0.41081 -0.89946,-0.0243 -1.78011,0.26027 -2.49535,0.80622 -0.73265,0.60467 -1.24605,1.43356 -1.46102,2.35886 -0.1048,0.34099 -0.16618,0.69383 -0.18271,1.05017 -0.0204,0.37546 -0.0306,0.76603 -0.0304,1.17173 z"
         id="path54"
         inkscape:connector-curvature="0"
         style="fill:#778798;stroke-width:0.99999982" />
      <path
         d="m 574.48616,131.39243 c 0.52478,0.51943 1.14478,0.93281 1.82606,1.21752 0.78224,0.31812 1.62111,0.47348 2.4654,0.45659 0.78439,0.0261 1.56458,-0.12488 2.28265,-0.44162 0.56375,-0.22553 0.92781,-0.77786 0.91281,-1.38487 0.008,-0.29131 -0.0601,-0.57968 -0.19768,-0.83659 -0.16381,-0.26385 -0.39501,-0.47925 -0.66978,-0.624 -0.39478,-0.21554 -0.81343,-0.38415 -1.2474,-0.50238 -0.51741,-0.15193 -1.16177,-0.31926 -1.93309,-0.502 -0.55351,-0.12344 -1.09752,-0.2862 -1.62789,-0.48703 -0.52055,-0.1931 -1.00827,-0.46516 -1.44605,-0.80665 -0.42368,-0.33175 -0.7757,-0.74595 -1.03481,-1.21756 -0.27654,-0.52996 -0.41267,-1.12194 -0.39541,-1.71946 -0.0145,-0.63574 0.14888,-1.2629 0.47163,-1.81081 0.32025,-0.52354 0.75149,-0.97043 1.26329,-1.30914 0.54585,-0.36338 1.1471,-0.63566 1.78027,-0.80621 0.66928,-0.18403 1.36048,-0.27617 2.0546,-0.2739 1.04921,-0.0233 2.09446,0.13631 3.08892,0.47163 0.83149,0.29682 1.60048,0.74582 2.26767,1.32405 l -1.4914,1.88681 c -0.47281,-0.41397 -1.01335,-0.74345 -1.59795,-0.974 -0.71255,-0.27696 -1.47255,-0.4113 -2.23687,-0.39541 -0.72426,-0.0318 -1.44528,0.11435 -2.09994,0.42579 -0.51887,0.2678 -0.82974,0.8176 -0.79173,1.40027 0.0158,0.63269 0.44136,1.18152 1.05016,1.35443 0.89354,0.35421 1.81475,0.63419 2.75427,0.83708 0.63426,0.15147 1.25926,0.33937 1.87189,0.56276 0.54576,0.19563 1.05882,0.47264 1.52179,0.82162 0.43157,0.32971 0.78492,0.75074 1.03475,1.23297 0.26749,0.54909 0.39804,1.15478 0.38049,1.7653 0.0141,0.657 -0.15455,1.305 -0.48703,1.87184 -0.32993,0.54316 -0.77704,1.00576 -1.30865,1.354 -0.57799,0.37867 -1.21598,0.65664 -1.88686,0.82211 -0.72616,0.18438 -1.47269,0.2764 -2.22189,0.27389 -2.22484,0.17028 -4.41679,-0.61578 -6.02638,-2.16114 z"
         id="path56"
         inkscape:connector-curvature="0"
         style="fill:#778798;stroke-width:0.99999982" />
      <path
         d="M 5.1004865,23.023243 0.6912973,18.614324 c -0.92169014,-0.921751 -0.92169014,-2.41614 0,-3.337892 L 15.04427,0.92189189 C 15.634464,0.33161913 16.434987,7.2532742e-7 17.269703,7.2532742e-7 18.104419,7.2532742e-7 18.904941,0.33161913 19.495135,0.92189189 L 33.693027,15.121081 c 0.442677,0.442715 0.691327,1.043169 0.691236,1.669236 -9.1e-5,0.626067 -0.248916,1.226448 -0.691723,1.669034 l -4.411621,4.40946 c -0.921851,0.921456 -2.416123,0.921214 -3.337676,-5.41e-4 l -8.673513,-8.675135 -8.8316759,8.83027 c -0.921759,0.92143 -2.4158982,0.921357 -3.3375676,-1.62e-4 z"
         id="path58"
         inkscape:connector-curvature="0"
         style="fill:#06b052;stroke-width:0.99999982" />
      <path
         d="M 130.63865,117.78795 H 34.076649 C 27.690368,117.78068 22.515119,112.60531 22.508,106.21903 V 12.532973 H 11.868432 v 93.686057 c 0.01424,12.25939 9.948825,22.19407 22.208217,22.20843 H 141.27697 Z"
         id="path60"
         inkscape:connector-curvature="0"
         style="fill:#06b052;stroke-width:0.99999982" />
      <polygon
         id="polygon62"
         points="87.237838,92.583784 68.043243,65.2 59.87027,77.691892 70.313513,92.583784 "
         style="fill:#059949;stroke-width:0.99999982" />
      <path
         d="m 70.485351,41.500865 c -1.062313,-7e-6 -2.052938,0.53591 -2.634216,1.425081 L 35.392378,92.581784 h 13.118919 c 1.081643,-2.2e-5 2.087476,-0.555532 2.663514,-1.471027 L 83.605676,41.500865 Z"
         id="path64"
         inkscape:connector-curvature="0"
         style="fill:#06b052;stroke-width:0.99999982" />
      <path
         d="M 97.161135,80.634865 V 44.647892 c -3e-5,-1.738064 -1.409017,-3.147027 -3.147081,-3.147027 H 83.60573 v 51.080378 z"
         id="path66"
         inkscape:connector-curvature="0"
         style="fill:#06b052;stroke-width:0.99999982" />
      <path
         d="m 111.20151,81.975135 c -0.58899,-0.840197 -1.55062,-1.340487 -2.5767,-1.34054 H 97.161135 L 83.605784,92.581081 v 5.41e-4 h 35.032436 z"
         id="path68"
         inkscape:connector-curvature="0"
         style="fill:#059949;stroke-width:0.99999982" />
      <polygon
         id="polygon70"
         points="51.421622,41.491892 34.491892,41.491892 50.648649,64.535135 58.816216,52.043243 "
         style="fill:#059949;stroke-width:0.99999982" />
      <path
         d="m 119.06881,2.9325946 -79.724323,0.00286 10.639675,10.6365944 h 69.084648 c 6.3863,0.0073 11.56156,5.182671 11.56865,11.568973 v 92.646928 l 10.63957,10.63951 V 25.141027 C 141.26273,12.88166 131.32818,2.9470113 119.06881,2.9325946 Z"
         id="path72"
         inkscape:connector-curvature="0"
         style="fill:#059949;stroke-width:0.99999982" />
    </g>
  </g>
</svg>
