<?xml version="1.0" encoding="UTF-8"?>
<svg width="100px" height="28px" viewBox="0 0 100 28" version="1.1" xmlns="http://www.w3.org/2000/svg" xmlns:xlink="http://www.w3.org/1999/xlink">
    <!-- Generator: Sketch 50.2 (55047) - http://www.bohemiancoding.com/sketch -->
    <title>xl-platform-white-115x32</title>
    <desc>Created with Sketch.</desc>
    <defs></defs>
    <g id="Page-1" stroke="none" stroke-width="1" fill="none" fill-rule="evenodd">
        <g id="Artboard" transform="translate(-5.000000, -3.000000)" fill="#FFFFFF" fill-rule="nonzero">
            <g id="xl-platform-white-115x32" transform="translate(5.000000, 3.000000)">
                <path d="M38.2088372,22.9779535 L39.8063256,22.9779535 C40.0005255,22.9756406 40.1938471,23.004379 40.3789767,23.0630814 C40.5399394,23.1150598 40.6887278,23.1990534 40.8163953,23.3100116 C40.9402887,23.4215707 41.0367752,23.5602083 41.0983488,23.7151395 C41.1679803,23.8937773 41.20193,24.0843291 41.1982791,24.2760233 C41.2008497,24.4622265 41.1658376,24.6470354 41.0953372,24.8193953 C41.030779,24.9761556 40.9349444,25.1181112 40.813686,25.236593 C40.6908689,25.3539047 40.5447032,25.4440107 40.3847209,25.5010349 C40.2083873,25.5631056 40.0225315,25.5937602 39.8356047,25.5916047 L39.2249302,25.5916047 L39.2249302,26.8957093 L38.208814,26.8957093 L38.2088372,22.9779535 Z M39.7182209,24.7753256 C39.8442739,24.7816768 39.9667297,24.732207 40.053,24.6400814 C40.1372356,24.5447829 40.1814609,24.4206622 40.1764651,24.2935698 C40.1828332,24.1637739 40.1408899,24.0362209 40.0587326,23.9355349 C39.9694065,23.8408607 39.8423346,23.7912302 39.7124884,23.8003023 L39.2249302,23.8003023 L39.2249302,24.7753605 L39.7182209,24.7753256 Z" id="Shape"></path>
                <polygon id="Shape" points="44.6778372 22.9779535 45.7175 22.9779535 45.7175 25.9792093 47.5323837 25.9792093 47.5323837 26.8957093 44.6778372 26.8957093"></polygon>
                <path d="M51.9334884,22.9779535 L53.1258953,22.9779535 L54.511814,26.8957093 L53.3900465,26.8957093 L53.1377209,26.0854767 L51.8278256,26.0854767 L51.5694186,26.8957093 L50.4946977,26.8957093 L51.9334884,22.9779535 Z M52.9260581,25.3277558 L52.4916512,23.888407 L52.0391395,25.3277558 L52.9260581,25.3277558 Z" id="Shape"></path>
                <polygon id="Shape" points="58.8428023 23.888407 57.6386163 23.888407 57.6386163 22.9779419 61.0862907 22.9779419 61.0862907 23.888407 59.8939419 23.888407 59.8939419 26.8957093 58.8427791 26.8957093"></polygon>
                <polygon id="Shape" points="65.1326628 22.9779535 67.8640581 22.9779535 67.8640581 23.8884186 66.1723256 23.8884186 66.1723256 24.6461395 67.4824767 24.6461395 67.4824767 25.5034651 66.1723256 25.5034651 66.1723256 26.8957209 65.1326628 26.8957209"></polygon>
                <path d="M73.481593,26.9898953 C73.2028288,26.9927188 72.9263169,26.9397411 72.6683372,26.8340814 C72.4269061,26.7350598 72.2073758,26.5893925 72.022314,26.4054186 C71.8375268,26.2191856 71.6925112,25.9973443 71.5960698,25.7533605 C71.3932015,25.2218391 71.3932015,24.6342191 71.5960698,24.1026977 C71.7894817,23.6109026 72.1775254,23.2208937 72.6683372,23.025 C73.1924225,22.8213246 73.7737868,22.8213246 74.2978721,23.025 C74.5401117,23.1213715 74.7599877,23.2664476 74.9438837,23.4512442 C75.1272816,23.6377715 75.2712295,23.8593286 75.3671395,24.1026977 C75.5707986,24.634073 75.5707986,25.2219851 75.3671395,25.7533605 C75.1755871,26.2460131 74.7884749,26.6372804 74.2978953,26.8340814 C74.0388185,26.9396342 73.7613338,26.9925998 73.481593,26.9898953 Z M73.481593,26.0148372 C73.6222979,26.0173708 73.7617757,25.9882751 73.8897326,25.9296977 C74.0063595,25.875296 74.1096169,25.7959466 74.1922093,25.6972558 C74.2766872,25.595141 74.3406491,25.4776723 74.3805814,25.3513023 C74.4667211,25.0759319 74.4667211,24.7808239 74.3805814,24.5054535 C74.3407816,24.3788582 74.2768101,24.2611822 74.1922093,24.1589419 C74.1092836,24.0605991 74.0061089,23.9813133 73.8897326,23.9265 C73.6294797,23.812981 73.3337063,23.812981 73.0734535,23.9265 C72.9570752,23.9813102 72.8538999,24.0605965 72.7709767,24.1589419 C72.6863463,24.2610665 72.6225546,24.3787897 72.5832093,24.5054535 C72.4970696,24.7808239 72.4970696,25.0759319 72.5832093,25.3513023 C72.6226869,25.4777413 72.686469,25.5952571 72.7709767,25.6972558 C72.8535668,25.7959491 72.9568248,25.8752989 73.0734535,25.9296977 C73.20141,25.9882763 73.3408881,26.0173719 73.481593,26.0148372 Z" id="Shape"></path>
                <path d="M79.3860581,22.9779535 L81.0071395,22.9779535 C81.2010697,22.9754858 81.3941907,23.0033934 81.5794884,23.0606628 C81.7407415,23.1104139 81.8898299,23.193287 82.0172093,23.3039767 C82.1407468,23.414891 82.2372034,23.5526584 82.2991628,23.706686 C82.3687142,23.8842842 82.4025691,24.0738524 82.3987907,24.2645465 C82.404663,24.5000985 82.3457677,24.7327436 82.2285233,24.9371279 C82.117996,25.1241217 81.9625672,25.2805897 81.776314,25.3923605 L82.6161395,26.8957093 L81.5003953,26.8957093 L80.8368721,25.5626163 L80.4021744,25.5626163 L80.4021744,26.8957093 L79.3860581,26.8957093 L79.3860581,22.9779535 Z M80.906907,24.7463488 C81.0311668,24.7512671 81.1520991,24.7055262 81.242,24.6196047 C81.3304837,24.5301968 81.3773597,24.4077437 81.3711977,24.2821047 C81.3781946,24.1529381 81.3339344,24.0262289 81.2480349,23.9295116 C81.1558157,23.8396701 81.0300499,23.792778 80.9015233,23.800314 L80.4022209,23.800314 L80.4022209,24.7463953 L80.906907,24.7463488 Z" id="Shape"></path>
                <polygon id="Shape" points="86.4937558 22.9779535 87.4863372 22.9779535 88.4378488 24.6871744 89.3718605 22.9779535 90.3704651 22.9779535 90.5521977 26.8957093 89.5010349 26.8957093 89.4068488 24.5990349 88.7197791 25.9381512 88.1505116 25.9381512 87.3867558 24.5990349 87.3100814 26.8957093 86.3120814 26.8957093"></polygon>
                <path d="M38.2088372,8.92061628 L42.3125116,8.92061628 C43.1101384,8.91213784 43.9045317,9.02325185 44.6692209,9.25025581 C45.3486688,9.45115975 45.9778298,9.79376674 46.5152442,10.2555 C47.0476389,10.728987 47.4599889,11.3221297 47.7183605,11.9861163 C48.0202168,12.7802406 48.1657039,13.6252323 48.146814,14.4745814 C48.165157,15.289895 48.0164881,16.1003404 47.7099535,16.8560581 C47.4369584,17.5068234 47.0200227,18.0872535 46.4904767,18.5537326 C45.9505222,19.0199247 45.3190056,19.3679934 44.6365116,19.5755698 C43.8782697,19.8072508 43.0889602,19.9211819 42.2961512,19.9133837 L38.2088372,19.9133837 L38.2088372,8.92061628 Z M42.1148721,18.0675698 C43.1511085,18.1394603 44.1760282,17.8155219 44.9827209,17.1611512 C45.6801958,16.4609972 46.0407073,15.4933636 45.9713837,14.5075233 C46.0262627,13.5123737 45.6990287,12.5338326 45.0565581,11.7718837 C44.2639419,11.0330749 43.193881,10.6673293 42.1148721,10.7664186 L40.2856628,10.7664186 L40.2856628,18.0675814 L42.1148721,18.0675698 Z" id="Shape"></path>
                <polygon id="Shape" points="49.8576163 8.92061628 56.9772558 8.92061628 56.9772558 10.7500581 51.9344419 10.7500581 51.9344419 13.3375698 55.6423721 13.3375698 55.6423721 15.1833721 51.9344419 15.1833721 51.9344419 18.0509884 57.3566395 18.0509884 57.3566395 19.9133721 49.8576163 19.9133721"></polygon>
                <polygon id="Shape" points="58.4300465 8.92061628 60.7377209 8.92061628 63.6546512 17.3092674 66.5720116 8.92061628 68.7474419 8.92061628 64.6601163 19.9133721 62.5173721 19.9133721"></polygon>
                <path d="M74.8323721,20.2100581 C74.0618891,20.2164273 73.298543,20.0620686 72.5910698,19.7568372 C71.9117053,19.4636829 71.2959544,19.0409928 70.7782209,18.5123837 C70.258155,17.9800927 69.8441493,17.3536838 69.5583023,16.666593 C68.965217,15.2197535 68.965217,13.5976535 69.5583023,12.150814 C69.8423094,11.4671961 70.2534131,10.8436553 70.769814,10.3132558 C71.8403871,9.2247645 73.3056541,8.61548636 74.8323721,8.62398837 C75.6028575,8.61762113 76.3662062,8.77197556 77.073686,9.07719767 C79.9750034,10.3664288 81.3202917,13.732992 80.1064535,16.6666512 C79.8204436,17.3536324 79.4064655,17.9799917 78.8865581,18.5123837 C78.3687608,19.0408902 77.7530503,19.4635662 77.0737674,19.7568372 C76.3662649,20.0620796 75.6028862,20.2164385 74.8323721,20.2100581 Z M74.8323721,18.2488605 C75.8245023,18.2643178 76.7723279,17.8386701 77.4198953,17.0868605 C77.7326544,16.7206468 77.9731595,16.2984658 78.1286744,15.8426744 C78.458227,14.8784389 78.458227,13.8320611 78.1286744,12.8678256 C77.9729289,12.4170472 77.7323406,12.0002459 77.4198953,11.6399186 C77.1092847,11.2863795 76.7272658,11.002692 76.2990233,10.8075581 C75.3605906,10.4010586 74.2957698,10.4010586 73.3573372,10.8075581 C72.9323503,11.0041055 72.5533531,11.287673 72.2448605,11.6399186 C71.9322558,12.0001323 71.6916488,12.416966 71.5360814,12.8678256 C71.206513,13.8320585 71.206513,14.8784415 71.5360814,15.8426744 C71.6914162,16.2985469 71.9319398,16.7207604 72.2448605,17.0868605 C72.8895097,17.8425655 73.8392689,18.2690835 74.8323721,18.2488605 Z" id="Shape"></path>
                <path d="M82.5918721,8.92061628 L86.1189767,8.92061628 C86.7665718,8.8966075 87.4113418,9.01769281 88.0061047,9.27501163 C88.4519291,9.47870362 88.848236,9.77672529 89.1676628,10.1485 C89.4420902,10.4730593 89.6443585,10.8522684 89.7610465,11.2609651 C89.8646314,11.6144842 89.9201035,11.9803503 89.9259651,12.348686 C89.9407612,12.8944714 89.8279671,13.4361772 89.5965581,13.9306977 C89.3934109,14.3490649 89.10071,14.7176168 88.7392093,15.0102209 C88.3871447,15.2905513 87.9843656,15.5004229 87.5528953,15.6283605 C87.1308184,15.7574664 86.6921093,15.8240645 86.2507326,15.8260349 L84.5860116,15.8260349 L84.5860116,19.9133605 L82.5918256,19.9133605 L82.5918721,8.92061628 Z M86.085814,14.0790698 C86.5512853,14.1023105 87.0062899,13.9358306 87.3468488,13.6176744 C87.6641971,13.2996031 87.8343998,12.8635196 87.8164186,12.4145698 C87.8359129,11.9484069 87.6604106,11.4951798 87.3320524,11.1637153 C87.0036943,10.8322507 86.5521397,10.6524888 86.085814,10.667593 L84.5860116,10.667593 L84.5860116,14.0790698 L86.085814,14.0790698 Z" id="Shape"></path>
                <path d="M92.6438605,16.8149302 C92.7914714,16.9853656 92.9482294,17.1476588 93.1134419,17.301093 C93.3025174,17.4776883 93.5065228,17.6375874 93.7231744,17.779 C93.9598855,17.9330308 94.2145426,18.05754 94.4814767,18.1497558 C94.786576,18.2527922 95.1070319,18.3029631 95.4290233,18.2981047 C95.9489067,18.3402639 96.4651095,18.1810153 96.8708837,17.8532907 C97.173837,17.5800202 97.3449841,17.1899018 97.3408953,16.7819302 C97.3446006,16.5684968 97.2993789,16.3570495 97.2086977,16.1638023 C97.106566,15.9671092 96.9527917,15.8019467 96.7638837,15.6860465 C96.5091789,15.5275692 96.2349501,15.4028807 95.948093,15.3151163 C95.5397815,15.1867439 95.1243519,15.0822187 94.703907,15.0020698 C94.2451927,14.9198703 93.8027814,14.7640624 93.3937907,14.5406744 C93.0471889,14.3497711 92.7373997,14.0986007 92.4789651,13.7989535 C92.2405946,13.5194053 92.0561843,13.1980396 91.9351047,12.851186 C91.8148771,12.5097016 91.7535774,12.1502632 91.7538256,11.7882326 C91.7520786,11.3786806 91.8304857,10.9727441 91.9846279,10.5933023 C92.1417827,10.2090174 92.3839565,9.86533003 92.6929651,9.58804651 C93.0420139,9.27908223 93.4479835,9.04117785 93.8881279,8.88766279 C94.4312988,8.701291 95.0030427,8.61201333 95.5771744,8.6239186 C96.0842445,8.6135395 96.5899487,8.68025812 97.0769767,8.8217907 C97.4438263,8.93104028 97.7954572,9.08605447 98.1235698,9.28317442 C98.36296,9.42603752 98.5819027,9.60065887 98.7744302,9.80227907 C98.9282984,9.97272868 99.0382481,10.0963101 99.1042791,10.1730233 L97.7362093,11.4586047 C97.6813876,11.4148295 97.5935465,11.3351667 97.472686,11.2196163 C97.3341564,11.0910986 97.1822139,10.9778434 97.0194767,10.8818023 C96.8132382,10.7606151 96.5949653,10.6611859 96.3681744,10.5851163 C96.0919242,10.4935543 95.802264,10.449013 95.5112674,10.4533488 C95.259239,10.4479395 95.0082305,10.4870064 94.7697674,10.5687558 C94.5799335,10.6347397 94.403942,10.735268 94.2506744,10.8652674 C94.1208134,10.9761182 94.0166956,11.1139619 93.9455814,11.269186 C93.88359,11.4008051 93.8499937,11.5439976 93.8469767,11.6894535 C93.8434489,11.8709394 93.8799746,12.0509715 93.9539535,12.2167326 C94.038455,12.3867831 94.1628516,12.53386 94.3165233,12.645407 C94.5299213,12.7995311 94.7662789,12.9190559 95.0168953,12.9995814 C95.3831584,13.1223647 95.7577393,13.2187776 96.1377674,13.2880814 C96.5627584,13.3750133 96.9771099,13.5076204 97.3736047,13.683593 C97.757924,13.8521017 98.1115977,14.0832527 98.4201977,14.3676163 C98.7281538,14.6560065 98.9747839,15.0035436 99.1453372,15.3894419 C99.3373961,15.8453678 99.4300979,16.3369856 99.4172674,16.8315465 C99.422051,17.2933722 99.3205384,17.7501094 99.1205814,18.1664302 C98.9209326,18.5754855 98.6405787,18.9399139 98.2963953,19.2377791 C97.9287247,19.554647 97.503629,19.7979671 97.0441977,19.9545233 C96.5350533,20.1290054 95.9998946,20.2154328 95.4617093,20.210093 C94.9576427,20.2162357 94.4553284,20.1495912 93.9703023,20.0122209 C93.5513054,19.8914611 93.1476106,19.7228463 92.7671977,19.5097093 C92.434359,19.3243065 92.1246115,19.1001962 91.844407,18.8420465 C91.6110699,18.6271481 91.3934131,18.3958245 91.1931047,18.1498488 L92.6438605,16.8149302 Z" id="Shape"></path>
                <path d="M62.6851047,5.06925581 C62.7791825,5.16070017 62.8897903,5.23342192 63.0110349,5.28354651 C63.1533133,5.34248068 63.3062099,5.37146323 63.460186,5.36868605 C63.5822944,5.37333768 63.7040906,5.35337576 63.8183256,5.30998837 C63.9008173,5.28177929 63.9554972,5.2033432 63.9534302,5.11618605 C63.95746,5.02909695 63.9088427,4.94809253 63.830093,4.91068605 C63.7630727,4.87214421 63.6922316,4.84066536 63.6187093,4.81675581 C63.4991388,4.77726964 63.3776181,4.74395439 63.2546279,4.71694186 C63.154985,4.69159941 63.0569779,4.66021185 62.9611512,4.62295349 C62.8587303,4.58356859 62.7627379,4.52916703 62.6763256,4.46153488 C62.5889185,4.3938688 62.5152015,4.3101716 62.4591163,4.2149186 C62.4000256,4.11028099 62.3705672,3.99151854 62.373907,3.87139535 C62.3718026,3.74208545 62.4064303,3.61483233 62.4737674,3.5044186 C62.5404469,3.39666307 62.6295672,3.30454444 62.7350581,3.23433721 C62.8469635,3.15994004 62.9697997,3.10347306 63.0991279,3.06697674 C63.231684,3.02823499 63.3690613,3.00847264 63.5071628,3.00827907 C63.7162665,3.00396077 63.924908,3.02966846 64.1267093,3.08461628 C64.2925859,3.13332677 64.4486022,3.2108331 64.5876279,3.31359302 L64.2293721,3.80094186 C64.1388613,3.7378291 64.0401085,3.68745107 63.9358837,3.65122093 C63.7980957,3.60352962 63.6529398,3.58065979 63.5071628,3.58367442 C63.3878664,3.5728249 63.2680858,3.59842962 63.1636512,3.65710465 C63.1038387,3.69719267 63.0676161,3.76417488 63.066814,3.83617442 C63.066814,3.92233721 63.1206395,3.98986822 63.2282907,4.03876744 C63.3907661,4.10519514 63.5587496,4.15725858 63.730314,4.19436047 C63.8597876,4.22215458 63.9865198,4.26145804 64.109,4.31180233 C64.2137983,4.35462255 64.3109828,4.41410734 64.3967907,4.48795349 C64.4757495,4.5567962 64.5388288,4.64195331 64.5816744,4.73754651 C64.6272377,4.84618069 64.6492717,4.96323449 64.6463256,5.081 C64.6479959,5.20762641 64.615525,5.33236463 64.5523256,5.44210465 C64.4886123,5.55100506 64.4013753,5.64429641 64.2969884,5.71516279 C64.1819569,5.79296239 64.0550079,5.85148232 63.9211395,5.8884186 C63.7730787,5.9301826 63.6198824,5.95092817 63.4660465,5.95004651 C63.2287091,5.95338519 62.9925084,5.91666864 62.7673837,5.84144186 C62.5762048,5.77963279 62.4042774,5.66939561 62.2683256,5.52145349 L62.6851047,5.06925581 Z" id="Shape"></path>
                <polygon id="Shape" points="39.512314 3.8302907 38.2617093 1.93965116 39.154186 1.93965116 39.9703837 3.21966279 40.7571047 1.93965116 41.5615233 1.93965116 40.3578605 3.8127093 41.7024535 5.85603488 40.8099767 5.85603488 39.9057442 4.4292093 39.0133023 5.85603488 38.2088721 5.85603488"></polygon>
                <path d="M44.4586512,5.45673256 L44.361814,5.55362791 C44.2926479,5.61860084 44.2157481,5.6748141 44.1328488,5.721 C44.0122161,5.7884783 43.8841315,5.84167032 43.751186,5.8795 C43.5706409,5.92991248 43.383694,5.95365201 43.1962791,5.94996512 C42.9912683,5.95262341 42.7877545,5.91472638 42.5974419,5.83845349 C42.2451926,5.69891368 41.9702017,5.41428642 41.8428721,5.05744186 C41.7723201,4.86171173 41.7374921,4.65490215 41.7400465,4.44686047 C41.7382406,4.25317949 41.7731142,4.06090713 41.8428256,3.88019767 C41.9080112,3.71115591 42.0057467,3.55655455 42.1304884,3.42516279 C42.2553588,3.2949413 42.4051052,3.19111805 42.5708488,3.11984884 C42.7499375,3.04370006 42.9429224,3.00568361 43.1375116,3.00822093 C43.3579215,3.00151646 43.5766211,3.0488757 43.7745116,3.14616279 C43.9410817,3.23165042 44.0849979,3.3554302 44.1944419,3.50733721 C44.3017933,3.65977627 44.3794693,3.83107287 44.423407,4.01226744 C44.4703986,4.20045123 44.4940647,4.39370065 44.4938721,4.58766279 L44.4938721,4.68753488 L42.4387558,4.68753488 C42.4373687,4.78378689 42.4606465,4.87879141 42.5063721,4.9635 C42.550621,5.04483994 42.6104575,5.11666815 42.6824651,5.17488372 C42.7559996,5.23422439 42.8395394,5.27995765 42.9291512,5.30993023 C43.0169129,5.34053518 43.1091375,5.35639318 43.2020814,5.35686047 C43.4105891,5.36056657 43.6172697,5.31742482 43.8068837,5.23061628 C43.868792,5.20272701 43.9269907,5.16724531 43.9801395,5.12498837 C44.0251008,5.08777907 44.0593643,5.05743798 44.0829302,5.03396512 L44.4586512,5.45673256 Z M43.7835116,4.18847674 C43.7830635,4.11607022 43.7691116,4.04438271 43.7423721,3.97709302 C43.7147097,3.90642796 43.6738599,3.8416688 43.622,3.78626744 C43.5645008,3.72629969 43.4956289,3.67839019 43.419407,3.64533721 C43.3305262,3.60680237 43.234417,3.58777006 43.1375581,3.58952326 C43.0340354,3.58764469 42.9311939,3.60662643 42.8351628,3.64533721 C42.7537008,3.67832631 42.6790482,3.72610779 42.6149767,3.78626744 C42.5580191,3.84053514 42.5121358,3.905342 42.4798721,3.97709302 C42.4494867,4.04345287 42.4334927,4.11549318 42.4329419,4.18847674 L43.7835116,4.18847674 Z" id="Shape"></path>
                <path d="M45.1371047,1.93965116 L45.8299651,1.93965116 L45.8299651,3.29012791 C45.9105774,3.22265897 46.0018498,3.16906731 46.1000465,3.13154651 C46.2526929,3.0691291 46.4166547,3.03914903 46.5815116,3.04351163 C46.7648062,3.0400522 46.9464974,3.07821928 47.112907,3.15513953 C47.2640504,3.22691497 47.3989394,3.32880782 47.5093023,3.45456977 C47.6217185,3.58496903 47.706595,3.7367611 47.7588256,3.90081395 C47.8162434,4.07712236 47.8450119,4.26149879 47.8440349,4.4469186 C47.8454084,4.64680231 47.8084998,4.84510059 47.7353023,5.03110465 C47.6653801,5.20936693 47.5594405,5.37129081 47.4241047,5.50675581 C47.2834758,5.64553777 47.116886,5.75525823 46.9338488,5.82965116 C46.7287546,5.9124127 46.5091848,5.95333865 46.2880465,5.95002326 C46.0664573,5.9515781 45.8452279,5.93192261 45.6273837,5.89132558 C45.4613769,5.86132302 45.2975857,5.82014406 45.1371279,5.76806977 L45.1371047,1.93965116 Z M45.8299651,5.29232558 C45.8852769,5.31210562 45.9422651,5.32684012 46.0002326,5.33634884 C46.0917465,5.34815389 46.1840167,5.35308243 46.2762674,5.35109302 C46.4034444,5.3539007 46.5296941,5.32883331 46.6461512,5.27765116 C46.7486063,5.23110924 46.8405029,5.16417785 46.9162326,5.08094186 C46.9907936,4.99839496 47.0477227,4.90149904 47.0835349,4.79618605 C47.1205983,4.68950964 47.1394658,4.57736179 47.1393488,4.46443023 C47.1396493,4.36145243 47.126833,4.25885565 47.1012093,4.15911628 C47.0775133,4.0653537 47.0367092,3.97677205 46.9808488,3.89782558 C46.9263336,3.82184756 46.8549502,3.75953886 46.7723023,3.7157907 C46.6786423,3.66859868 46.574734,3.64538942 46.4698953,3.64824419 C46.2951434,3.63529211 46.1225763,3.69352881 45.991407,3.80972093 C45.8792001,3.92918322 45.8208415,4.08940353 45.8299302,4.25304651 L45.8299651,5.29232558 Z" id="Shape"></path>
                <polygon id="Shape" points="48.4647093 3.10219767 49.1575581 3.10219767 49.1575581 5.85603488 48.4647093 5.85603488"></polygon>
                <path d="M51.586093,5.59765116 C51.4918309,5.70216989 51.3755085,5.78442207 51.2455465,5.83845349 C51.0850225,5.91051409 50.9106715,5.94656699 50.7347326,5.9440814 C50.6201625,5.94394561 50.5062995,5.92613134 50.3971628,5.89126744 C50.2863789,5.85650038 50.1828835,5.80177541 50.0917791,5.7297907 C49.9975206,5.65464197 49.9212738,5.55935234 49.8686279,5.45090698 C49.8094523,5.32628452 49.7803162,5.18952491 49.7835581,5.05160465 C49.7810485,4.90684915 49.8111404,4.76338389 49.8716047,4.63183721 C49.9287473,4.51052596 50.013105,4.4040322 50.1181163,4.32063953 C50.2315692,4.23258536 50.3612542,4.16773889 50.4997674,4.12980233 C50.6603177,4.08515437 50.8263666,4.06339318 50.993,4.06516279 C51.0478295,4.06516279 51.1085116,4.06615504 51.1750465,4.06813953 C51.2415814,4.07012403 51.3061822,4.07305426 51.3688488,4.07693023 C51.4392984,4.08087597 51.5116977,4.08479845 51.5860465,4.08869767 L51.5860465,4.02409302 C51.5902392,3.89539062 51.5282248,3.77350758 51.4217209,3.70112791 C51.2947388,3.61782863 51.1447064,3.57672945 50.993,3.58368605 C50.8329103,3.57755908 50.6732121,3.60351389 50.5233023,3.66002326 C50.4151522,3.70601688 50.3110542,3.76100842 50.2121047,3.8244186 L49.895093,3.35465116 C49.9497752,3.31555039 50.0123915,3.27543023 50.0829419,3.2342907 C50.1614659,3.18950351 50.2439933,3.15213259 50.3294535,3.12266279 C50.4356472,3.08632683 50.5446614,3.05882632 50.6553837,3.04044186 C50.7980631,3.01745202 50.9424419,3.00666105 51.0869535,3.00818605 C51.2494057,3.00607192 51.4110873,3.03086442 51.5654419,3.08155814 C51.6998752,3.12579927 51.8245041,3.19557583 51.9324884,3.28705814 C52.0333491,3.37398478 52.1135587,3.4823067 52.1672791,3.60413953 C52.2227981,3.7308939 52.2508246,3.86797504 52.2495116,4.00634884 L52.2495116,5.85603488 L51.6035814,5.85603488 L51.586093,5.59765116 Z M51.586093,4.61125581 C51.5156279,4.60737984 51.4471473,4.60345736 51.3806512,4.59948837 C51.3257132,4.59567442 51.2679612,4.59274419 51.2073953,4.59069767 C51.1466279,4.58875194 51.0947403,4.58775969 51.0517326,4.58772093 C50.8840717,4.57055339 50.7161565,4.61778862 50.5820349,4.71984884 C50.4966899,4.79730908 50.4477293,4.90700214 50.4470581,5.02225581 C50.4421852,5.12920515 50.4891638,5.23194581 50.5732442,5.29822093 C50.6828921,5.37220803 50.8141576,5.40734753 50.9461047,5.39803488 C51.1058168,5.39776089 51.2608405,5.34403004 51.3864651,5.24540698 C51.4440079,5.19977064 51.492767,5.14404531 51.5303605,5.08095349 C51.5668186,5.02075341 51.5860896,4.9517165 51.5860814,4.88133721 L51.586093,4.61125581 Z" id="Shape"></path>
                <polygon id="Shape" points="52.9542907 1.93965116 53.6940698 1.93965116 53.6940698 5.1984186 55.6258953 5.1984186 55.6258953 5.85603488 52.9542907 5.85603488"></polygon>
                <path d="M57.802593,5.59765116 C57.7083285,5.70216726 57.5920068,5.784419 57.4620465,5.83845349 C57.3015221,5.91051301 57.1271714,5.94656586 56.9512326,5.9440814 C56.8366624,5.94394654 56.7227993,5.92613225 56.6136628,5.89126744 C56.5028789,5.85650038 56.3993835,5.80177541 56.3082791,5.7297907 C56.2140173,5.65464533 56.1377698,5.55935487 56.0851279,5.45090698 C56.0259523,5.32628452 55.9968162,5.18952491 56.0000581,5.05160465 C55.9975485,4.90684915 56.0276404,4.76338389 56.0881047,4.63183721 C56.1452465,4.51052551 56.2296044,4.40403161 56.3346163,4.32063953 C56.4480733,4.23258504 56.5777622,4.16773861 56.7162791,4.12980233 C56.8768293,4.08515437 57.0428783,4.06339318 57.2095116,4.06516279 C57.2643256,4.06516279 57.3250039,4.06615504 57.3915465,4.06813953 C57.4580891,4.07012403 57.5226899,4.07305426 57.5853488,4.07693023 C57.655814,4.08087597 57.7282171,4.08479845 57.8025581,4.08869767 L57.8025581,4.02409302 C57.8067442,3.8953921 57.7447313,3.77351208 57.6382326,3.70112791 C57.5112504,3.61782863 57.3612181,3.57672945 57.2095116,3.58368605 C57.0494218,3.57755688 56.8897232,3.60351177 56.739814,3.66002326 C56.6316627,3.70601441 56.5275644,3.76100606 56.4286163,3.8244186 L56.1116047,3.35465116 C56.1662946,3.31555039 56.2289109,3.27543023 56.2994535,3.2342907 C56.3779764,3.18950134 56.460504,3.15213033 56.5459651,3.12266279 C56.6521589,3.08632683 56.7611731,3.05882632 56.8718953,3.04044186 C57.0145707,3.01745144 57.1589457,3.00666047 57.3034535,3.00818605 C57.4659096,3.00607064 57.6275952,3.03086315 57.7819535,3.08155814 C57.9163868,3.12579927 58.0410158,3.19557583 58.149,3.28705814 C58.2498572,3.37398799 58.3300662,3.48230907 58.3837907,3.60413953 C58.4393061,3.73089466 58.4673287,3.86797585 58.4660116,4.00634884 L58.4660116,5.85603488 L57.820093,5.85603488 L57.802593,5.59765116 Z M57.802593,4.61125581 C57.7321279,4.60737984 57.6636473,4.60345736 57.5971512,4.59948837 C57.5422054,4.59567442 57.4844535,4.59274419 57.4238953,4.59069767 C57.3631279,4.58875194 57.3112403,4.58775969 57.2682326,4.58772093 C57.1005717,4.57055339 56.9326565,4.61778862 56.7985349,4.71984884 C56.7131899,4.79730908 56.6642293,4.90700214 56.6635581,5.02225581 C56.6586864,5.12920235 56.7056596,5.23194093 56.7897326,5.29822093 C56.8993856,5.37220643 57.0306541,5.40734564 57.1626047,5.39803488 C57.3223128,5.3977583 57.477332,5.34402758 57.6029535,5.24540698 C57.6604968,5.19976792 57.7092594,5.14404324 57.7468605,5.08095349 C57.7833186,5.02075341 57.8025896,4.9517165 57.8025814,4.88133721 L57.802593,4.61125581 Z" id="Shape"></path>
                <path d="M59.1707791,1.93965116 L59.8636395,1.93965116 L59.8636395,3.29012791 C59.9442537,3.22266162 60.0355257,3.16907023 60.1337209,3.13154651 C60.2863677,3.06913041 60.4503292,3.03915039 60.615186,3.04351163 C60.7984808,3.04005099 60.9801722,3.07821812 61.1465814,3.15513953 C61.2977265,3.22691216 61.4326161,3.32880541 61.5429767,3.45456977 C61.6553966,3.58496839 61.740277,3.73676041 61.7925116,3.90081395 C61.84992,4.07712431 61.8786844,4.26149984 61.8777093,4.4469186 C61.8790885,4.64680282 61.8421797,4.84510218 61.7689767,5.03110465 C61.6990587,5.20936908 61.5931185,5.37129376 61.4577791,5.50675581 C61.3171502,5.64553777 61.1505604,5.75525823 60.9675233,5.82965116 C60.7624332,5.91241329 60.5428671,5.95333929 60.3217326,5.95002326 C60.1001433,5.95157924 59.8789138,5.93192374 59.6610698,5.89132558 C59.4950595,5.86132138 59.3312645,5.82014246 59.1708023,5.76806977 L59.1707791,1.93965116 Z M59.8636395,5.29232558 C59.9189513,5.31210562 59.9759395,5.32684012 60.033907,5.33634884 C60.125421,5.34815355 60.2176911,5.35308208 60.3099419,5.35109302 C60.4371224,5.35389939 60.5633757,5.32883209 60.6798372,5.27765116 C60.7822907,5.23110642 60.8741868,5.16417541 60.9499186,5.08094186 C61.024471,4.99839063 61.0813956,4.90149575 61.1172093,4.79618605 C61.1542781,4.68951101 61.1731458,4.57736225 61.1730233,4.46443023 C61.1733177,4.3614528 61.1605015,4.25885678 61.1348837,4.15911628 C61.1111788,4.06535476 61.0703712,3.97677399 61.0145116,3.89782558 C60.9600006,3.82184807 60.8886211,3.75953928 60.8059767,3.7157907 C60.7123154,3.66860236 60.608408,3.64539332 60.5035698,3.64824419 C60.3288144,3.63529293 60.156244,3.69352932 60.0250698,3.80972093 C59.9128629,3.92918322 59.8545043,4.08940353 59.863593,4.25304651 L59.8636395,5.29232558 Z" id="Shape"></path>
                <rect id="Rectangle-path" x="48.441314" y="1.93965116" width="1" height="1"></rect>
                <path d="M25.5207442,19.9155814 L23.9209884,17.6339651 C23.7942844,17.4532329 23.5874309,17.3456142 23.3667093,17.345593 L20.9006977,17.345593 L20.9006977,9.60438372 C20.9007008,9.42483833 20.8293796,9.25264542 20.702424,9.12568547 C20.5754684,8.99872552 20.403278,8.92739843 20.2237326,8.92739535 L17.9847558,8.92739535 L17.9847558,18.8007907 L14.6446279,14.0368372 L17.9847558,8.92738372 L15.1623837,8.92738372 C14.9338662,8.92738395 14.720769,9.04266275 14.5957209,9.23393023 L7.61339535,19.9155814 L10.4354884,19.9155814 C10.6681667,19.9155745 10.8845369,19.7960757 11.0084535,19.5991395 L12.887593,16.7246047 L15.1255814,19.9155814 L18.7663837,19.9155814 L25.5207442,19.9155814 Z" id="Shape"></path>
                <polygon id="Shape" points="11.0604651 8.9255814 7.41860465 8.9255814 10.8953488 13.8825581 12.6523256 11.194186"></polygon>
                <path d="M30.3906628,5.40817442 C30.3875808,2.77101521 28.2505197,0.633938464 25.6133605,0.630837209 L8.46356977,0.631453488 L10.752314,2.91953488 L25.6133605,2.91953488 C26.9871394,2.92109211 28.1004063,4.03439543 28.1019186,5.40817442 L28.1019186,25.3377907 L7.33037209,25.3377907 C5.95659579,25.3362399 4.84332223,24.2229507 4.8417907,22.8491744 L4.8417907,4.18019767 L5.58074419,4.91930233 C5.77898859,5.11758495 6.10042915,5.11764221 6.29874419,4.91943023 L7.24773256,3.97088372 C7.34298884,3.87568175 7.39651652,3.74653321 7.39653614,3.61185889 C7.39655577,3.47718457 7.34306573,3.34802043 7.24783721,3.2527907 L4.19367442,0.198290698 C4.06671151,0.0713226726 3.89450978,-7.65102566e-06 3.71495349,-7.65102566e-06 C3.5353972,-7.65102566e-06 3.36319547,0.0713226726 3.23623256,0.198290698 L0.148697674,3.28617442 C-0.0495702174,3.48445015 -0.0495702174,3.80591031 0.148697674,4.00418605 L1.09713953,4.95260465 C1.2954166,5.15085837 1.61686247,5.15085837 1.81513953,4.95260465 L2.55306977,4.21481395 L2.55306977,22.8491744 C2.55613898,25.4863389 4.6932076,27.6234232 7.33037209,27.6265116 L30.3906628,27.6265116 L30.3906628,5.40817442 Z" id="Shape"></path>
            </g>
        </g>
    </g>
</svg>