<?xml version="1.0" encoding="UTF-8"?>
<svg width="90px" height="24px" viewBox="0 0 90 24" version="1.1" xmlns="http://www.w3.org/2000/svg" xmlns:xlink="http://www.w3.org/1999/xlink">
    <!-- Generator: Sketch 50.2 (55047) - http://www.bohemiancoding.com/sketch -->
    <title>xld-2color-mark-115x32@1,5x</title>
    <desc>Created with Sketch.</desc>
    <defs></defs>
    <g id="xld-2color-mark-115x32" stroke="none" stroke-width="1" fill="none" fill-rule="evenodd">
        <g transform="translate(3.000000, 0.000000)" fill-rule="nonzero">
            <path d="M53.90951,4.35949 C53.9904189,4.4381323 54.0855409,4.50067598 54.18981,4.54379 C54.3121701,4.59446996 54.4436612,4.61939155 54.57608,4.617 C54.6810931,4.62099959 54.7858377,4.60383236 54.88408,4.56652 C54.9550229,4.54226019 55.0020476,4.47480516 55.00027,4.39985 C55.0037274,4.32495543 54.961919,4.25529579 54.8942,4.22312 C54.8365438,4.18998431 54.775604,4.16292265 54.71236,4.14237 C54.6095342,4.10840975 54.5050295,4.07976189 54.39926,4.05654 C54.3135654,4.03473596 54.2292764,4.00773944 54.14686,3.9757 C54.0587812,3.9418289 53.9762311,3.89504353 53.90192,3.83688 C53.8267499,3.77868717 53.7633533,3.70670758 53.71512,3.62479 C53.6643177,3.53480061 53.6389974,3.43266884 53.64188,3.32937 C53.6400528,3.21816493 53.6698153,3.10872372 53.72771,3.01376 C53.78506,2.9210947 53.8617024,2.84187379 53.95242,2.78149 C54.0486617,2.71750514 54.1543041,2.6689402 54.26553,2.63755 C54.3795298,2.60424022 54.4976736,2.58724807 54.61644,2.58708 C54.7962692,2.58336626 54.9757009,2.60547488 55.14925,2.65273 C55.2919055,2.69461675 55.4260803,2.76127255 55.54564,2.84965 L55.23753,3.26877 C55.1596953,3.21449145 55.0747709,3.17116619 54.98514,3.14001 C54.8666423,3.09899547 54.7418082,3.07932742 54.61644,3.08192 C54.5138418,3.07258736 54.4108266,3.09460748 54.32101,3.14507 C54.2695753,3.1795493 54.2384251,3.23715174 54.23773,3.29907 C54.23773,3.37317 54.2840233,3.43124667 54.37661,3.4733 C54.5163361,3.53043541 54.6608026,3.57521018 54.80835,3.60711 C54.919697,3.63101438 55.0286866,3.66481532 55.13402,3.70811 C55.2241489,3.744935 55.3077282,3.79609564 55.38152,3.85961 C55.4494264,3.91880903 55.5036751,3.99204134 55.54052,4.07425 C55.5797035,4.16767566 55.5986527,4.26834173 55.59612,4.36962 C55.5975579,4.47851889 55.5696329,4.58579415 55.51528,4.68017 C55.460492,4.77382841 55.3854672,4.85406007 55.29569,4.915 C55.196767,4.98191499 55.0875897,5.0322427 54.97246,5.064 C54.8451286,5.09992185 54.7133792,5.11776313 54.58108,5.117 C54.3769675,5.11986854 54.1738327,5.08829586 53.98022,5.02361 C53.8158126,4.97044644 53.6679602,4.87564352 53.55104,4.74842 L53.90951,4.35949 Z" id="Shape" fill="#778798"></path>
            <polygon id="Shape" fill="#778798" points="33.98085 3.29398 32.90536 1.66802 33.67289 1.66802 34.37482 2.76884 35.05136 1.66802 35.74317 1.66802 34.70802 3.27886 35.86436 5.03613 35.09683 5.03613 34.31918 3.80906 33.55166 5.03613 32.85985 5.03613"></polygon>
            <path d="M38.23469,4.69272 L38.15141,4.77606 C38.0919221,4.83193216 38.0257851,4.88027206 37.95449,4.91999 C37.8507529,4.97803113 37.7406027,5.02377995 37.62627,5.05631 C37.4709996,5.09965615 37.3102261,5.12006867 37.14905,5.1169 C36.9727418,5.11918536 36.7977207,5.08659746 36.63405,5.02101 C36.3311304,4.90100972 36.0946495,4.65624167 35.98515,4.34937 C35.9244842,4.18102698 35.8945456,4.00315683 35.89676,3.82423 C35.8952069,3.65766436 35.9251982,3.49231013 35.98515,3.3369 C36.0412094,3.19152163 36.1252657,3.0585638 36.23255,2.94557 C36.3399321,2.83357646 36.4687114,2.74428791 36.61125,2.683 C36.7652698,2.61751209 36.9312401,2.58481798 37.09859,2.587 C37.2881424,2.58123416 37.4762241,2.6219631 37.64641,2.70563 C37.7896634,2.77914459 37.9134325,2.88559609 38.00755,3.01624 C38.0998714,3.14733933 38.1666757,3.2946536 38.20447,3.45048 C38.2448747,3.61231936 38.265224,3.77851326 38.26506,3.94532 L38.26506,4.03122 L36.4976,4.03122 C36.4964107,4.11399633 36.5164293,4.19569932 36.55575,4.26855 C36.5938004,4.33850486 36.6452603,4.40027779 36.70719,4.45034 C36.7704263,4.50137551 36.8422716,4.54070332 36.91934,4.56647 C36.9948101,4.59279723 37.0741207,4.6064386 37.15405,4.60684 C37.3333711,4.61002937 37.5111209,4.57292383 37.67419,4.49826 C37.7274311,4.47427523 37.777482,4.44376097 37.82319,4.40742 C37.86189,4.37542 37.8913567,4.34932667 37.91159,4.32914 L38.23469,4.69272 Z M37.65407,3.60202 C37.6536909,3.53975166 37.6416992,3.47810045 37.61871,3.42023 C37.5949167,3.35945992 37.5597862,3.30376771 37.51519,3.25612 C37.4657407,3.20454774 37.4065109,3.16334557 37.34096,3.13492 C37.2645223,3.10178093 37.1818686,3.08541319 37.09857,3.08692 C37.0095372,3.08530528 36.9210905,3.10162952 36.8385,3.13492 C36.7684457,3.16329069 36.7042477,3.20438282 36.64915,3.25612 C36.6001633,3.30278756 36.5607032,3.35852209 36.53296,3.42023 C36.5068285,3.47729947 36.4930737,3.53925413 36.4926,3.60202 L37.65407,3.60202 Z" id="Shape" fill="#778798"></path>
            <path d="M38.81818,1.66802 L39.41404,1.66802 L39.41404,2.82944 C39.4833682,2.771419 39.5618621,2.7253304 39.64631,2.69306 C39.7775832,2.63938585 39.9185875,2.61360971 40.06036,2.61737 C40.2179934,2.61439489 40.3742478,2.64721858 40.51736,2.71337 C40.6473433,2.77509688 40.7633479,2.86272472 40.85826,2.97088 C40.9549379,3.08302337 41.0279317,3.21356454 41.07285,3.35465 C41.1222238,3.50627656 41.1469645,3.66483939 41.14613,3.8243 C41.1473103,3.99620314 41.1155689,4.16674276 41.05262,4.32671 C40.9924844,4.48001424 40.9013766,4.61926828 40.78499,4.73577 C40.6640323,4.85508394 40.5207636,4.94941163 40.36336,5.01337 C40.1869805,5.08453734 39.9981546,5.11973012 39.80798,5.11688 C39.6174136,5.1182212 39.4271562,5.10132082 39.23981,5.06641 C39.0970419,5.04060282 38.9561785,5.005189 38.81818,4.96041 L38.81818,1.66802 Z M39.41404,4.55137 C39.4616085,4.56837963 39.5106182,4.58105127 39.56047,4.58923 C39.6391724,4.59937744 39.7185246,4.60361263 39.79786,4.6019 C39.9072347,4.60431857 40.0158129,4.58276403 40.11597,4.53875 C40.204082,4.49872052 40.2831131,4.44115614 40.34824,4.36957 C40.4123602,4.298578 40.461319,4.215248 40.49212,4.12468 C40.5239938,4.03294156 40.5402199,3.93649782 40.54012,3.83938 C40.5403745,3.75081933 40.5293526,3.66258659 40.50732,3.57681 C40.4869443,3.4961683 40.4518489,3.4199837 40.4038,3.35209 C40.3569205,3.28674934 40.2955342,3.23316378 40.22446,3.19554 C40.1439123,3.15495486 40.0545512,3.1349949 39.96439,3.13745 C39.8141004,3.12631192 39.6656898,3.17639522 39.55288,3.27632 C39.4563821,3.37905757 39.4061937,3.51684704 39.41401,3.65758 L39.41404,4.55137 Z" id="Shape" fill="#778798"></path>
            <polygon id="Shape" fill="#778798" points="41.67993 2.66782 42.27579 2.66782 42.27579 5.03613 41.67993 5.03613"></polygon>
            <path d="M44.36436,4.81392 C44.2832925,4.90380385 44.1832559,4.97454034 44.07149,5.02101 C43.933439,5.08298119 43.7834974,5.11398664 43.63219,5.11185 C43.5336569,5.11172834 43.4357321,5.09640821 43.34187,5.06643 C43.2465985,5.03652659 43.1575958,4.98945971 43.07925,4.92755 C42.9981802,4.86293364 42.9326064,4.78098594 42.88734,4.68772 C42.836449,4.58054469 42.8113919,4.46293142 42.81418,4.34432 C42.8120237,4.21983046 42.8379027,4.09645079 42.8899,3.98332 C42.939042,3.87899194 43.0115898,3.78740718 43.1019,3.71569 C43.1994724,3.63996447 43.3110053,3.58419973 43.43013,3.55158 C43.5682017,3.5131744 43.7110045,3.49445631 43.85431,3.49598 C43.90145,3.49598 43.9536333,3.49683333 44.01086,3.49854 C44.0680867,3.50024667 44.1236433,3.50276667 44.17753,3.5061 C44.23813,3.50949333 44.3003967,3.51286667 44.36433,3.51622 L44.36433,3.46065 C44.3679319,3.34996678 44.3146004,3.2451491 44.22301,3.1829 C44.1138054,3.11126262 43.9847775,3.07591733 43.85431,3.0819 C43.7166129,3.07662331 43.5792513,3.09894456 43.45031,3.14755 C43.3573019,3.18710664 43.2677778,3.23439928 43.18268,3.28893 L42.91005,2.88493 C42.9570767,2.85129667 43.01093,2.81679333 43.07161,2.78142 C43.1391402,2.74290219 43.2101139,2.71076316 43.28361,2.68542 C43.3749404,2.65417238 43.4686958,2.63052197 43.56392,2.61471 C43.6866208,2.59493824 43.8107833,2.585658 43.93506,2.58697 C44.0747713,2.58515286 44.2138201,2.60647091 44.34657,2.65006 C44.4621815,2.68811476 44.5693617,2.74812558 44.66223,2.8268 C44.7489702,2.90155691 44.8179505,2.99471376 44.86415,3.09949 C44.9118964,3.20849875 44.9359992,3.32638854 44.93487,3.44539 L44.93487,5.03613 L44.37937,5.03613 L44.36436,4.81392 Z M44.36436,3.96561 C44.30376,3.96227667 44.2448667,3.95890333 44.18768,3.95549 C44.1404333,3.95221 44.0907667,3.94969 44.03868,3.94793 C43.98642,3.94626333 43.9417967,3.94541 43.90481,3.94537 C43.7606004,3.93059314 43.6161689,3.97121987 43.50081,4.05901 C43.4274133,4.12562581 43.3853072,4.21996184 43.38473,4.31908 C43.3805477,4.4110548 43.4209476,4.49940814 43.49325,4.55641 C43.5875528,4.620034 43.7004437,4.65025019 43.81392,4.64224 C43.9512693,4.64201346 44.0845884,4.59580768 44.19262,4.51099 C44.2421053,4.47173437 44.2840406,4.42380827 44.31638,4.36955 C44.3477354,4.31777854 44.3643086,4.2584064 44.3643,4.19788 L44.36436,3.96561 Z" id="Shape" fill="#778798"></path>
            <polygon id="Shape" fill="#778798" points="45.54098 1.66802 46.17719 1.66802 46.17719 4.47057 47.83856 4.47057 47.83856 5.03613 45.54098 5.03613"></polygon>
            <path d="M49.71053,4.81392 C49.6294646,4.90380611 49.5294273,4.97454298 49.41766,5.02101 C49.2796093,5.08298212 49.1296675,5.11398761 48.97836,5.11185 C48.8798302,5.11172827 48.7819087,5.09640813 48.68805,5.06643 C48.5927754,5.03652666 48.5037694,4.98945983 48.42542,4.92755 C48.3443529,4.86293098 48.2787795,4.78098394 48.23351,4.68772 C48.1826301,4.58055902 48.1575767,4.46296382 48.16036,4.34437 C48.1582037,4.21988046 48.1840827,4.09650079 48.23608,3.98337 C48.285222,3.87904194 48.3577698,3.78745718 48.44808,3.71574 C48.5456537,3.64001647 48.6571862,3.58425194 48.77631,3.55163 C48.9143817,3.5132244 49.0571845,3.49450631 49.20049,3.49603 C49.2476367,3.49603 49.2998233,3.49688333 49.35705,3.49859 C49.4142767,3.50029667 49.4698333,3.50281667 49.52372,3.50615 C49.5843067,3.50954333 49.64657,3.51291667 49.71051,3.51627 L49.71051,3.46065 C49.7141119,3.34996678 49.6607804,3.2451491 49.56919,3.1829 C49.4599859,3.11126136 49.3309577,3.07591596 49.20049,3.0819 C49.0628128,3.07663 48.9254722,3.09895116 48.79655,3.14755 C48.7035399,3.18710239 48.6140154,3.23439521 48.52892,3.28893 L48.25629,2.88493 C48.3033167,2.85129667 48.3571667,2.81679333 48.41784,2.78142 C48.4853697,2.74290116 48.5563435,2.71076208 48.62984,2.68542 C48.7211666,2.65417107 48.8149188,2.63052063 48.91014,2.61471 C49.0328442,2.59493825 49.15701,2.58565802 49.28129,2.58697 C49.420998,2.5851536 49.5600434,2.60647164 49.69279,2.65006 C49.8084046,2.68811474 49.915588,2.7481255 50.00846,2.8268 C50.0951943,2.90156003 50.1641707,2.99471626 50.21037,3.09949 C50.258121,3.20849728 50.282224,3.32638807 50.28109,3.44539 L50.28109,5.03613 L49.72559,5.03613 L49.71053,4.81392 Z M49.71053,3.96561 C49.64993,3.96227667 49.5910367,3.95890333 49.53385,3.95549 C49.4865967,3.95221 49.43693,3.94969 49.38485,3.94793 C49.33259,3.94626333 49.2879667,3.94541 49.25098,3.94537 C49.1067903,3.93060875 48.9623832,3.97123466 48.84704,4.05901 C48.7736433,4.12562581 48.7315372,4.21996184 48.73096,4.31908 C48.7267727,4.41105578 48.7671735,4.49941129 48.83948,4.55641 C48.9337784,4.62003539 49.0466667,4.6502518 49.16014,4.64224 C49.2974927,4.64201569 49.4308157,4.59580979 49.53885,4.51099 C49.5883349,4.47173687 49.6302674,4.42381018 49.6626,4.36955 C49.6939554,4.31777854 49.7105286,4.2584064 49.71052,4.19788 L49.71053,3.96561 Z" id="Shape" fill="#778798"></path>
            <path d="M50.88718,1.66802 L51.48304,1.66802 L51.48304,2.82944 C51.5523833,2.77141424 51.6308945,2.72532544 51.71536,2.69306 C51.8466176,2.63939212 51.9876042,2.61361609 52.12936,2.61737 C52.2869932,2.61439664 52.4432472,2.64722024 52.58636,2.71337 C52.7163433,2.77509688 52.8323479,2.86272472 52.92726,2.97088 C53.0239336,3.08302639 53.0969269,3.21356664 53.14185,3.35465 C53.1912206,3.50627707 53.2159579,3.66483992 53.21512,3.8243 C53.2163052,3.99620358 53.1845637,4.16674413 53.12161,4.32671 C53.0614818,4.48001807 52.9703731,4.61927355 52.85398,4.73577 C52.7330259,4.85508366 52.5897606,4.94941141 52.43236,5.01337 C52.2559805,5.08453734 52.0671546,5.11973012 51.87698,5.11688 C51.6864136,5.1182212 51.4961562,5.10132082 51.30881,5.06641 C51.1660417,5.04060407 51.0251781,5.00519023 50.88718,4.96041 L50.88718,1.66802 Z M51.48304,4.55137 C51.5306081,4.56838084 51.579618,4.5810525 51.62947,4.58923 C51.7081724,4.59937744 51.7875246,4.60361263 51.86686,4.6019 C51.9762346,4.60431759 52.0848126,4.58276309 52.18497,4.53875 C52.273082,4.49872052 52.3521131,4.44115614 52.41724,4.36957 C52.4813566,4.29857533 52.5303149,4.21524612 52.56112,4.12468 C52.5929938,4.03294156 52.6092199,3.93649782 52.60912,3.83938 C52.6093745,3.75081933 52.5983526,3.66258659 52.57632,3.57681 C52.5559402,3.49616976 52.5208451,3.41998589 52.4728,3.35209 C52.4259205,3.28674934 52.3645342,3.23316378 52.29346,3.19554 C52.2129112,3.15495803 52.1235509,3.13499825 52.03339,3.13745 C51.8831004,3.12631192 51.7346898,3.17639522 51.62188,3.27632 C51.5253821,3.37905757 51.4751937,3.51684704 51.48301,3.65758 L51.48304,4.55137 Z" id="Shape" fill="#778798"></path>
            <rect id="Rectangle-path" fill="#778798" x="41.65981" y="1.66802" width="1" height="1"></rect>
            <path d="M0.94353,4.25924 L0.12789,3.4436 C-0.0426215309,3.27307944 -0.0426215309,2.99662056 0.12789,2.8261 L2.78317,0.17055 C2.8923568,0.0613550479 3.04045078,9.27757607e-06 3.19487,9.27757607e-06 C3.34928922,9.27757607e-06 3.4973832,0.0613550479 3.60657,0.17055 L6.23312,2.79737 C6.31501039,2.87927488 6.36100725,2.99035789 6.36099037,3.10617864 C6.36097349,3.22199939 6.31494426,3.33306899 6.23303,3.41495 L5.41689,4.23068 C5.24634869,4.40114278 4.96991608,4.40109801 4.79943,4.23058 L3.19485,2.62573 L1.56101,4.25927 C1.39048573,4.42976544 1.1140377,4.42975201 0.94353,4.25924 Z" id="Shape" fill="#06B052"></path>
            <path d="M24.1678,21.79045 L6.30409,21.79045 C5.12264467,21.7891053 4.16523709,20.8316754 4.16392,19.65023 L4.16392,2.31857 L2.19563,2.31857 L2.19563,19.65023 C2.198264,21.918186 4.03613407,23.7560784 6.30409,23.75874 L26.13586,23.75874 L24.1678,21.79045 Z" id="Shape" fill="#06B052"></path>
            <polygon id="Shape" fill="#059949" points="16.139 17.127 12.587 12.062 11.076 14.373 13.008 17.127"></polygon>
            <path d="M13.0396,7.67755 C12.8430725,7.67755057 12.6598077,7.77669476 12.55227,7.94119 L6.54748,17.12737 L8.97448,17.12737 C9.17457978,17.1273606 9.36065364,17.0245921 9.46722,16.85523 L15.46685,7.67753 L13.0396,7.67755 Z" id="Shape" fill="#06B052"></path>
            <path d="M17.97454,14.91724 L17.97454,8.25974 C17.9745345,7.93820763 17.7138824,7.67755552 17.39235,7.67755 L15.46684,7.67755 L15.46684,17.12728 L17.97454,14.91724 Z" id="Shape" fill="#06B052"></path>
            <path d="M20.57198,15.16518 C20.4630146,15.0097503 20.2851206,14.9171982 20.0953,14.91718 L17.97454,14.91718 L15.46684,17.12723 L15.46684,17.12737 L21.94776,17.12737 L20.57198,15.16518 Z" id="Shape" fill="#059949"></path>
            <polygon id="Shape" fill="#059949" points="9.512 7.676 6.38 7.676 9.369 11.939 10.881 9.627"></polygon>
            <path d="M22.02741,0.54252 L7.27865,0.54305 L9.24696,2.5108 L22.02741,2.5108 C23.208856,2.51213921 24.1662639,3.46957397 24.16757,4.65102 L24.16757,21.79046 L26.13587,23.75873 L26.13587,4.65102 C26.133225,2.38307022 24.2953598,0.54518709 22.02741,0.54252 Z" id="Shape" fill="#059949"></path>
            <path d="M32.86025,7.67175 L36.38963,7.67175 C37.0755154,7.66456532 37.75861,7.76013169 38.41619,7.95527 C39.0004139,8.12820955 39.5414005,8.42288824 40.00356,8.81992 C40.4613069,9.22718332 40.8158333,9.73729519 41.03798,10.3083 C41.2976832,10.9911969 41.4228946,11.717867 41.40672,12.4483 C41.4224129,13.1494169 41.2946486,13.846344 41.03127,14.4963 C40.796272,15.0558195 40.4377,15.5549041 39.98242,15.95616 C39.5179959,16.3569853 38.9749109,16.6563001 38.38801,16.8349 C37.735907,17.0342362 37.0570559,17.132232 36.3752,17.12546 L32.86025,17.12546 L32.86025,7.67175 Z M36.21918,15.53812 C37.1102677,15.600092 37.9916615,15.3215243 38.68528,14.7587 C39.2851776,14.1566838 39.5953309,13.324598 39.53584,12.4768 C39.5830272,11.6208559 39.3015885,10.7791976 38.74903,10.1238 C38.0673245,9.48854762 37.1470732,9.17414495 36.21918,9.25948 L34.64624,9.25948 L34.64624,15.53815 L36.21918,15.53812 Z" id="Shape" fill="#4B5561"></path>
            <polygon id="Shape" fill="#4B5561" points="42.87519 7.67175 48.99819 7.67175 48.99819 9.24503 44.66119 9.24503 44.66119 11.47022 47.85001 11.47022 47.85001 13.05759 44.66119 13.05759 44.66119 15.52403 49.32397 15.52403 49.32397 17.12548 42.87519 17.12548"></polygon>
            <path d="M51.18083,7.67175 L54.21397,7.67175 C54.7708085,7.6511702 55.3252011,7.75537998 55.83656,7.97675 C56.2199722,8.15190493 56.560862,8.40808663 56.83575,8.72765 C57.0714459,9.0070066 57.2452643,9.333141 57.34575,9.68456 C57.4351095,9.98854087 57.4829629,10.3032072 57.48801,10.62001 C57.5008499,11.0894622 57.403641,11.555404 57.20416,11.98056 C57.0295527,12.3402753 56.778015,12.657216 56.46735,12.90895 C56.1644139,13.1500088 55.8178766,13.3304531 55.44668,13.44042 C55.0839046,13.5515621 54.7067851,13.6088758 54.32737,13.61053 L52.89569,13.61053 L52.89569,17.12553 L51.18083,17.12553 L51.18083,7.67175 Z M54.18511,12.10806 C54.5854303,12.128126 54.9767582,11.9848884 55.26953,11.71113 C55.5424549,11.437683 55.6888884,11.0627481 55.67353,10.67671 C55.6901797,10.2758224 55.5392032,9.88609604 55.2568283,9.60104792 C54.9744533,9.3159998 54.5861667,9.16135811 54.18514,9.17423 L52.89569,9.17423 L52.89569,12.10806 L54.18511,12.10806 Z" id="Shape" fill="#4B5561"></path>
            <polygon id="Shape" fill="#4B5561" points="59.16553 7.67175 60.95119 7.67175 60.95119 15.53812 65.6143 15.53812 65.6143 17.12548 59.16553 17.12548"></polygon>
            <path d="M70.36529,17.38048 C69.7026699,17.3860134 69.0461735,17.2533443 68.4377,16.99094 C67.8534898,16.7386393 67.3239304,16.3751161 66.87852,15.92062 C66.4314389,15.4627687 66.0755001,14.9240772 65.82967,14.33325 C65.3196837,13.0890275 65.3196837,11.6941125 65.82967,10.44989 C66.0738309,9.86195194 66.4273561,9.32569364 66.87148,8.86958 C67.7922724,7.93361279 69.0523381,7.40964362 70.36529,7.41676 C71.0279275,7.4114037 71.6844106,7.5441859 72.29288,7.80664 C74.7880969,8.91512708 75.9449466,11.8105276 74.90057,14.33325 C74.6548693,14.9241461 74.2989152,15.4628608 73.85172,15.92062 C73.4063736,16.3750366 72.8769416,16.7385516 72.29288,16.99094 C71.6843859,17.2532785 71.0279035,17.3859448 70.36529,17.38048 Z M70.36529,15.69414 C71.218546,15.7074297 72.0336801,15.3412824 72.59049,14.69461 C72.8595659,14.3797792 73.0663398,14.0166669 73.1998,13.62461 C73.4834289,12.795403 73.4834289,11.895447 73.1998,11.06624 C73.0659873,10.6785966 72.859157,10.3201746 72.59049,10.01035 C72.3232869,9.70640753 71.9947463,9.46249681 71.62649,9.29467 C70.8193973,8.9452766 69.9037327,8.9452766 69.09664,9.29467 C68.7312254,9.46368548 68.4053435,9.707499 68.14006,10.01035 C67.871287,10.3201556 67.6643449,10.678577 67.53042,11.06624 C67.247231,11.8955201 67.247231,12.7953299 67.53042,13.62461 C67.6639921,14.0166866 67.8708776,14.3797984 68.14006,14.69461 C68.6943024,15.3447145 69.5111437,15.7116286 70.36526,15.69414 L70.36529,15.69414 Z" id="Shape" fill="#4B5561"></path>
            <polygon id="Shape" fill="#4B5561" points="78.4825 12.9727 75.20845 7.6717 77.16456 7.6717 79.43203 11.44199 81.69984 7.6717 83.57072 7.6717 80.29672 12.9727 80.29672 17.12548 78.4825 17.12548"></polygon>
        </g>
    </g>
</svg>