<svg id="Layer_2_copy" data-name="Layer 2 copy" xmlns="http://www.w3.org/2000/svg" viewBox="0 0 83.57073 23.75873"><defs><style>.cls-1{fill:#778798;}.cls-2{fill:#06b052;}.cls-3{fill:#059949;}.cls-4{fill:#4b5561;}</style></defs><title>xld-2color-mark-115x32</title><path class="cls-1" d="M69.62415,8.48012a.89018.89018,0,0,0,.2803.1843.96394.96394,0,0,0,.38627.07321.78349.78349,0,0,0,.308-.05048.17184.17184,0,0,0,.11619-.16667.18616.18616,0,0,0-.10607-.17673A.961.961,0,0,0,70.427,8.263a3.15739,3.15739,0,0,0-.3131-.08583,2.18052,2.18052,0,0,1-.2524-.08084.9515.9515,0,0,1-.24494-.13882.74849.74849,0,0,1-.1868-.21209A.56866.56866,0,0,1,69.35652,7.45a.58776.58776,0,0,1,.08583-.31561.75858.75858,0,0,1,.22471-.23227,1.11019,1.11019,0,0,1,.31311-.14394,1.25752,1.25752,0,0,1,.35091-.05047,1.88027,1.88027,0,0,1,.53281.06565,1.26766,1.26766,0,0,1,.39639.19692l-.30811.41912a1.03578,1.03578,0,0,0-.25239-.12876,1.06022,1.06022,0,0,0-.3687-.05809.509.509,0,0,0-.29543.06315.18794.18794,0,0,0-.08328.154q0,.11115.13888.17423a2.58262,2.58262,0,0,0,.43174.13381,1.91274,1.91274,0,0,1,.32567.101.90287.90287,0,0,1,.2475.1515.62252.62252,0,0,1,.159.21464.71732.71732,0,0,1,.0556.29537.60622.60622,0,0,1-.08084.31055.72824.72824,0,0,1-.21959.23483,1.098,1.098,0,0,1-.32323.149,1.41148,1.41148,0,0,1-.39138.053,1.81565,1.81565,0,0,1-.60086-.09339,1.00132,1.00132,0,0,1-.42918-.27519Z" transform="translate(-15.71464 -4.12063)"/><path class="cls-1" d="M49.69549,7.41461,48.62,5.78865h.76753l.70193,1.10082L50.766,5.78865h.69181L50.42266,7.39949,51.579,9.15676h-.76753l-.77765-1.22707L49.2663,9.15676h-.69181Z" transform="translate(-15.71464 -4.12063)"/><path class="cls-1" d="M53.94933,8.81335l-.08328.08334a.99485.99485,0,0,1-.19692.14393,1.52936,1.52936,0,0,1-.32822.13632,1.65391,1.65391,0,0,1-.47722.06059,1.33789,1.33789,0,0,1-.515-.09589,1.1314,1.1314,0,0,1-.6489-.67164,1.49441,1.49441,0,0,1-.08839-.52514,1.31983,1.31983,0,0,1,.08839-.48733,1.19032,1.19032,0,0,1,.2474-.39133,1.1588,1.1588,0,0,1,.3787-.26257,1.20531,1.20531,0,0,1,.48734-.096,1.16164,1.16164,0,0,1,.54782.11863,1.01785,1.01785,0,0,1,.36114.31061,1.27694,1.27694,0,0,1,.19692.43424,2.03464,2.03464,0,0,1,.06059.49484v.0859H52.21224a.485.485,0,0,0,.05815.23733.60624.60624,0,0,0,.15144.18179.68225.68225,0,0,0,.21215.11613.72362.72362,0,0,0,.23471.04037,1.19824,1.19824,0,0,0,.52014-.10858.70416.70416,0,0,0,.149-.09084q.05805-.048.0884-.07828Zm-.58062-1.0907a.50066.50066,0,0,0-.03536-.18179.51484.51484,0,0,0-.10352-.16411.53781.53781,0,0,0-.17423-.1212.58287.58287,0,0,0-.24239-.048.66347.66347,0,0,0-.26007.048.61247.61247,0,0,0-.18935.1212.52267.52267,0,0,0-.11619.16411.44472.44472,0,0,0-.04036.18179Z" transform="translate(-15.71464 -4.12063)"/><path class="cls-1" d="M54.53282,5.78865h.59586V6.95007a.81544.81544,0,0,1,.23227-.13638A1.02241,1.02241,0,0,1,55.775,6.738a1.04231,1.04231,0,0,1,.457.096,1.05655,1.05655,0,0,1,.3409.25751,1.09781,1.09781,0,0,1,.21459.38377,1.49162,1.49162,0,0,1,.07328.46965,1.34678,1.34678,0,0,1-.09351.50241,1.19754,1.19754,0,0,1-.26763.40906A1.2941,1.2941,0,0,1,56.078,9.134a1.42711,1.42711,0,0,1-.55538.10351,2.98678,2.98678,0,0,1-.56817-.05047,3.2243,3.2243,0,0,1-.42163-.106ZM55.12868,8.672a.83767.83767,0,0,0,.14643.03786,1.58834,1.58834,0,0,0,.23739.01267.74951.74951,0,0,0,.31811-.06315.71233.71233,0,0,0,.23227-.16918.7031.7031,0,0,0,.14388-.24489.86658.86658,0,0,0,.048-.2853,1.04336,1.04336,0,0,0-.0328-.26257.67543.67543,0,0,0-.10352-.22472.52034.52034,0,0,0-.17934-.15655.545.545,0,0,0-.26007-.05809.55838.55838,0,0,0-.41151.13887.51516.51516,0,0,0-.13887.38126Z" transform="translate(-15.71464 -4.12063)"/><path class="cls-1" d="M57.39457,6.78845h.59586V9.15676h-.59586Z" transform="translate(-15.71464 -4.12063)"/><path class="cls-1" d="M60.079,8.93455a.81654.81654,0,0,1-.29287.20709,1.03694,1.03694,0,0,1-.4393.09084.95812.95812,0,0,1-.29032-.04542.81933.81933,0,0,1-.26262-.13888.69444.69444,0,0,1-.19191-.23983.759.759,0,0,1-.07316-.3434.83.83,0,0,1,.07572-.361.7497.7497,0,0,1,.212-.26763.94047.94047,0,0,1,.32823-.16411,1.52246,1.52246,0,0,1,.42418-.0556q.07071,0,.15655.00256t.16667.00756q.0909.00509.1868.01012V7.58128a.32312.32312,0,0,0-.14132-.27775.62038.62038,0,0,0-.3687-.101,1.03319,1.03319,0,0,0-.404.06565,1.80642,1.80642,0,0,0-.26763.14138l-.27263-.404q.07054-.05045.16156-.10351a1.251,1.251,0,0,1,.212-.096,1.75294,1.75294,0,0,1,.28031-.07071,2.18778,2.18778,0,0,1,.37114-.02774,1.26629,1.26629,0,0,1,.41151.06309.94585.94585,0,0,1,.31566.17674.77023.77023,0,0,1,.20192.27269.84223.84223,0,0,1,.07072.3459V9.15676h-.5555Zm0-.84831q-.0909-.005-.17668-.01012-.07087-.00492-.149-.00756-.07839-.0025-.13387-.00256a.571.571,0,0,0-.404.11364.354.354,0,0,0-.11608.26007.28569.28569,0,0,0,.10852.23733.50924.50924,0,0,0,.32067.08583.61489.61489,0,0,0,.3787-.13125.52106.52106,0,0,0,.12376-.14144.33129.33129,0,0,0,.04792-.17167Z" transform="translate(-15.71464 -4.12063)"/><path class="cls-1" d="M61.25562,5.78865h.63621V8.5912H63.5532v.56556H61.25562Z" transform="translate(-15.71464 -4.12063)"/><path class="cls-1" d="M65.42517,8.93455a.81645.81645,0,0,1-.29287.20709,1.03691,1.03691,0,0,1-.4393.09084.95806.95806,0,0,1-.29031-.04542.81938.81938,0,0,1-.26263-.13888.69455.69455,0,0,1-.19191-.23983A.759.759,0,0,1,63.875,8.465a.83.83,0,0,1,.07572-.361.7497.7497,0,0,1,.212-.26763.94056.94056,0,0,1,.32823-.16411,1.52246,1.52246,0,0,1,.42418-.0556q.07072,0,.15656.00256t.16667.00756q.09088.00509.18679.01012V7.58128a.32312.32312,0,0,0-.14132-.27775.62036.62036,0,0,0-.3687-.101,1.03314,1.03314,0,0,0-.40394.06565,1.80542,1.80542,0,0,0-.26763.14138l-.27263-.404q.07054-.05045.16155-.10351a1.2508,1.2508,0,0,1,.212-.096,1.75252,1.75252,0,0,1,.2803-.07071,2.1879,2.1879,0,0,1,.37115-.02774,1.26627,1.26627,0,0,1,.4115.06309.9459.9459,0,0,1,.31567.17674.77032.77032,0,0,1,.20191.27269.84207.84207,0,0,1,.07072.3459V9.15676h-.5555Zm0-.84831q-.0909-.005-.17668-.01012-.07088-.00492-.149-.00756-.07839-.0025-.13387-.00256a.571.571,0,0,0-.40394.11364.354.354,0,0,0-.11608.26007.28566.28566,0,0,0,.10852.23733.50919.50919,0,0,0,.32066.08583.61489.61489,0,0,0,.37871-.13125.52085.52085,0,0,0,.12375-.14144.33129.33129,0,0,0,.04792-.17167Z" transform="translate(-15.71464 -4.12063)"/><path class="cls-1" d="M66.60182,5.78865h.59586V6.95007A.81544.81544,0,0,1,67.43,6.81369,1.02239,1.02239,0,0,1,67.844,6.738a1.04236,1.04236,0,0,1,.457.096,1.05655,1.05655,0,0,1,.3409.25751,1.098,1.098,0,0,1,.21459.38377,1.49161,1.49161,0,0,1,.07327.46965,1.34658,1.34658,0,0,1-.09351.50241,1.19725,1.19725,0,0,1-.26763.40906A1.29406,1.29406,0,0,1,68.147,9.134a1.42711,1.42711,0,0,1-.55538.10351,2.98678,2.98678,0,0,1-.56817-.05047,3.22388,3.22388,0,0,1-.42163-.106ZM67.19768,8.672a.83744.83744,0,0,0,.14643.03786,1.58834,1.58834,0,0,0,.23739.01267.74954.74954,0,0,0,.31811-.06315.71233.71233,0,0,0,.23227-.16918.70326.70326,0,0,0,.14388-.24489.86658.86658,0,0,0,.048-.2853,1.04336,1.04336,0,0,0-.0328-.26257.67562.67562,0,0,0-.10352-.22472.52034.52034,0,0,0-.17934-.15655.54508.54508,0,0,0-.26007-.05809.55838.55838,0,0,0-.41151.13887.51516.51516,0,0,0-.13887.38126Z" transform="translate(-15.71464 -4.12063)"/><rect class="cls-1" x="41.65981" y="1.66802" width="0.63622" height="0.62615"/><path class="cls-2" d="M16.65817,8.37987l-.81564-.81564a.43665.43665,0,0,1,0-.6175l2.65528-2.65555a.58221.58221,0,0,1,.8234,0L21.94776,6.918a.43667.43667,0,0,1-.00009.61758l-.81614.81573a.43664.43664,0,0,1-.61746-.0001L18.90949,6.74636,17.27565,8.3799A.43664.43664,0,0,1,16.65817,8.37987Z" transform="translate(-15.71464 -4.12063)"/><path class="cls-2" d="M39.88244,25.91108H22.01873a2.14261,2.14261,0,0,1-2.14017-2.14022V6.4392H17.91027V23.77086a4.11329,4.11329,0,0,0,4.10846,4.10851H41.8505Z" transform="translate(-15.71464 -4.12063)"/><polygon class="cls-3" points="16.139 17.127 12.587 12.062 11.076 14.373 13.008 17.127 16.139 17.127"/><path class="cls-2" d="M28.75424,11.79818a.58223.58223,0,0,0-.48733.26364L22.26212,21.248h2.427a.5822.5822,0,0,0,.49274-.27214l5.99963-9.1777Z" transform="translate(-15.71464 -4.12063)"/><path class="cls-2" d="M33.68918,19.03787v-6.6575a.5822.5822,0,0,0-.58219-.58219H31.18148v9.44973Z" transform="translate(-15.71464 -4.12063)"/><path class="cls-3" d="M36.28662,19.28581a.58222.58222,0,0,0-.47668-.248H33.68918l-2.5077,2.21005V21.248H37.6624Z" transform="translate(-15.71464 -4.12063)"/><polygon class="cls-3" points="9.512 7.676 6.38 7.676 9.369 11.939 10.881 9.627 9.512 7.676"/><path class="cls-3" d="M37.74205,4.66315l-14.74876.00053L24.9616,6.63143H37.74205a2.14259,2.14259,0,0,1,2.14016,2.14022V25.91109l1.9683,1.96827V8.77165A4.1133,4.1133,0,0,0,37.74205,4.66315Z" transform="translate(-15.71464 -4.12063)"/><path class="cls-4" d="M48.57489,11.79238h3.52938a6.87052,6.87052,0,0,1,2.02656.28352,4.31589,4.31589,0,0,1,1.58737.86465,3.87064,3.87064,0,0,1,1.03442,1.48838,5.6674,5.6674,0,0,1,.36874,2.14,5.14652,5.14652,0,0,1-.37545,2.048,4.02184,4.02184,0,0,1-1.04885,1.45986,4.40152,4.40152,0,0,1-1.59441.87874,6.65919,6.65919,0,0,1-2.01281.29056H48.57489Zm3.35893,7.86637a3.52566,3.52566,0,0,0,2.4661-.77942,2.94113,2.94113,0,0,0,.85056-2.2819,3.36325,3.36325,0,0,0-.78681-2.353,3.27141,3.27141,0,0,0-2.52985-.86432H50.36088v6.27867Z" transform="translate(-15.71464 -4.12063)"/><path class="cls-4" d="M58.58983,11.79238h6.123v1.57328h-4.337v2.22519h3.18882v1.58737H60.37583v2.46644h4.66278v1.60145H58.58983Z" transform="translate(-15.71464 -4.12063)"/><path class="cls-4" d="M66.89547,11.79238h3.03314a3.73688,3.73688,0,0,1,1.62259.305,2.91662,2.91662,0,0,1,.99919.7509,2.58674,2.58674,0,0,1,.51.95691,3.51539,3.51539,0,0,1,.14226.93545,3.00937,3.00937,0,0,1-.28385,1.36055,2.7284,2.7284,0,0,1-.73681.92839,3.01426,3.01426,0,0,1-1.02067.53147,3.87885,3.87885,0,0,1-1.11931.17011H68.61033v3.515H66.89547Zm3.00428,4.43631a1.47932,1.47932,0,0,0,1.08442-.39693,1.38628,1.38628,0,0,0,.404-1.03442,1.44333,1.44333,0,0,0-1.48839-1.50248H68.61033v2.93383Z" transform="translate(-15.71464 -4.12063)"/><path class="cls-4" d="M74.88017,11.79238h1.78566v7.86637h4.66311v1.58736H74.88017Z" transform="translate(-15.71464 -4.12063)"/><path class="cls-4" d="M86.07993,21.50111a4.76717,4.76717,0,0,1-1.92759-.38954,4.90715,4.90715,0,0,1-1.55918-1.07032,5.04745,5.04745,0,0,1-1.04885-1.58737,5.11964,5.11964,0,0,1,0-3.88336,5.03122,5.03122,0,0,1,1.04181-1.58031,4.86412,4.86412,0,0,1,3.49381-1.45282,4.76955,4.76955,0,0,1,1.92759.38988,5.03447,5.03447,0,0,1,2.60769,6.52661,5.04146,5.04146,0,0,1-1.04885,1.58737,4.90936,4.90936,0,0,1-1.55884,1.07032A4.76951,4.76951,0,0,1,86.07993,21.50111Zm0-1.68634a2.87728,2.87728,0,0,0,2.2252-.99953,3.26762,3.26762,0,0,0,.60931-1.07,3.9525,3.9525,0,0,0,0-2.55837,3.21094,3.21094,0,0,0-.60931-1.05589,2.86614,2.86614,0,0,0-.964-.71568,3.184,3.184,0,0,0-2.52985,0,2.87762,2.87762,0,0,0-.95658.71568,3.21152,3.21152,0,0,0-.60964,1.05589,3.95831,3.95831,0,0,0,0,2.55837,3.26818,3.26818,0,0,0,.60964,1.07,2.84751,2.84751,0,0,0,2.2252.99953Z" transform="translate(-15.71464 -4.12063)"/><path class="cls-4" d="M94.19714,17.09333l-3.27405-5.301H92.8792l2.26747,3.77029,2.26781-3.77029h1.87088l-3.274,5.301v4.15278H94.19714Z" transform="translate(-15.71464 -4.12063)"/></svg>