<?xml version="1.0" encoding="utf-8"?>
<!-- Generator: Adobe Illustrator 18.1.1, SVG Export Plug-In . SVG Version: 6.00 Build 0)  -->
<!DOCTYPE svg PUBLIC "-//W3C//DTD SVG 1.1//EN" "http://www.w3.org/Graphics/SVG/1.1/DTD/svg11.dtd">
<svg version="1.1" id="Layer_2" xmlns="http://www.w3.org/2000/svg" xmlns:xlink="http://www.w3.org/1999/xlink" x="0px" y="0px"
	 width="584.9px" height="167.2px" viewBox="0 0 584.9 167.2" enable-background="new 0 0 584.9 167.2" xml:space="preserve">
<path fill="#00B200" d="M63.7,0c9.7,7.2,19,14.1,28.7,21.3C85.3,31,78.5,40.2,71.3,50c-2.4-1.7-4.5-3.2-7.2-5.1
	c3.7-5.2,7.2-10.2,10.8-15.3C62.3,24.9,33.5,36,20.6,57.3c-16.3,27.1-9.5,63.2,15.8,81.4c26,18.7,61.7,14.7,82-8.6
	c21-24.2,22.7-62.9-8.5-89.7c1.5-2.1,3-4.2,4.6-6.3c19.1,11,34.2,42.2,26,73.2c-8.9,33.8-40.2,55.3-75.4,51.8
	c-33.3-3.2-60-30.8-62.2-64.8C1.6,74.5,7.5,56.8,21,42c13.5-14.8,30.6-21.8,51.1-24.2c-4.4-3.5-8.8-7-13.6-10.8
	C60.2,4.7,61.8,2.6,63.7,0z"/>
<g>
	<path fill="#00B200" d="M74.5,121.2H64L50.1,98.5l-14,22.7h-9.7l18.4-28.8L27.5,65.6h10.1l12.9,21l12.9-21h9.8L55.7,92.5
		L74.5,121.2z"/>
	<path fill="#00B200" d="M81.9,121.2V65.6H91v47.8h23.5v7.8H81.9z"/>
</g>
<g>
	<path fill="#00B200" d="M242.8,74c0,12.3-3.3,21.7-10,28.2c-6.7,6.5-16.3,9.7-28.8,9.7h-20.6V37.5h22.8c11.6,0,20.6,3.2,27,9.6
		S242.8,62.5,242.8,74z M233.7,74.3c0-9.7-2.4-17-7.3-21.9c-4.9-4.9-12.1-7.4-21.7-7.4h-12.6v59.4h10.5c10.3,0,18.1-2.5,23.3-7.6
		C231.1,91.7,233.7,84.2,233.7,74.3z"/>
	<path fill="#00B200" d="M300.9,111.9h-41.5V37.5h41.5v7.7h-32.8v24h30.8v7.6h-30.8v27.4h32.8V111.9z"/>
	<path fill="#00B200" d="M364.5,59.1c0,7.5-2.6,13.3-7.7,17.4c-5.1,4.1-12.5,6.1-22.1,6.1H326v29.3h-8.6V37.5h19.3
		C355.2,37.5,364.5,44.7,364.5,59.1z M326,75.2h7.8c7.7,0,13.2-1.2,16.6-3.7c3.4-2.5,5.1-6.4,5.1-11.9c0-4.9-1.6-8.6-4.8-11
		c-3.2-2.4-8.2-3.6-15.1-3.6H326V75.2z"/>
	<path fill="#00B200" d="M380.1,111.9V37.5h8.6V104h32.8v7.8H380.1z"/>
	<path fill="#00B200" d="M498.8,74.6c0,11.9-3,21.3-9,28.1c-6,6.8-14.4,10.2-25.1,10.2c-11,0-19.4-3.3-25.4-10s-8.9-16.2-8.9-28.4
		c0-12.1,3-21.5,9-28.2c6-6.7,14.5-10,25.4-10c10.7,0,19,3.4,25,10.2C495.8,53.3,498.8,62.6,498.8,74.6z M439.5,74.6
		c0,10.1,2.1,17.7,6.4,22.9c4.3,5.2,10.5,7.8,18.7,7.8c8.2,0,14.5-2.6,18.7-7.8c4.2-5.2,6.3-12.8,6.3-22.9c0-10-2.1-17.6-6.3-22.8
		c-4.2-5.2-10.4-7.8-18.6-7.8c-8.2,0-14.5,2.6-18.8,7.8C441.6,57,439.5,64.6,439.5,74.6z"/>
	<path fill="#00B200" d="M534.3,74.7l19.8-37.2h9.4L538.7,83v28.9h-8.8V83.4l-24.8-45.9h9.5L534.3,74.7z"/>
</g>
<g>
	<path fill="#00B200" d="M272.8,134.8c2.8,0,5,1,6.6,2.9s2.3,4.6,2.3,8.2s-0.8,6.2-2.4,8.2s-3.7,2.9-6.5,2.9c-1.4,0-2.7-0.3-3.8-0.8
		s-2.1-1.3-2.9-2.4h-0.2l-0.7,2.8h-2.3v-30.4h3.2v7.4c0,1.7-0.1,3.1-0.2,4.5h0.2C267.6,135.9,269.8,134.8,272.8,134.8z M272.3,137.5
		c-2.2,0-3.8,0.6-4.8,1.9s-1.5,3.4-1.5,6.4s0.5,5.2,1.5,6.5s2.6,1.9,4.8,1.9c2,0,3.5-0.7,4.5-2.2s1.5-3.5,1.5-6.3
		c0-2.8-0.5-4.9-1.5-6.2S274.4,137.5,272.3,137.5z"/>
	<path fill="#00B200" d="M285.2,135.2h3.5l4.7,12.2c1,2.8,1.7,4.8,1.9,6h0.2c0.2-0.7,0.5-1.8,1.1-3.4s2.3-6.6,5.3-14.8h3.5
		l-9.2,24.4c-0.9,2.4-2,4.1-3.2,5.1s-2.7,1.5-4.5,1.5c-1,0-2-0.1-2.9-0.3v-2.6c0.7,0.2,1.5,0.2,2.4,0.2c2.2,0,3.8-1.2,4.8-3.8l1.2-3
		L285.2,135.2z"/>
	<path fill="#00B200" d="M341,156.6h-3.8l-7.7-12.6l-7.8,12.6h-3.5l9.5-14.9l-8.8-13.6h3.7l7.1,11.3l7.1-11.3h3.5l-8.8,13.5
		L341,156.6z"/>
	<path fill="#00B200" d="M354.8,157c-3.2,0-5.7-1-7.5-2.9s-2.7-4.6-2.7-8c0-3.5,0.8-6.2,2.5-8.2s4-3,6.8-3c2.7,0,4.8,0.9,6.4,2.6
		s2.3,4.1,2.3,7v2.1H348c0.1,2.5,0.7,4.4,1.9,5.7s2.9,2,5.1,2c2.3,0,4.6-0.5,6.8-1.4v2.9c-1.1,0.5-2.2,0.8-3.3,1.1
		S356.3,157,354.8,157z M354,137.5c-1.7,0-3.1,0.6-4.1,1.7s-1.6,2.7-1.8,4.6h11.2c0-2-0.5-3.6-1.4-4.7S355.6,137.5,354,137.5z"/>
	<path fill="#00B200" d="M379.4,134.8c2.8,0,5,1,6.6,2.9s2.3,4.6,2.3,8.2s-0.8,6.2-2.4,8.2s-3.7,2.9-6.5,2.9c-1.4,0-2.7-0.3-3.8-0.8
		s-2.1-1.3-2.9-2.4h-0.2l-0.7,2.8h-2.3v-30.4h3.2v7.4c0,1.7-0.1,3.1-0.2,4.5h0.2C374.2,135.9,376.4,134.8,379.4,134.8z M378.9,137.5
		c-2.2,0-3.8,0.6-4.8,1.9s-1.5,3.4-1.5,6.4s0.5,5.2,1.5,6.5s2.6,1.9,4.8,1.9c2,0,3.5-0.7,4.5-2.2s1.5-3.5,1.5-6.3
		c0-2.8-0.5-4.9-1.5-6.2S381,137.5,378.9,137.5z"/>
	<path fill="#00B200" d="M394.9,129.4c0-0.7,0.2-1.3,0.5-1.6c0.4-0.3,0.8-0.5,1.4-0.5c0.5,0,1,0.2,1.3,0.5c0.4,0.4,0.6,0.9,0.6,1.6
		s-0.2,1.3-0.6,1.6s-0.8,0.5-1.3,0.5c-0.5,0-1-0.2-1.4-0.5S394.9,130.1,394.9,129.4z M398.4,156.6h-3.2v-21.4h3.2V156.6z"/>
	<path fill="#00B200" d="M419.6,156.6l-0.6-3h-0.2c-1.1,1.3-2.1,2.2-3.2,2.7s-2.4,0.7-4,0.7c-2.1,0-3.8-0.5-5-1.6s-1.8-2.6-1.8-4.7
		c0-4.3,3.5-6.6,10.4-6.8l3.6-0.1v-1.3c0-1.7-0.4-2.9-1.1-3.7s-1.9-1.2-3.5-1.2c-1.8,0-3.8,0.5-6.1,1.6l-1-2.5
		c1.1-0.6,2.2-1,3.5-1.3s2.5-0.5,3.8-0.5c2.6,0,4.4,0.6,5.7,1.7s1.8,2.9,1.8,5.4v14.6H419.6z M412.3,154.3c2,0,3.6-0.6,4.8-1.7
		s1.7-2.7,1.7-4.6V146l-3.2,0.1c-2.6,0.1-4.4,0.5-5.6,1.2s-1.7,1.8-1.7,3.3c0,1.2,0.4,2.1,1.1,2.7S411,154.3,412.3,154.3z"/>
	<path fill="#00B200" d="M430.4,156.6V128h3.3v25.5h12.6v3H430.4z"/>
	<path fill="#00B200" d="M465,156.6l-0.6-3h-0.2c-1.1,1.3-2.1,2.2-3.2,2.7s-2.4,0.7-4,0.7c-2.1,0-3.8-0.5-5-1.6s-1.8-2.6-1.8-4.7
		c0-4.3,3.5-6.6,10.4-6.8l3.6-0.1v-1.3c0-1.7-0.4-2.9-1.1-3.7s-1.9-1.2-3.5-1.2c-1.8,0-3.8,0.5-6.1,1.6l-1-2.5
		c1.1-0.6,2.2-1,3.5-1.3s2.5-0.5,3.8-0.5c2.6,0,4.4,0.6,5.7,1.7s1.8,2.9,1.8,5.4v14.6H465z M457.7,154.3c2,0,3.6-0.6,4.8-1.7
		s1.7-2.7,1.7-4.6V146l-3.2,0.1c-2.6,0.1-4.4,0.5-5.6,1.2s-1.7,1.8-1.7,3.3c0,1.2,0.4,2.1,1.1,2.7S456.4,154.3,457.7,154.3z"/>
	<path fill="#00B200" d="M485.3,134.8c2.8,0,5,1,6.6,2.9s2.3,4.6,2.3,8.2s-0.8,6.2-2.4,8.2s-3.7,2.9-6.5,2.9c-1.4,0-2.7-0.3-3.8-0.8
		s-2.1-1.3-2.9-2.4h-0.2l-0.7,2.8h-2.3v-30.4h3.2v7.4c0,1.7-0.1,3.1-0.2,4.5h0.2C480.1,135.9,482.3,134.8,485.3,134.8z M484.8,137.5
		c-2.2,0-3.8,0.6-4.8,1.9s-1.5,3.4-1.5,6.4s0.5,5.2,1.5,6.5s2.6,1.9,4.8,1.9c2,0,3.5-0.7,4.5-2.2s1.5-3.5,1.5-6.3
		c0-2.8-0.5-4.9-1.5-6.2S486.9,137.5,484.8,137.5z"/>
	<path fill="#00B200" d="M514.8,150.7c0,2-0.7,3.5-2.2,4.6c-1.5,1.1-3.6,1.6-6.3,1.6c-2.8,0-5.1-0.4-6.6-1.3v-3
		c1,0.5,2.1,0.9,3.3,1.2s2.3,0.4,3.4,0.4c1.7,0,3-0.3,3.9-0.8s1.4-1.4,1.4-2.5c0-0.8-0.4-1.5-1.1-2.1s-2.1-1.3-4.2-2.1
		c-2-0.7-3.4-1.4-4.2-1.9s-1.5-1.2-1.9-1.9s-0.6-1.5-0.6-2.5c0-1.7,0.7-3.1,2.1-4.1s3.4-1.5,5.8-1.5c2.3,0,4.6,0.5,6.8,1.4l-1.2,2.6
		c-2.1-0.9-4.1-1.3-5.8-1.3c-1.5,0-2.7,0.2-3.5,0.7s-1.2,1.1-1.2,2c0,0.6,0.1,1.1,0.4,1.5s0.8,0.8,1.4,1.2s1.9,0.9,3.8,1.6
		c2.5,0.9,4.3,1.9,5.1,2.8C514.4,148.1,514.8,149.3,514.8,150.7z"/>
	<path fill="#00B200" d="M536.9,143.2h-1.9v-14.9h-5.3v-1.7h12.5v1.7h-5.3V143.2z"/>
	<path fill="#00B200" d="M552.7,143.2l-5.6-14.8H547c0.1,1.2,0.2,2.6,0.2,4.2v10.6h-1.8v-16.6h2.9l5.3,13.7h0.1l5.3-13.7h2.9v16.6
		h-1.9v-10.7c0-1.2,0.1-2.6,0.2-4H560l-5.7,14.7H552.7z"/>
</g>
</svg>
