<?xml version="1.0" encoding="UTF-8"?>
<svg width="300px" height="80px" viewBox="0 0 300 80" version="1.1" xmlns="http://www.w3.org/2000/svg" xmlns:xlink="http://www.w3.org/1999/xlink">
    <!-- Generator: Sketch 50.2 (55047) - http://www.bohemiancoding.com/sketch -->
    <title>xld-2color-mark-300</title>
    <desc>Created with Sketch.</desc>
    <defs></defs>
    <g id="xld-2color-mark-300" stroke="none" stroke-width="1" fill="none" fill-rule="evenodd">
        <g id="xld-2color-mark-115x32@1,5x" transform="translate(10.000000, 0.000000)" fill-rule="nonzero">
            <path d="M179.698367,14.5316333 C179.968063,14.7937743 180.285136,15.0022533 180.6327,15.1459667 C181.040567,15.3148999 181.478871,15.3979718 181.920267,15.39 C182.27031,15.403332 182.619459,15.3461079 182.946933,15.2217333 C183.18341,15.1408673 183.340159,14.9160172 183.334233,14.6661667 C183.345758,14.4165181 183.206397,14.1843193 182.980667,14.0770667 C182.788479,13.9666144 182.585347,13.8764088 182.374533,13.8079 C182.031781,13.6946992 181.683432,13.5992063 181.330867,13.5218 C181.045218,13.4491199 180.764255,13.3591315 180.489533,13.2523333 C180.195937,13.1394297 179.92077,12.9834784 179.673067,12.7896 C179.4225,12.5956239 179.211178,12.3556919 179.0504,12.0826333 C178.881059,11.7826687 178.796658,11.4422295 178.806267,11.0979 C178.800176,10.7272164 178.899384,10.3624124 179.092367,10.0458667 C179.283533,9.73698233 179.539008,9.47291263 179.8414,9.27163333 C180.162206,9.05835047 180.514347,8.89646733 180.8851,8.79183333 C181.265099,8.68080073 181.658912,8.62416023 182.0548,8.6236 C182.654231,8.61122087 183.252336,8.68491627 183.830833,8.84243333 C184.306352,8.98205583 184.753601,9.20424183 185.152133,9.49883333 L184.1251,10.8959 C183.865651,10.7149715 183.58257,10.570554 183.2838,10.4667 C182.888808,10.3299849 182.472694,10.2644247 182.0548,10.2730667 C181.712806,10.2419579 181.369422,10.3153583 181.070033,10.4835667 C180.898584,10.5984977 180.79475,10.7905058 180.792433,10.9969 C180.792433,11.2439 180.946744,11.4374889 181.255367,11.5776667 C181.72112,11.768118 182.202675,11.9173673 182.6945,12.0237 C183.065657,12.1033813 183.428955,12.2160511 183.780067,12.3603667 C184.080496,12.4831167 184.359094,12.6536521 184.605067,12.8653667 C184.831421,13.0626968 185.01225,13.3068045 185.135067,13.5808333 C185.265678,13.8922522 185.328842,14.2278058 185.3204,14.5654 C185.325193,14.9283963 185.23211,15.2859805 185.050933,15.6005667 C184.868307,15.9127614 184.618224,16.1802002 184.318967,16.3833333 C183.989223,16.6063833 183.625299,16.7741423 183.241533,16.88 C182.817095,16.9997395 182.377931,17.0592104 181.936933,17.0566667 C181.256558,17.0662285 180.579442,16.9609862 179.934067,16.7453667 C179.386042,16.5681548 178.893201,16.2521451 178.503467,15.8280667 L179.698367,14.5316333 Z" id="Shape" fill="#778798"></path>
            <polygon id="Shape" fill="#778798" points="113.2695 10.9799333 109.684533 5.56006667 112.242967 5.56006667 114.582733 9.22946667 116.837867 5.56006667 119.1439 5.56006667 115.6934 10.9295333 119.547867 16.7871 116.989433 16.7871 114.397267 12.6968667 111.838867 16.7871 109.532833 16.7871"></polygon>
            <path d="M127.448967,15.6424 L127.171367,15.9202 C126.973074,16.1064405 126.752617,16.2675735 126.514967,16.3999667 C126.169176,16.5934371 125.802009,16.7459332 125.4209,16.8543667 C124.903332,16.9988538 124.36742,17.0668956 123.830167,17.0563333 C123.242473,17.0639512 122.659069,16.9553249 122.1135,16.7367 C121.103768,16.3366991 120.315498,15.5208056 119.9505,14.4979 C119.748281,13.9367566 119.648485,13.3438561 119.655867,12.7474333 C119.65069,12.1922145 119.750661,11.6410338 119.9505,11.123 C120.137365,10.6384054 120.417552,10.1952127 120.775167,9.81856667 C121.133107,9.44525487 121.562371,9.14762637 122.0375,8.94333333 C122.550899,8.7250403 123.104134,8.61605993 123.661967,8.62333333 C124.293808,8.60411387 124.920747,8.739877 125.488033,9.01876667 C125.965545,9.2638153 126.378108,9.61865363 126.691833,10.0541333 C126.999571,10.4911311 127.222252,10.9821787 127.348233,11.5016 C127.482916,12.0410645 127.550747,12.5950442 127.5502,13.1510667 L127.5502,13.4374 L121.658667,13.4374 C121.654702,13.7133211 121.721431,13.9856644 121.8525,14.2285 C121.979335,14.4616829 122.150868,14.6675926 122.3573,14.8344667 C122.568088,15.004585 122.807572,15.1356777 123.064467,15.2215667 C123.316034,15.3093241 123.580402,15.3547953 123.846833,15.3561333 C124.44457,15.3667646 125.03707,15.2430794 125.580633,14.9942 C125.758104,14.9142508 125.92494,14.8125366 126.0773,14.6914 C126.2063,14.5847333 126.304522,14.4977556 126.371967,14.4304667 L127.448967,15.6424 Z M125.513567,12.0067333 C125.512303,11.7991722 125.472331,11.5936682 125.3957,11.4007667 C125.316389,11.1981997 125.199287,11.012559 125.050633,10.8537333 C124.885802,10.6818258 124.68837,10.5444852 124.469867,10.4497333 C124.215074,10.3392698 123.939562,10.2847106 123.6619,10.2897333 C123.365124,10.2843509 123.070302,10.3387651 122.795,10.4497333 C122.561486,10.5443023 122.347492,10.6812761 122.163833,10.8537333 C122.000544,11.0092919 121.869011,11.1950736 121.776533,11.4007667 C121.689428,11.5909982 121.643579,11.7975138 121.642,12.0067333 L125.513567,12.0067333 Z" id="Shape" fill="#778798"></path>
            <path d="M129.393933,5.56006667 L131.380133,5.56006667 L131.380133,9.43146667 C131.611227,9.23806333 131.872874,9.08443467 132.154367,8.97686667 C132.591944,8.79795283 133.061958,8.71203237 133.534533,8.72456667 C134.059978,8.71464963 134.580826,8.82406193 135.057867,9.04456667 C135.491144,9.25032293 135.877826,9.54241573 136.1942,9.90293333 C136.51646,10.2767446 136.759772,10.7118818 136.9095,11.1821667 C137.074079,11.6875885 137.156548,12.2161313 137.153767,12.7476667 C137.157701,13.3206771 137.051896,13.8891425 136.842067,14.4223667 C136.641615,14.9333808 136.337922,15.3975609 135.949967,15.7859 C135.546774,16.1836131 135.069212,16.4980388 134.544533,16.7112333 C133.956602,16.9484578 133.327182,17.0657671 132.693267,17.0562667 C132.058045,17.0607373 131.423854,17.0044027 130.799367,16.8880333 C130.323473,16.8020094 129.853928,16.6839633 129.393933,16.5347 L129.393933,5.56006667 Z M131.380133,15.1712333 C131.538695,15.2279321 131.702061,15.2701709 131.868233,15.2974333 C132.130575,15.3312581 132.395082,15.3453754 132.659533,15.3396667 C133.024116,15.3477286 133.386043,15.2758801 133.7199,15.1291667 C134.013607,14.9957351 134.277044,14.8038538 134.494133,14.5652333 C134.707867,14.3285933 134.871063,14.0508267 134.973733,13.7489333 C135.079979,13.4431385 135.134066,13.1216594 135.133733,12.7979333 C135.134582,12.5027311 135.097842,12.208622 135.0244,11.9227 C134.956481,11.6538943 134.839496,11.3999457 134.679333,11.1736333 C134.523068,10.9558311 134.318447,10.7772126 134.081533,10.6518 C133.813041,10.5165162 133.515171,10.449983 133.214633,10.4581667 C132.713668,10.4210397 132.218966,10.5879841 131.842933,10.9210667 C131.521274,11.2635252 131.353979,11.7228235 131.380033,12.1919333 L131.380133,15.1712333 Z" id="Shape" fill="#778798"></path>
            <polygon id="Shape" fill="#778798" points="138.9331 8.89273333 140.9193 8.89273333 140.9193 16.7871 138.9331 16.7871"></polygon>
            <path d="M147.8812,16.0464 C147.610975,16.3460128 147.27752,16.5818011 146.904967,16.7367 C146.444797,16.9432706 145.944991,17.0466221 145.440633,17.0395 C145.11219,17.0390945 144.785774,16.9880274 144.4729,16.8881 C144.155328,16.788422 143.858653,16.6315324 143.5975,16.4251667 C143.327267,16.2097788 143.108688,15.9366198 142.9578,15.6257333 C142.788163,15.2684823 142.70464,14.8764381 142.713933,14.4810667 C142.706746,14.0661015 142.793009,13.654836 142.966333,13.2777333 C143.13014,12.9299731 143.371966,12.6246906 143.673,12.3856333 C143.998241,12.1332149 144.370018,11.9473324 144.7671,11.8386 C145.227339,11.7105813 145.703348,11.6481877 146.181033,11.6532667 C146.338167,11.6532667 146.512111,11.6561111 146.702867,11.6618 C146.893622,11.6674889 147.078811,11.6758889 147.258433,11.687 C147.460433,11.6983111 147.667989,11.7095556 147.8811,11.7207333 L147.8811,11.5355 C147.893106,11.1665559 147.715335,10.8171637 147.410033,10.6096667 C147.046018,10.3708754 146.615925,10.2530578 146.181033,10.273 C145.722043,10.255411 145.264171,10.3298152 144.834367,10.4918333 C144.52434,10.6236888 144.225926,10.7813309 143.942267,10.9631 L143.0335,9.61643333 C143.190256,9.50432223 143.369767,9.3893111 143.572033,9.2714 C143.797134,9.1430073 144.033713,9.0358772 144.2787,8.9514 C144.583135,8.84724127 144.895653,8.76840657 145.213067,8.7157 C145.622069,8.64979413 146.035944,8.61886 146.4502,8.62323333 C146.915904,8.6171762 147.3794,8.68823637 147.8219,8.83353333 C148.207272,8.96038253 148.564539,9.1604186 148.8741,9.42266667 C149.163234,9.67185637 149.393168,9.9823792 149.547167,10.3316333 C149.706321,10.6949958 149.786664,11.0879618 149.7829,11.4846333 L149.7829,16.7871 L147.931233,16.7871 L147.8812,16.0464 Z M147.8812,13.2187 C147.6792,13.2075889 147.482889,13.1963444 147.292267,13.1849667 C147.134778,13.1740333 146.969222,13.1656333 146.7956,13.1597667 C146.6214,13.1542111 146.472656,13.1513667 146.349367,13.1512333 C145.868668,13.1019771 145.38723,13.2373996 145.0027,13.5300333 C144.758044,13.752086 144.617691,14.0665395 144.615767,14.3969333 C144.601826,14.703516 144.736492,14.9980271 144.9775,15.1880333 C145.291843,15.4001133 145.668146,15.500834 146.0464,15.4741333 C146.504231,15.4733782 146.948628,15.3193589 147.308733,15.0366333 C147.473684,14.9057812 147.613469,14.7460276 147.721267,14.5651667 C147.825785,14.3925951 147.881029,14.194688 147.881,13.9929333 L147.8812,13.2187 Z" id="Shape" fill="#778798"></path>
            <polygon id="Shape" fill="#778798" points="151.803267 5.56006667 153.923967 5.56006667 153.923967 14.9019 159.461867 14.9019 159.461867 16.7871 151.803267 16.7871"></polygon>
            <path d="M165.701767,16.0464 C165.431549,16.3460204 165.098091,16.5818099 164.725533,16.7367 C164.265364,16.9432737 163.765558,17.0466254 163.2612,17.0395 C162.932767,17.0390942 162.606362,16.9880271 162.2935,16.8881 C161.975918,16.7884222 161.679231,16.6315328 161.418067,16.4251667 C161.147843,16.2097699 160.929265,15.9366131 160.778367,15.6257333 C160.608767,15.2685301 160.525256,14.8765461 160.534533,14.4812333 C160.527346,14.0662682 160.613609,13.6550026 160.786933,13.2779 C160.95074,12.9301398 161.192566,12.6248573 161.4936,12.3858 C161.818846,12.1333882 162.190621,11.9475065 162.5877,11.8387667 C163.047939,11.710748 163.523948,11.6483544 164.001633,11.6534333 C164.158789,11.6534333 164.332744,11.6562778 164.5235,11.6619667 C164.714256,11.6676556 164.899444,11.6760556 165.079067,11.6871667 C165.281022,11.6984778 165.488567,11.7097222 165.7017,11.7209 L165.7017,11.5355 C165.713706,11.1665559 165.535935,10.8171637 165.230633,10.6096667 C164.86662,10.3708712 164.436526,10.2530532 164.001633,10.273 C163.542709,10.2554333 163.084907,10.3298372 162.655167,10.4918333 C162.345133,10.6236746 162.046718,10.7813174 161.763067,10.9631 L160.8543,9.61643333 C161.011056,9.50432223 161.190556,9.3893111 161.3928,9.2714 C161.617899,9.14300387 161.854478,9.0358736 162.099467,8.9514 C162.403889,8.8472369 162.716396,8.7684021 163.0338,8.7157 C163.442814,8.64979417 163.8567,8.61886007 164.270967,8.62323333 C164.73666,8.61717867 165.200145,8.6882388 165.642633,8.83353333 C166.028015,8.96038247 166.385293,9.16041833 166.694867,9.42266667 C166.983981,9.67186677 167.213902,9.98238753 167.3679,10.3316333 C167.52707,10.6949909 167.607413,11.0879602 167.603633,11.4846333 L167.603633,16.7871 L165.751967,16.7871 L165.701767,16.0464 Z M165.701767,13.2187 C165.499767,13.2075889 165.303456,13.1963444 165.112833,13.1849667 C164.955322,13.1740333 164.789767,13.1656333 164.616167,13.1597667 C164.441967,13.1542111 164.293222,13.1513667 164.169933,13.1512333 C163.689301,13.1020292 163.207944,13.2374489 162.823467,13.5300333 C162.578811,13.752086 162.438457,14.0665395 162.436533,14.3969333 C162.422576,14.7035193 162.557245,14.9980376 162.798267,15.1880333 C163.112595,15.400118 163.488889,15.5008393 163.867133,15.4741333 C164.324976,15.4733856 164.769386,15.319366 165.1295,15.0366333 C165.29445,14.9057896 165.434225,14.7460339 165.542,14.5651667 C165.646518,14.3925951 165.701762,14.194688 165.701733,13.9929333 L165.701767,13.2187 Z" id="Shape" fill="#778798"></path>
            <path d="M169.623933,5.56006667 L171.610133,5.56006667 L171.610133,9.43146667 C171.841278,9.23804747 172.102982,9.08441813 172.384533,8.97686667 C172.822059,8.79797373 173.292014,8.71205363 173.764533,8.72456667 C174.289977,8.71465547 174.810824,8.82406747 175.287867,9.04456667 C175.721144,9.25032293 176.107826,9.54241573 176.4242,9.90293333 C176.746445,10.2767546 176.989756,10.7118888 177.1395,11.1821667 C177.304069,11.6875902 177.386526,12.2161331 177.383733,12.7476667 C177.387684,13.3206786 177.281879,13.8891471 177.072033,14.4223667 C176.871606,14.9333936 176.56791,15.3975785 176.179933,15.7859 C175.776753,16.1836122 175.299202,16.498038 174.774533,16.7112333 C174.186602,16.9484578 173.557182,17.0657671 172.923267,17.0562667 C172.288045,17.0607373 171.653854,17.0044027 171.029367,16.8880333 C170.553472,16.8020136 170.083927,16.6839674 169.623933,16.5347 L169.623933,5.56006667 Z M171.610133,15.1712333 C171.768694,15.2279361 171.93206,15.270175 172.098233,15.2974333 C172.360575,15.3312581 172.625082,15.3453754 172.889533,15.3396667 C173.254115,15.3477253 173.616042,15.275877 173.9499,15.1291667 C174.243607,14.9957351 174.507044,14.8038538 174.724133,14.5652333 C174.937855,14.3285844 175.10105,14.0508204 175.203733,13.7489333 C175.309979,13.4431385 175.364066,13.1216594 175.363733,12.7979333 C175.364582,12.5027311 175.327842,12.208622 175.2544,11.9227 C175.186467,11.6538992 175.069484,11.399953 174.909333,11.1736333 C174.753068,10.9558311 174.548447,10.7772126 174.311533,10.6518 C174.043037,10.5165268 173.74517,10.4499942 173.444633,10.4581667 C172.943668,10.4210397 172.448966,10.5879841 172.072933,10.9210667 C171.751274,11.2635252 171.583979,11.7228235 171.610033,12.1919333 L171.610133,15.1712333 Z" id="Shape" fill="#778798"></path>
            <rect id="Rectangle-path" fill="#778798" x="139" y="6" width="2" height="2"></rect>
            <path d="M3.1451,14.1974667 L0.4263,11.4786667 C-0.14207177,10.9102648 -0.14207177,9.9887352 0.4263,9.42033333 L9.27723333,0.5685 C9.64118933,0.204516826 10.1348359,3.09252536e-05 10.6495667,3.09252536e-05 C11.1642974,3.09252536e-05 11.657944,0.204516826 12.0219,0.5685 L20.7770667,9.32456667 C21.0500346,9.59758293 21.2033575,9.96785963 21.2033012,10.3539288 C21.203245,10.739998 21.0498142,11.11023 20.7767667,11.3831667 L18.0563,14.1022667 C17.487829,14.6704759 16.5663869,14.6703267 15.9981,14.1019333 L10.6495,8.75243333 L5.20336667,14.1975667 C4.63495243,14.7658848 3.713459,14.76584 3.1451,14.1974667 Z" id="Shape" fill="#06B052"></path>
            <path d="M80.5593333,72.6348333 L21.0136333,72.6348333 C17.0754822,72.630351 13.8841236,69.438918 13.8797333,65.5007667 L13.8797333,7.72856667 L7.31876667,7.72856667 L7.31876667,65.5007667 C7.32754667,73.06062 13.4537802,79.186928 21.0136333,79.1958 L87.1195333,79.1958 L80.5593333,72.6348333 Z" id="Shape" fill="#06B052"></path>
            <polygon id="Shape" fill="#059949" points="53.7966667 57.09 41.9566667 40.2066667 36.92 47.91 43.36 57.09"></polygon>
            <path d="M43.4653333,25.5918333 C42.8102417,25.5918352 42.199359,25.9223159 41.8409,26.4706333 L21.8249333,57.0912333 L29.9149333,57.0912333 C30.5819326,57.091202 31.2021788,56.7486403 31.5574,56.1841 L51.5561667,25.5917667 L43.4653333,25.5918333 Z" id="Shape" fill="#06B052"></path>
            <path d="M59.9151333,49.7241333 L59.9151333,27.5324667 C59.915115,26.4606921 59.0462747,25.5918517 57.9745,25.5918333 L51.5561333,25.5918333 L51.5561333,57.0909333 L59.9151333,49.7241333 Z" id="Shape" fill="#06B052"></path>
            <path d="M68.5732667,50.5506 C68.2100487,50.032501 67.6170687,49.723994 66.9843333,49.7239333 L59.9151333,49.7239333 L51.5561333,57.0907667 L51.5561333,57.0912333 L73.1592,57.0912333 L68.5732667,50.5506 Z" id="Shape" fill="#059949"></path>
            <polygon id="Shape" fill="#059949" points="31.7066667 25.5866667 21.2666667 25.5866667 31.23 39.7966667 36.27 32.09"></polygon>
            <path d="M73.4247,1.8084 L24.2621667,1.81016667 L30.8232,8.36933333 L73.4247,8.36933333 C77.3628533,8.37379737 80.554213,11.5652466 80.5585667,15.5034 L80.5585667,72.6348667 L87.1195667,79.1957667 L87.1195667,15.5034 C87.11075,7.9435674 80.9845327,1.8172903 73.4247,1.8084 Z" id="Shape" fill="#059949"></path>
            <path d="M109.534167,25.5725 L121.298767,25.5725 C123.585051,25.5485511 125.862033,25.8671056 128.053967,26.5175667 C130.00138,27.0940318 131.804668,28.0762941 133.3452,29.3997333 C134.871023,30.7572777 136.052778,32.4576506 136.793267,34.361 C137.658944,36.637323 138.076315,39.0595567 138.0224,41.4943333 C138.07471,43.8313897 137.648829,46.15448 136.7709,48.321 C135.987573,50.186065 134.792333,51.8496803 133.274733,53.1872 C131.726653,54.5232843 129.91637,55.5210003 127.960033,56.1163333 C125.786357,56.7807873 123.52352,57.10744 121.250667,57.0848667 L109.534167,57.0848667 L109.534167,25.5725 Z M120.7306,51.7937333 C123.700892,52.0003067 126.638872,51.0717477 128.950933,49.1956667 C130.950592,47.188946 131.984436,44.4153267 131.786133,41.5893333 C131.943424,38.7361863 131.005295,35.9306587 129.163433,33.746 C126.891082,31.6284921 123.823577,30.5804832 120.7306,30.8649333 L115.487467,30.8649333 L115.487467,51.7938333 L120.7306,51.7937333 Z" id="Shape" fill="#4B5561"></path>
            <polygon id="Shape" fill="#4B5561" points="142.9173 25.5725 163.3273 25.5725 163.3273 30.8167667 148.870633 30.8167667 148.870633 38.2340667 159.500033 38.2340667 159.500033 43.5253 148.870633 43.5253 148.870633 51.7467667 164.413233 51.7467667 164.413233 57.0849333 142.9173 57.0849333"></polygon>
            <path d="M170.602767,25.5725 L180.713233,25.5725 C182.569362,25.5039007 184.417337,25.8512666 186.121867,26.5891667 C187.399907,27.1730164 188.536207,28.0269554 189.4525,29.0921667 C190.238153,30.0233553 190.817548,31.11047 191.1525,32.2818667 C191.450365,33.2951362 191.609876,34.344024 191.6267,35.4000333 C191.6695,36.964874 191.34547,38.5180133 190.680533,39.9352 C190.098509,41.134251 189.26005,42.19072 188.2245,43.0298333 C187.214713,43.8333627 186.059589,44.4348437 184.822267,44.8014 C183.613015,45.1718737 182.35595,45.3629193 181.091233,45.3684333 L176.318967,45.3684333 L176.318967,57.0851 L170.602767,57.0851 L170.602767,25.5725 Z M180.617033,40.3602 C181.951434,40.4270867 183.255861,39.949628 184.231767,39.0371 C185.141516,38.12561 185.629628,36.875827 185.578433,35.5890333 C185.633932,34.2527413 185.130677,32.9536535 184.189428,32.0034931 C183.248178,31.0533327 181.953889,30.5378604 180.617133,30.5807667 L176.318967,30.5807667 L176.318967,40.3602 L180.617033,40.3602 Z" id="Shape" fill="#4B5561"></path>
            <polygon id="Shape" fill="#4B5561" points="197.218433 25.5725 203.170633 25.5725 203.170633 51.7937333 218.714333 51.7937333 218.714333 57.0849333 197.218433 57.0849333"></polygon>
            <path d="M234.550967,57.9349333 C232.342233,57.953378 230.153912,57.5111477 228.125667,56.6364667 C226.178299,55.7954643 224.413101,54.5837203 222.9284,53.0687333 C221.43813,51.5425623 220.251667,49.746924 219.432233,47.7775 C217.732279,43.6300917 217.732279,38.980375 219.432233,34.8329667 C220.246103,32.8731731 221.42452,31.0856455 222.904933,29.5652667 C225.974241,26.445376 230.17446,24.6988121 234.550967,24.7225333 C236.759758,24.704679 238.948035,25.1472863 240.976267,26.0221333 C249.293656,29.7170903 253.149822,39.3684253 249.668567,47.7775 C248.849564,49.7471537 247.663051,51.5428693 246.1724,53.0687333 C244.687912,54.5834553 242.923139,55.795172 240.976267,56.6364667 C238.947953,57.5109283 236.759678,57.9531493 234.550967,57.9349333 Z M234.550967,52.3138 C237.395153,52.358099 240.112267,51.137608 241.9683,48.9820333 C242.86522,47.9325973 243.554466,46.722223 243.999333,45.4153667 C244.944763,42.6513433 244.944763,39.65149 243.999333,36.8874667 C243.553291,35.595322 242.863857,34.400582 241.9683,33.3678333 C241.077623,32.3546918 239.982488,31.541656 238.754967,30.9822333 C236.064658,29.8175887 233.012442,29.8175887 230.322133,30.9822333 C229.104085,31.5456183 228.017812,32.35833 227.133533,33.3678333 C226.237623,34.4005187 225.547816,35.5952567 225.1014,36.8874667 C224.157437,39.6517337 224.157437,42.6510997 225.1014,45.4153667 C225.54664,46.7222887 226.236259,47.9326613 227.133533,48.9820333 C228.981008,51.1490483 231.703812,52.3720953 234.550867,52.3138 L234.550967,52.3138 Z" id="Shape" fill="#4B5561"></path>
            <polygon id="Shape" fill="#4B5561" points="261.608333 43.2423333 250.694833 25.5723333 257.2152 25.5723333 264.773433 38.1399667 272.3328 25.5723333 278.569067 25.5723333 267.655733 43.2423333 267.655733 57.0849333 261.608333 57.0849333"></polygon>
        </g>
    </g>
</svg>