<?xml version="1.0" encoding="utf-8"?>
<!-- Generator: Adobe Illustrator 21.1.0, SVG Export Plug-In . SVG Version: 6.00 Build 0)  -->
<!DOCTYPE svg PUBLIC "-//W3C//DTD SVG 1.1//EN" "http://www.w3.org/Graphics/SVG/1.1/DTD/svg11.dtd">
<svg version="1.1" id="Layer_1" xmlns="http://www.w3.org/2000/svg" xmlns:xlink="http://www.w3.org/1999/xlink" x="0px" y="0px"
	 width="526.1px" height="161.7px" viewBox="0 0 526.1 161.7" style="enable-background:new 0 0 526.1 161.7;" xml:space="preserve"
	>
<style type="text/css">
	.st0{fill:#00994C;}
</style>
<g>
	<g>
		<path class="st0" d="M190.1,48v74.1h-9.6V48H190.1z"/>
		<path class="st0" d="M269.3,89.6c-0.6-10.3-1.2-22.8-1.1-32h-0.3c-2.5,8.7-5.6,17.9-9.3,28.2l-13.1,36h-7.3l-12-35.3
			c-3.5-10.5-6.5-20-8.6-28.8h-0.2c-0.2,9.2-0.8,21.7-1.4,32.8l-2,31.8h-9.1L210,48h12.2l12.6,35.9c3.1,9.1,5.6,17.3,7.5,25h0.3
			c1.9-7.5,4.5-15.6,7.8-25L263.7,48h12.2l4.6,74.1h-9.4L269.3,89.6z"/>
		<path class="st0" d="M295.3,48.9c4.6-0.8,10.7-1.4,18.4-1.4c9.5,0,16.4,2.2,20.8,6.2c4.1,3.5,6.5,8.9,6.5,15.5
			c0,6.7-2,12-5.7,15.8c-5.1,5.4-13.3,8.1-22.7,8.1c-2.9,0-5.5-0.1-7.7-0.7v29.7h-9.6V48.9z M304.8,84.6c2.1,0.6,4.7,0.8,7.9,0.8
			c11.5,0,18.6-5.6,18.6-15.8c0-9.8-6.9-14.5-17.5-14.5c-4.2,0-7.4,0.3-9,0.8V84.6z"/>
		<path class="st0" d="M356.3,98.8l-7.7,23.3h-9.9L363.9,48h11.5l25.3,74.1h-10.2l-7.9-23.3H356.3z M380.6,91.4L373.4,70
			c-1.7-4.8-2.8-9.2-3.9-13.5h-0.2c-1.1,4.4-2.3,8.9-3.7,13.4l-7.3,21.5H380.6z"/>
		<path class="st0" d="M460,119.7c-3.5,1.8-10.6,3.5-19.6,3.5c-20.9,0-36.6-13.2-36.6-37.5c0-23.2,15.7-38.9,38.7-38.9
			c9.2,0,15.1,2,17.6,3.3l-2.3,7.8c-3.6-1.8-8.8-3.1-15-3.1c-17.4,0-28.9,11.1-28.9,30.6c0,18.1,10.5,29.8,28.5,29.8
			c5.8,0,11.8-1.2,15.6-3.1L460,119.7z"/>
		<path class="st0" d="M491.3,56.2h-22.6V48h54.9v8.1H501v66h-9.7V56.2z"/>
	</g>
	<g>
		<path class="st0" d="M76.3,120.9H65.9L52,98.2l-14,22.7h-9.8l18.4-28.8L29.4,65.3h10.1l12.9,21l12.9-21h9.8L57.6,92.2L76.3,120.9z
			"/>
		<path class="st0" d="M83.8,120.9V65.3h9.1v47.8h23.5v7.8H83.8z"/>
	</g>
	<g>
		<path class="st0" d="M114,34.7l-6,8.1c26.4,19.6,32,57.1,12.4,83.5c-19.6,26.5-57.1,32.1-83.5,12.5l0,0l-0.2-0.1
			c-26.3-19.6-31.9-57-12.3-83.5C36,39.5,54.7,30.6,74,31.1L62.7,46.3l8.1,6l21.8-29.4L63.2,1.1l-6,8.1L73,21
			c-22.1-0.2-43.5,10.1-56.9,28.2C-6.8,80.2-0.2,124,30.7,147l0.1,0v0c0,0,0.1,0.1,0.1,0.1l0.1,0.1v0c30.9,22.6,74.6,16,97.4-14.8
			C151.4,101.4,144.9,57.6,114,34.7z"/>
	</g>
</g>
</svg>
