<svg id="Layer_2" data-name="Layer 2" xmlns="http://www.w3.org/2000/svg" viewBox="0 0 81.32416 23.75873"><defs><style>.cls-1{fill:#778798;}.cls-2{fill:#06b052;}.cls-3{fill:#059949;}.cls-4{fill:#4a5661;}</style></defs><title>xli-2color-mark-115x32</title><path class="cls-1" d="M70.74743,8.48012a.89018.89018,0,0,0,.2803.1843.96394.96394,0,0,0,.38627.07321.78346.78346,0,0,0,.308-.05048.17184.17184,0,0,0,.11619-.16667.18611.18611,0,0,0-.10607-.17673.96116.96116,0,0,0-.18179-.08078,3.15848,3.15848,0,0,0-.31311-.08583,2.18052,2.18052,0,0,1-.2524-.08084.95166.95166,0,0,1-.24494-.13882.74849.74849,0,0,1-.1868-.21209A.56866.56866,0,0,1,70.4798,7.45a.58768.58768,0,0,1,.08584-.31561.75835.75835,0,0,1,.22471-.23227,1.11013,1.11013,0,0,1,.3131-.14394,1.25752,1.25752,0,0,1,.35091-.05047,1.88027,1.88027,0,0,1,.53281.06565,1.26766,1.26766,0,0,1,.39639.19692l-.3081.41912a1.036,1.036,0,0,0-.2524-.12876,1.06018,1.06018,0,0,0-.3687-.05809.509.509,0,0,0-.29542.06315.18791.18791,0,0,0-.08328.154q0,.11115.13887.17423a2.58324,2.58324,0,0,0,.43174.13381,1.91217,1.91217,0,0,1,.32567.101.90293.90293,0,0,1,.24751.1515.62262.62262,0,0,1,.159.21464.71732.71732,0,0,1,.0556.29537.60622.60622,0,0,1-.08084.31055.72813.72813,0,0,1-.21959.23483,1.098,1.098,0,0,1-.32322.149,1.4116,1.4116,0,0,1-.39139.053,1.81565,1.81565,0,0,1-.60086-.09339A1.00138,1.00138,0,0,1,70.389,8.869Z" transform="translate(-16.83792 -4.12063)"/><path class="cls-1" d="M50.81877,7.41461l-1.07552-1.626h.76753l.70193,1.10082.67658-1.10082h.69181L51.54594,7.39949,52.7023,9.15676h-.76753l-.77765-1.22707-.76753,1.22707h-.69181Z" transform="translate(-16.83792 -4.12063)"/><path class="cls-1" d="M55.07261,8.81335l-.08328.08334a.99474.99474,0,0,1-.19691.14393,1.52968,1.52968,0,0,1-.32823.13632,1.65391,1.65391,0,0,1-.47722.06059,1.33792,1.33792,0,0,1-.515-.09589A1.13134,1.13134,0,0,1,52.82306,8.47a1.49441,1.49441,0,0,1-.0884-.52514,1.31983,1.31983,0,0,1,.0884-.48733,1.19046,1.19046,0,0,1,.24739-.39133,1.15874,1.15874,0,0,1,.37871-.26257,1.20526,1.20526,0,0,1,.48733-.096,1.16168,1.16168,0,0,1,.54783.11863,1.01782,1.01782,0,0,1,.36113.31061,1.27675,1.27675,0,0,1,.19692.43424,2.03465,2.03465,0,0,1,.0606.49484v.0859H53.33552a.485.485,0,0,0,.05815.23733.60653.60653,0,0,0,.15144.18179.68236.68236,0,0,0,.21215.11613.72363.72363,0,0,0,.23472.04037,1.19814,1.19814,0,0,0,.52013-.10858.70416.70416,0,0,0,.149-.09084q.05805-.048.0884-.07828ZM54.492,7.72265a.50066.50066,0,0,0-.03536-.18179.51467.51467,0,0,0-.10352-.16411.53781.53781,0,0,0-.17423-.1212.58284.58284,0,0,0-.24239-.048.66347.66347,0,0,0-.26007.048.61258.61258,0,0,0-.18935.1212.52283.52283,0,0,0-.11619.16411.44472.44472,0,0,0-.04036.18179Z" transform="translate(-16.83792 -4.12063)"/><path class="cls-1" d="M55.65611,5.78865H56.252V6.95007a.81544.81544,0,0,1,.23227-.13638A1.02244,1.02244,0,0,1,56.8983,6.738a1.04231,1.04231,0,0,1,.457.096,1.05645,1.05645,0,0,1,.3409.25751,1.098,1.098,0,0,1,.2146.38377,1.49161,1.49161,0,0,1,.07327.46965,1.34678,1.34678,0,0,1-.09351.50241,1.19754,1.19754,0,0,1-.26763.40906,1.29406,1.29406,0,0,1-.42162.27769,1.4272,1.4272,0,0,1-.55539.10351,2.98685,2.98685,0,0,1-.56817-.05047,3.22409,3.22409,0,0,1-.42162-.106ZM56.252,8.672a.83778.83778,0,0,0,.14644.03786,1.58818,1.58818,0,0,0,.23738.01267.74951.74951,0,0,0,.31811-.06315.71233.71233,0,0,0,.23227-.16918A.703.703,0,0,0,57.33,8.24529a.86658.86658,0,0,0,.048-.2853,1.04291,1.04291,0,0,0-.0328-.26257.67561.67561,0,0,0-.10351-.22472.52046.52046,0,0,0-.17935-.15655.545.545,0,0,0-.26007-.05809.55834.55834,0,0,0-.4115.13887.51516.51516,0,0,0-.13888.38126Z" transform="translate(-16.83792 -4.12063)"/><path class="cls-1" d="M58.51785,6.78845h.59586V9.15676h-.59586Z" transform="translate(-16.83792 -4.12063)"/><path class="cls-1" d="M61.20225,8.93455a.81645.81645,0,0,1-.29287.20709,1.03691,1.03691,0,0,1-.4393.09084.958.958,0,0,1-.29031-.04542.81938.81938,0,0,1-.26263-.13888.69455.69455,0,0,1-.19191-.23983.759.759,0,0,1-.07316-.3434.83.83,0,0,1,.07572-.361.7497.7497,0,0,1,.212-.26763.94056.94056,0,0,1,.32823-.16411,1.52246,1.52246,0,0,1,.42418-.0556q.07072,0,.15656.00256t.16667.00756q.09089.00509.18679.01012V7.58128a.32312.32312,0,0,0-.14132-.27775.62038.62038,0,0,0-.3687-.101,1.03314,1.03314,0,0,0-.40394.06565,1.80542,1.80542,0,0,0-.26763.14138l-.27264-.404q.07056-.05045.16156-.10351a1.2508,1.2508,0,0,1,.212-.096,1.75252,1.75252,0,0,1,.2803-.07071,2.1879,2.1879,0,0,1,.37115-.02774,1.26627,1.26627,0,0,1,.4115.06309.9459.9459,0,0,1,.31567.17674.77032.77032,0,0,1,.20191.27269.84207.84207,0,0,1,.07072.3459V9.15676h-.5555Zm0-.84831q-.0909-.005-.17668-.01012-.07088-.00492-.149-.00756-.07839-.0025-.13387-.00256a.571.571,0,0,0-.40394.11364.354.354,0,0,0-.11608.26007.28566.28566,0,0,0,.10852.23733.50919.50919,0,0,0,.32066.08583.61489.61489,0,0,0,.37871-.13125.52085.52085,0,0,0,.12375-.14144.33129.33129,0,0,0,.04792-.17167Z" transform="translate(-16.83792 -4.12063)"/><path class="cls-1" d="M62.3789,5.78865h.63622V8.5912h1.66137v.56556H62.3789Z" transform="translate(-16.83792 -4.12063)"/><path class="cls-1" d="M66.54845,8.93455a.8165.8165,0,0,1-.29286.20709,1.037,1.037,0,0,1-.43931.09084.95806.95806,0,0,1-.29031-.04542.81948.81948,0,0,1-.26263-.13888.69467.69467,0,0,1-.19191-.23983.759.759,0,0,1-.07316-.3434.83.83,0,0,1,.07572-.361.74972.74972,0,0,1,.212-.26763.94051.94051,0,0,1,.32822-.16411,1.52248,1.52248,0,0,1,.42419-.0556q.07071,0,.15655.00256t.16667.00756q.0909.00509.18679.01012V7.58128a.32312.32312,0,0,0-.14132-.27775.62035.62035,0,0,0-.36869-.101,1.03319,1.03319,0,0,0-.40395.06565,1.80592,1.80592,0,0,0-.26763.14138l-.27263-.404q.07055-.05045.16155-.10351a1.25116,1.25116,0,0,1,.212-.096,1.75252,1.75252,0,0,1,.2803-.07071,2.188,2.188,0,0,1,.37115-.02774,1.26634,1.26634,0,0,1,.41151.06309.946.946,0,0,1,.31566.17674.77047.77047,0,0,1,.20192.27269.84222.84222,0,0,1,.07071.3459V9.15676h-.55549Zm0-.84831q-.09089-.005-.17667-.01012-.07089-.00492-.149-.00756-.07839-.0025-.13387-.00256a.571.571,0,0,0-.40395.11364.354.354,0,0,0-.11608.26007.28569.28569,0,0,0,.10852.23733.50919.50919,0,0,0,.32066.08583.61489.61489,0,0,0,.37871-.13125.52085.52085,0,0,0,.12375-.14144.33129.33129,0,0,0,.04792-.17167Z" transform="translate(-16.83792 -4.12063)"/><path class="cls-1" d="M67.7251,5.78865H68.321V6.95007a.81544.81544,0,0,1,.23227-.13638A1.02241,1.02241,0,0,1,68.9673,6.738a1.04231,1.04231,0,0,1,.457.096,1.05655,1.05655,0,0,1,.3409.25751,1.09781,1.09781,0,0,1,.21459.38377,1.49162,1.49162,0,0,1,.07328.46965,1.34678,1.34678,0,0,1-.09351.50241,1.19754,1.19754,0,0,1-.26763.40906,1.2941,1.2941,0,0,1-.42163.27769,1.42711,1.42711,0,0,1-.55538.10351,2.98678,2.98678,0,0,1-.56817-.05047,3.22471,3.22471,0,0,1-.42163-.106ZM68.321,8.672a.83767.83767,0,0,0,.14643.03786,1.58834,1.58834,0,0,0,.23739.01267.74951.74951,0,0,0,.31811-.06315.71233.71233,0,0,0,.23227-.16918.7031.7031,0,0,0,.14388-.24489.86658.86658,0,0,0,.048-.2853,1.04336,1.04336,0,0,0-.0328-.26257.67561.67561,0,0,0-.10351-.22472.52046.52046,0,0,0-.17935-.15655.545.545,0,0,0-.26007-.05809.55838.55838,0,0,0-.41151.13887.51516.51516,0,0,0-.13887.38126Z" transform="translate(-16.83792 -4.12063)"/><rect class="cls-1" x="41.65981" y="1.66802" width="0.63622" height="0.62615"/><path class="cls-2" d="M17.78145,8.37987l-.81564-.81564a.43666.43666,0,0,1,0-.6175l2.65529-2.65555a.58219.58219,0,0,1,.82339,0L23.071,6.918a.43665.43665,0,0,1-.00009.61758l-.81613.81573a.43665.43665,0,0,1-.61747-.0001L20.03277,6.74636,18.39894,8.3799A.43665.43665,0,0,1,17.78145,8.37987Z" transform="translate(-16.83792 -4.12063)"/><path class="cls-2" d="M41.00572,25.91108H23.142a2.1426,2.1426,0,0,1-2.14016-2.14022V6.4392h-1.9683V23.77086A4.11329,4.11329,0,0,0,23.142,27.87937H42.97378Z" transform="translate(-16.83792 -4.12063)"/><polygon class="cls-3" points="16.139 17.127 12.587 12.062 11.076 14.373 13.008 17.127 16.139 17.127"/><path class="cls-2" d="M29.87752,11.79818a.58223.58223,0,0,0-.48733.26364L23.38541,21.248h2.427a.5822.5822,0,0,0,.49274-.27214l5.99963-9.1777Z" transform="translate(-16.83792 -4.12063)"/><path class="cls-2" d="M34.81247,19.03787v-6.6575a.5822.5822,0,0,0-.5822-.58219H32.30476v9.44973Z" transform="translate(-16.83792 -4.12063)"/><path class="cls-3" d="M37.4099,19.28581a.58222.58222,0,0,0-.47668-.248H34.81247l-2.5077,2.21005V21.248h6.48091Z" transform="translate(-16.83792 -4.12063)"/><polygon class="cls-3" points="9.512 7.676 6.38 7.676 9.369 11.939 10.881 9.627 9.512 7.676"/><path class="cls-3" d="M38.86533,4.66315l-14.74876.00053,1.96831,1.96775H38.86533A2.1426,2.1426,0,0,1,41.0055,8.77165V25.91109l1.96829,1.96827V8.77165A4.1133,4.1133,0,0,0,38.86533,4.66315Z" transform="translate(-16.83792 -4.12063)"/><path class="cls-4" d="M49.698,11.79208h1.786v9.45429H49.698Z" transform="translate(-16.83792 -4.12063)"/><path class="cls-4" d="M53.961,11.79208h1.65834l2.62229,4.465,2.57972-4.46495h1.65835l.45362,9.45429H61.18988l-.31178-6.54858-2.26794,3.85545h-.83624l-2.28208-3.75618L55.18,21.24637H53.50742Z" transform="translate(-16.83792 -4.12063)"/><path class="cls-4" d="M64.95091,11.79208h3.03334a3.74007,3.74007,0,0,1,1.62289.30475,2.91562,2.91562,0,0,1,.99932.75127,2.58481,2.58481,0,0,1,.51032.95675,3.52634,3.52634,0,0,1,.14167.93551,3.014,3.014,0,0,1-.28343,1.3607,2.72416,2.72416,0,0,1-.73713.9284,3.00982,3.00982,0,0,1-1.02048.53157,3.88357,3.88357,0,0,1-1.11984.17011H66.666v3.51523H64.95091Zm3.005,4.4366a1.47982,1.47982,0,0,0,1.08429-.39692,1.38611,1.38611,0,0,0,.404-1.0347,1.44308,1.44308,0,0,0-1.48824-1.50253H66.666v2.93415Z" transform="translate(-16.83792 -4.12063)"/><path class="cls-4" d="M74.5871,11.79208h1.84267l3.58606,9.45429H78.03149l-.82219-2.39548H73.69407l-.8221,2.39548H71.001Zm2.112,5.58471-1.24737-3.67121-1.26151,3.67121Z" transform="translate(-16.83792 -4.12063)"/><path class="cls-4" d="M88.82208,19.5171a3.50088,3.50088,0,0,1-.58819.66622,4.99835,4.99835,0,0,1-.88591.63075,5.41746,5.41746,0,0,1-1.11984.47478,4.43814,4.43814,0,0,1-1.28986.18433,4.97444,4.97444,0,0,1-1.94186-.36857A4.51105,4.51105,0,0,1,81.47975,20.077a4.69542,4.69542,0,0,1-.99221-1.55213,5.53687,5.53687,0,0,1,0-3.89793,4.84028,4.84028,0,0,1,.99932-1.58751A4.74865,4.74865,0,0,1,84.995,11.56527a5.14009,5.14009,0,0,1,1.27573.14886,4.67317,4.67317,0,0,1,1.056.40394,3.95516,3.95516,0,0,1,.84335.60241,5.10976,5.10976,0,0,1,.652.74416l-1.26151,1.11975a3.91361,3.91361,0,0,0-1.056-1.04883,2.68983,2.68983,0,0,0-1.50957-.39692,2.75061,2.75061,0,0,0-1.24729.2764,2.947,2.947,0,0,0-.94262.73705,3.22456,3.22456,0,0,0-.59529,1.07727,4.07185,4.07185,0,0,0-.20557,1.297,3.88013,3.88013,0,0,0,.20557,1.27564,3.08969,3.08969,0,0,0,.58819,1.03478,2.8121,2.8121,0,0,0,.91426.69449,2.73261,2.73261,0,0,0,1.1977.25516,3.364,3.364,0,0,0,1.04189-.14176,2.77115,2.77115,0,0,0,1.24729-.80086q.20529-.23383.37559-.40394Z" transform="translate(-16.83792 -4.12063)"/><path class="cls-4" d="M93.17275,13.36545H89.9693V11.79208h8.19278v1.57337H94.95871v7.88092h-1.786Z" transform="translate(-16.83792 -4.12063)"/></svg>