<?xml version="1.0" encoding="utf-8"?>
<!-- Generator: Adobe Illustrator 19.2.0, SVG Export Plug-In . SVG Version: 6.00 Build 0)  -->
<!DOCTYPE svg PUBLIC "-//W3C//DTD SVG 1.1//EN" "http://www.w3.org/Graphics/SVG/1.1/DTD/svg11.dtd">
<svg version="1.1" id="Layer_2" xmlns="http://www.w3.org/2000/svg" xmlns:xlink="http://www.w3.org/1999/xlink" x="0px" y="0px"
	 viewBox="0 0 584.2 162.5" style="enable-background:new 0 0 584.2 162.5;" xml:space="preserve"
	>
<style type="text/css">
	.st0{fill:#AA217E;}
</style>
<g>
	<path class="st0" d="M63.5,2c9.7,7.2,19,14.1,28.7,21.3C85,33,78.2,42.2,71,52c-2.4-1.7-4.5-3.2-7.2-5.1
		c3.7-5.2,7.2-10.2,10.8-15.3C62,26.9,33.2,38,20.4,59.3c-16.3,27.1-9.5,63.2,15.8,81.4c26,18.7,61.7,14.7,82-8.6
		c21-24.2,22.7-62.9-8.5-89.7c1.5-2.1,3-4.2,4.6-6.3c19.1,11,34.2,42.2,26,73.2c-8.9,33.8-40.2,55.3-75.4,51.8
		c-33.3-3.2-60-30.8-62.2-64.8C1.3,76.5,7.3,58.8,20.8,44s30.6-21.8,51.1-24.2c-4.4-3.5-8.8-7-13.6-10.8C60,6.7,61.6,4.6,63.5,2z"/>
	<g>
		<path class="st0" d="M74.2,123.2H63.8l-13.9-22.7l-14,22.7h-9.8l18.4-28.8L27.3,67.6h10.1l12.9,21l12.9-21H73L55.5,94.5
			L74.2,123.2z"/>
		<path class="st0" d="M81.7,123.2V67.6h9.1v47.8h23.5v7.8H81.7z"/>
	</g>
</g>
<g>
	<path class="st0" d="M188.9,92.4v31h-8.6V49h20.4c9.1,0,15.9,1.7,20.2,5.2c4.4,3.5,6.5,8.8,6.5,15.8c0,9.8-5,16.5-15,19.9
		l20.2,33.5h-10.2l-18-30.9h-15.5L188.9,92.4L188.9,92.4z M188.9,85h11.9c6.1,0,10.6-1.2,13.4-3.6c2.8-2.4,4.3-6.1,4.3-10.9
		c0-4.9-1.5-8.5-4.4-10.6c-2.9-2.2-7.6-3.3-14-3.3h-11.2V85z"/>
	<path class="st0" d="M286.1,123.4h-41.5V49h41.5v7.7h-32.8v24h30.8v7.6h-30.8v27.4h32.8V123.4z"/>
	<path class="st0" d="M302.6,123.4V49h8.6v66.6h32.9v7.8H302.6z"/>
	<path class="st0" d="M398.1,123.4h-41.5V49h41.5v7.7h-32.8v24h30.8v7.6h-30.8v27.4h32.8V123.4z"/>
	<path class="st0" d="M461.4,123.4l-9.3-23.7h-29.8l-9.1,23.7h-8.8l29.4-74.7h7.3l29.2,74.7H461.4z M449.4,91.9l-8.7-23.1
		c-1.1-2.9-2.3-6.5-3.5-10.7c-0.7,3.3-1.8,6.8-3.2,10.7l-8.8,23.1H449.4z"/>
	<path class="st0" d="M522.6,103.6c0,6.5-2.4,11.7-7.1,15.3c-4.8,3.7-11.2,5.5-19.3,5.5c-8.8,0-15.6-1.1-20.4-3.4v-8.3
		c3.1,1.3,6.4,2.3,10,3.1c3.6,0.7,7.2,1.1,10.7,1.1c5.8,0,10.1-1.1,13-3.3c2.9-2.2,4.4-5.2,4.4-9.1c0-2.6-0.5-4.7-1.6-6.3
		c-1-1.6-2.8-3.2-5.2-4.6s-6.1-3-11.1-4.7c-6.9-2.5-11.9-5.4-14.8-8.8c-3-3.4-4.5-7.8-4.5-13.3c0-5.7,2.2-10.3,6.5-13.7
		s10-5.1,17.1-5.1c7.4,0,14.2,1.4,20.4,4.1l-2.7,7.5c-6.1-2.6-12.1-3.9-17.9-3.9c-4.6,0-8.2,1-10.7,3c-2.6,2-3.9,4.7-3.9,8.2
		c0,2.6,0.5,4.7,1.4,6.3s2.6,3.2,4.8,4.5c2.3,1.4,5.7,2.9,10.4,4.6c7.8,2.8,13.2,5.8,16.1,9C521.1,94.3,522.6,98.5,522.6,103.6z"/>
	<path class="st0" d="M579.2,123.4h-41.5V49h41.5v7.7h-32.8v24h30.8v7.6h-30.8v27.4h32.8V123.4z"/>
</g>
</svg>
