<svg id="Layer_2" data-name="Layer 2" xmlns="http://www.w3.org/2000/svg" viewBox="0 0 89.70814 23.75873"><defs><style>.cls-1{fill:#778798;}.cls-2{fill:#06b052;}.cls-3{fill:#059949;}.cls-4{fill:#4a5661;}</style></defs><title>xlr-2color-mark-115x32</title><path class="cls-1" d="M66.55544,8.48012a.89018.89018,0,0,0,.2803.1843.96394.96394,0,0,0,.38627.07321.78346.78346,0,0,0,.308-.05048.17184.17184,0,0,0,.11619-.16667.18616.18616,0,0,0-.10607-.17673.96116.96116,0,0,0-.18179-.08078,3.15848,3.15848,0,0,0-.31311-.08583,2.18052,2.18052,0,0,1-.2524-.08084.95166.95166,0,0,1-.24494-.13882.74849.74849,0,0,1-.1868-.21209A.56866.56866,0,0,1,66.28781,7.45a.58776.58776,0,0,1,.08583-.31561.7585.7585,0,0,1,.22472-.23227,1.11,1.11,0,0,1,.3131-.14394,1.25752,1.25752,0,0,1,.35091-.05047,1.88027,1.88027,0,0,1,.53281.06565,1.26766,1.26766,0,0,1,.39639.19692l-.3081.41912a1.036,1.036,0,0,0-.2524-.12876,1.06022,1.06022,0,0,0-.3687-.05809.509.509,0,0,0-.29543.06315.18794.18794,0,0,0-.08328.154q0,.11115.13888.17423a2.58293,2.58293,0,0,0,.43174.13381,1.91246,1.91246,0,0,1,.32567.101.90272.90272,0,0,1,.2475.1515.62252.62252,0,0,1,.159.21464.71732.71732,0,0,1,.0556.29537.60622.60622,0,0,1-.08084.31055.72813.72813,0,0,1-.21959.23483,1.098,1.098,0,0,1-.32323.149,1.41148,1.41148,0,0,1-.39138.053,1.81565,1.81565,0,0,1-.60086-.09339A1.00138,1.00138,0,0,1,66.197,8.869Z" transform="translate(-12.64593 -4.12063)"/><path class="cls-1" d="M46.62678,7.41461l-1.07552-1.626h.76753l.70193,1.10082.67658-1.10082h.69181L47.354,7.39949,48.5103,9.15676h-.76753l-.77764-1.22707L46.1976,9.15676h-.69182Z" transform="translate(-12.64593 -4.12063)"/><path class="cls-1" d="M50.88062,8.81335l-.08328.08334a.995.995,0,0,1-.19691.14393,1.52968,1.52968,0,0,1-.32823.13632,1.65391,1.65391,0,0,1-.47722.06059,1.33792,1.33792,0,0,1-.515-.09589A1.13134,1.13134,0,0,1,48.63107,8.47a1.49441,1.49441,0,0,1-.0884-.52514,1.31983,1.31983,0,0,1,.0884-.48733,1.1903,1.1903,0,0,1,.24739-.39133,1.1588,1.1588,0,0,1,.3787-.26257,1.20531,1.20531,0,0,1,.48734-.096,1.16164,1.16164,0,0,1,.54782.11863,1.01785,1.01785,0,0,1,.36114.31061,1.27675,1.27675,0,0,1,.19692.43424A2.03464,2.03464,0,0,1,50.911,8.066v.0859H49.14353a.485.485,0,0,0,.05815.23733.60624.60624,0,0,0,.15144.18179.68236.68236,0,0,0,.21215.11613A.72362.72362,0,0,0,49.8,8.72752a1.19815,1.19815,0,0,0,.52014-.10858.70416.70416,0,0,0,.149-.09084q.058-.048.0884-.07828ZM50.3,7.72265a.50066.50066,0,0,0-.03536-.18179.51467.51467,0,0,0-.10352-.16411.53781.53781,0,0,0-.17423-.1212.58284.58284,0,0,0-.24239-.048.66347.66347,0,0,0-.26007.048.61247.61247,0,0,0-.18935.1212.52283.52283,0,0,0-.11619.16411.44472.44472,0,0,0-.04036.18179Z" transform="translate(-12.64593 -4.12063)"/><path class="cls-1" d="M51.46412,5.78865H52.06V6.95007a.81544.81544,0,0,1,.23227-.13638,1.02244,1.02244,0,0,1,.41407-.07572,1.04231,1.04231,0,0,1,.457.096,1.05655,1.05655,0,0,1,.3409.25751,1.09781,1.09781,0,0,1,.21459.38377,1.49133,1.49133,0,0,1,.07328.46965,1.34678,1.34678,0,0,1-.09351.50241,1.19754,1.19754,0,0,1-.26763.40906,1.294,1.294,0,0,1-.42163.27769,1.42711,1.42711,0,0,1-.55538.10351,2.98678,2.98678,0,0,1-.56817-.05047,3.22409,3.22409,0,0,1-.42162-.106ZM52.06,8.672a.83755.83755,0,0,0,.14644.03786,1.58818,1.58818,0,0,0,.23738.01267.74951.74951,0,0,0,.31811-.06315.71233.71233,0,0,0,.23227-.16918.703.703,0,0,0,.14388-.24489.86658.86658,0,0,0,.048-.2853,1.04336,1.04336,0,0,0-.0328-.26257.67561.67561,0,0,0-.10351-.22472.52046.52046,0,0,0-.17935-.15655.545.545,0,0,0-.26007-.05809.55838.55838,0,0,0-.41151.13887.5152.5152,0,0,0-.13887.38126Z" transform="translate(-12.64593 -4.12063)"/><path class="cls-1" d="M54.32586,6.78845h.59586V9.15676h-.59586Z" transform="translate(-12.64593 -4.12063)"/><path class="cls-1" d="M57.01026,8.93455a.81654.81654,0,0,1-.29287.20709,1.03694,1.03694,0,0,1-.4393.09084.958.958,0,0,1-.29031-.04542.81927.81927,0,0,1-.26263-.13888.69444.69444,0,0,1-.19191-.23983.759.759,0,0,1-.07316-.3434.83.83,0,0,1,.07572-.361.7497.7497,0,0,1,.212-.26763.94047.94047,0,0,1,.32823-.16411,1.52246,1.52246,0,0,1,.42418-.0556q.07071,0,.15655.00256t.16667.00756q.0909.00509.1868.01012V7.58128a.32312.32312,0,0,0-.14132-.27775.62038.62038,0,0,0-.3687-.101,1.0331,1.0331,0,0,0-.40394.06565,1.80542,1.80542,0,0,0-.26763.14138l-.27264-.404q.07056-.05045.16156-.10351a1.251,1.251,0,0,1,.212-.096,1.75294,1.75294,0,0,1,.28031-.07071,2.18778,2.18778,0,0,1,.37114-.02774,1.26629,1.26629,0,0,1,.41151.06309.94585.94585,0,0,1,.31566.17674.77023.77023,0,0,1,.20192.27269.84223.84223,0,0,1,.07072.3459V9.15676h-.5555Zm0-.84831q-.0909-.005-.17668-.01012-.07088-.00492-.149-.00756-.07839-.0025-.13387-.00256a.571.571,0,0,0-.404.11364.354.354,0,0,0-.11608.26007.28569.28569,0,0,0,.10852.23733.50924.50924,0,0,0,.32067.08583.615.615,0,0,0,.37871-.13125.52085.52085,0,0,0,.12375-.14144.33129.33129,0,0,0,.04792-.17167Z" transform="translate(-12.64593 -4.12063)"/><path class="cls-1" d="M58.18691,5.78865h.63622V8.5912H60.4845v.56556H58.18691Z" transform="translate(-12.64593 -4.12063)"/><path class="cls-1" d="M62.35646,8.93455a.81645.81645,0,0,1-.29287.20709,1.03691,1.03691,0,0,1-.4393.09084.95806.95806,0,0,1-.29031-.04542.81938.81938,0,0,1-.26263-.13888.69455.69455,0,0,1-.19191-.23983.759.759,0,0,1-.07316-.3434.83.83,0,0,1,.07572-.361.74972.74972,0,0,1,.212-.26763.94051.94051,0,0,1,.32822-.16411,1.52246,1.52246,0,0,1,.42418-.0556q.07073,0,.15656.00256t.16667.00756q.0909.00509.18679.01012V7.58128a.32312.32312,0,0,0-.14132-.27775.62036.62036,0,0,0-.3687-.101,1.03317,1.03317,0,0,0-.40394.06565,1.80592,1.80592,0,0,0-.26763.14138l-.27263-.404q.07055-.05045.16155-.10351a1.25116,1.25116,0,0,1,.212-.096,1.75252,1.75252,0,0,1,.2803-.07071,2.188,2.188,0,0,1,.37115-.02774,1.26623,1.26623,0,0,1,.4115.06309.9459.9459,0,0,1,.31567.17674.77032.77032,0,0,1,.20191.27269.84207.84207,0,0,1,.07072.3459V9.15676h-.5555Zm0-.84831q-.09089-.005-.17667-.01012-.07089-.00492-.149-.00756-.07838-.0025-.13387-.00256a.571.571,0,0,0-.40394.11364.354.354,0,0,0-.11608.26007.28566.28566,0,0,0,.10852.23733.50919.50919,0,0,0,.32066.08583.61489.61489,0,0,0,.37871-.13125.52085.52085,0,0,0,.12375-.14144.33129.33129,0,0,0,.04792-.17167Z" transform="translate(-12.64593 -4.12063)"/><path class="cls-1" d="M63.53311,5.78865H64.129V6.95007a.81544.81544,0,0,1,.23227-.13638A1.02239,1.02239,0,0,1,64.7753,6.738a1.04233,1.04233,0,0,1,.457.096,1.05655,1.05655,0,0,1,.3409.25751,1.09781,1.09781,0,0,1,.21459.38377,1.49161,1.49161,0,0,1,.07327.46965,1.34678,1.34678,0,0,1-.0935.50241,1.19754,1.19754,0,0,1-.26763.40906,1.2941,1.2941,0,0,1-.42163.27769,1.42711,1.42711,0,0,1-.55538.10351,2.98678,2.98678,0,0,1-.56817-.05047,3.2243,3.2243,0,0,1-.42163-.106ZM64.129,8.672a.83744.83744,0,0,0,.14643.03786,1.58834,1.58834,0,0,0,.23739.01267.74954.74954,0,0,0,.31811-.06315.71233.71233,0,0,0,.23227-.16918.70326.70326,0,0,0,.14388-.24489.86658.86658,0,0,0,.048-.2853,1.04336,1.04336,0,0,0-.0328-.26257.67562.67562,0,0,0-.10352-.22472.52034.52034,0,0,0-.17934-.15655.54508.54508,0,0,0-.26007-.05809.55838.55838,0,0,0-.41151.13887.51516.51516,0,0,0-.13887.38126Z" transform="translate(-12.64593 -4.12063)"/><rect class="cls-1" x="41.65981" y="1.66802" width="0.63622" height="0.62615"/><path class="cls-2" d="M13.58946,8.37987l-.81564-.81564a.43665.43665,0,0,1,0-.6175l2.65528-2.65555a.58221.58221,0,0,1,.8234,0L18.87905,6.918a.43666.43666,0,0,1-.00009.61758l-.81614.81573a.43664.43664,0,0,1-.61746-.0001L15.84078,6.74636,14.207,8.3799A.43665.43665,0,0,1,13.58946,8.37987Z" transform="translate(-12.64593 -4.12063)"/><path class="cls-2" d="M36.81373,25.91108H18.95a2.14261,2.14261,0,0,1-2.14017-2.14022V6.4392H14.84156V23.77086A4.11329,4.11329,0,0,0,18.95,27.87937H38.78179Z" transform="translate(-12.64593 -4.12063)"/><polygon class="cls-3" points="16.139 17.127 12.587 12.062 11.076 14.373 13.008 17.127 16.139 17.127"/><path class="cls-2" d="M25.68553,11.79818a.58223.58223,0,0,0-.48733.26364L19.19342,21.248h2.427a.5822.5822,0,0,0,.49274-.27214l5.99963-9.1777Z" transform="translate(-12.64593 -4.12063)"/><path class="cls-2" d="M30.62047,19.03787v-6.6575a.58219.58219,0,0,0-.58219-.58219H28.11277v9.44973Z" transform="translate(-12.64593 -4.12063)"/><path class="cls-3" d="M33.21791,19.28581a.58222.58222,0,0,0-.47668-.248H30.62047l-2.50769,2.21005V21.248h6.48091Z" transform="translate(-12.64593 -4.12063)"/><polygon class="cls-3" points="9.512 7.676 6.38 7.676 9.369 11.939 10.881 9.627 9.512 7.676"/><path class="cls-3" d="M34.67334,4.66315l-14.74876.00053,1.96831,1.96775H34.67334A2.14259,2.14259,0,0,1,36.8135,8.77165V25.91109l1.9683,1.96827V8.77165A4.1133,4.1133,0,0,0,34.67334,4.66315Z" transform="translate(-12.64593 -4.12063)"/><path class="cls-4" d="M45.50617,11.79237h3.13252a3.824,3.824,0,0,1,1.51651.26912,2.89929,2.89929,0,0,1,1.00634.68734,2.693,2.693,0,0,1,.55991.91426,2.82536,2.82536,0,0,1,.17718.94962,3.14754,3.14754,0,0,1-.38985,1.58051,2.7717,2.7717,0,0,1-1.19764,1.09843l2.18275,3.95441h-2.0127L48.56784,17.5183h-1.3466v3.72776H45.50617Zm3.14663,4.252a1.384,1.384,0,0,0,1.056-.39684,1.35116,1.35116,0,0,0,.3756-.96387,1.31732,1.31732,0,0,0-.39684-.9921,1.42848,1.42848,0,0,0-1.03471-.38287H47.22124v2.73568Z" transform="translate(-12.64593 -4.12063)"/><path class="cls-4" d="M53.93571,11.79237h6.12334v1.5731H55.72162v2.22537h3.1891v1.58735h-3.1891v2.46627h4.66356v1.6016H53.93571Z" transform="translate(-12.64593 -4.12063)"/><path class="cls-4" d="M62.10357,11.79237h1.78605v7.86634h4.66314v1.58735H62.10357Z" transform="translate(-12.64593 -4.12063)"/><path class="cls-4" d="M69.67679,11.79237h6.12305v1.5731h-4.337v2.22537H74.6518v1.58735H71.46285v2.46627H76.126v1.6016H69.67679Z" transform="translate(-12.64593 -4.12063)"/><path class="cls-4" d="M80.8184,11.79237h1.84251L86.247,21.24606H84.2628l-.82219-2.39528H79.92552l-.82219,2.39528H77.23261Zm2.11191,5.58424-1.24724-3.671-1.2615,3.671Z" transform="translate(-12.64593 -4.12063)"/><path class="cls-4" d="M88.13488,18.58138a5.3971,5.3971,0,0,0,.404.41822,3.88171,3.88171,0,0,0,.52456.41109,2.98732,2.98732,0,0,0,.652.31872,2.43319,2.43319,0,0,0,.815.12772,1.74849,1.74849,0,0,0,1.24012-.38287,1.22276,1.22276,0,0,0,.404-.92111,1.20459,1.20459,0,0,0-.11347-.53168,1.05032,1.05032,0,0,0-.38258-.41109,2.97366,2.97366,0,0,0-.70159-.31873,9.47887,9.47887,0,0,0-1.07021-.2694A3.71414,3.71414,0,0,1,88.78,16.62541a2.86515,2.86515,0,0,1-.78683-.63773,2.5571,2.5571,0,0,1-.46754-.81506,2.744,2.744,0,0,1-.15594-.91427,2.70077,2.70077,0,0,1,.19842-1.02744,2.36394,2.36394,0,0,1,.60951-.86467,3.08017,3.08017,0,0,1,1.02744-.60238,4.20921,4.20921,0,0,1,1.4528-.22664,4.30809,4.30809,0,0,1,1.28972.16991,3.94116,3.94116,0,0,1,.9003.39683,2.6699,2.6699,0,0,1,.55962.44645q.19842.22023.28366.319L92.51463,13.975q-.071-.05645-.22664-.20555a2.273,2.273,0,0,0-.39-.2905,2.97118,2.97118,0,0,0-.55963-.25515,2.23878,2.23878,0,0,0-.73722-.11347,1.85105,1.85105,0,0,0-.63774.09921,1.40779,1.40779,0,0,0-.44644.25515,1.00926,1.00926,0,0,0-.26228.34724.89173.89173,0,0,0-.085.36149,1.06276,1.06276,0,0,0,.09209.45357,1.01174,1.01174,0,0,0,.31188.36861,2.163,2.163,0,0,0,.60238.30476,6.99646,6.99646,0,0,0,.96388.248,5.16736,5.16736,0,0,1,1.06279.34011,3.26182,3.26182,0,0,1,.9.58813,2.69689,2.69689,0,0,1,.62377.87863,2.99582,2.99582,0,0,1,.23377,1.2404,2.5866,2.5866,0,0,1-.25515,1.148,2.90048,2.90048,0,0,1-.70844.92139,3.26268,3.26268,0,0,1-1.07733.61636,4.0688,4.0688,0,0,1-1.36071.2198,4.50337,4.50337,0,0,1-1.2826-.1702,4.86927,4.86927,0,0,1-1.03486-.43219,4.16344,4.16344,0,0,1-.79367-.57416,5.66719,5.66719,0,0,1-.55991-.59526Z" transform="translate(-12.64593 -4.12063)"/><path class="cls-4" d="M95.90488,11.79237h6.12306v1.5731h-4.337v2.22537h3.189v1.58735h-3.189v2.46627h4.66313v1.6016H95.90488Z" transform="translate(-12.64593 -4.12063)"/></svg>