<?xml version="1.0" encoding="UTF-8"?>
<svg width="90px" height="24px" viewBox="0 0 90 24" version="1.1" xmlns="http://www.w3.org/2000/svg" xmlns:xlink="http://www.w3.org/1999/xlink">
    <!-- Generator: Sketch 50.2 (55047) - http://www.bohemiancoding.com/sketch -->
    <title>xlr-2color-mark-115x32@1,5x</title>
    <desc>Created with Sketch.</desc>
    <defs></defs>
    <g id="Page-1" stroke="none" stroke-width="1" fill="none" fill-rule="evenodd">
        <g id="xlr-2color-mark-115x32" fill-rule="nonzero">
            <path d="M53.90951,4.35949 C53.9904189,4.4381323 54.0855409,4.50067598 54.18981,4.54379 C54.3121701,4.59446996 54.4436612,4.61939155 54.57608,4.617 C54.6810932,4.62100041 54.7858379,4.60383315 54.88408,4.56652 C54.9550229,4.54226019 55.0020476,4.47480516 55.00027,4.39985 C55.0037274,4.32495543 54.961919,4.25529579 54.8942,4.22312 C54.8365604,4.18997814 54.7756375,4.16290651 54.71241,4.14234 C54.6095804,4.10838126 54.5050724,4.07973343 54.3993,4.05651 C54.3136054,4.03470596 54.2293164,4.00770944 54.1469,3.97567 C54.0588222,3.94179675 53.9762724,3.89501155 53.90196,3.83685 C53.8267899,3.77865717 53.7633933,3.70667758 53.71516,3.62476 C53.6643491,3.53478337 53.6390151,3.43266246 53.64188,3.32937 C53.6400528,3.21816493 53.6698153,3.10872372 53.72771,3.01376 C53.7850609,2.92109211 53.8617072,2.84187074 53.95243,2.78149 C54.0486671,2.71750336 54.1543065,2.66893824 54.26553,2.63755 C54.3795298,2.60424022 54.4976736,2.58724807 54.61644,2.58708 C54.7962692,2.58336626 54.9757009,2.60547488 55.14925,2.65273 C55.2919055,2.69461675 55.4260803,2.76127255 55.54564,2.84965 L55.23754,3.26877 C55.1597007,3.21449303 55.0747733,3.17116792 54.98514,3.14001 C54.8666423,3.09899547 54.7418082,3.07932742 54.61644,3.08192 C54.5138418,3.07258736 54.4108266,3.09460748 54.32101,3.14507 C54.2695753,3.1795493 54.2384251,3.23715174 54.23773,3.29907 C54.23773,3.37317 54.2840233,3.43124667 54.37661,3.4733 C54.5163366,3.53043391 54.660803,3.57520864 54.80835,3.60711 C54.9196973,3.63101294 55.0286871,3.66481391 55.13402,3.70811 C55.2241501,3.74493264 55.3077298,3.79609351 55.38152,3.85961 C55.4494264,3.91880903 55.5036751,3.99204134 55.54052,4.07425 C55.5797035,4.16767566 55.5986527,4.26834173 55.59612,4.36962 C55.5975579,4.47851889 55.5696329,4.58579415 55.51528,4.68017 C55.460495,4.77383064 55.3854696,4.85406291 55.29569,4.915 C55.196767,4.98191499 55.0875897,5.0322427 54.97246,5.064 C54.8451286,5.09992185 54.7133792,5.11776313 54.58108,5.117 C54.3769675,5.11986854 54.1738327,5.08829586 53.98022,5.02361 C53.8158193,4.97042512 53.6679777,4.87560533 53.55107,4.74837 L53.90951,4.35949 Z" id="Shape" fill="#778798"></path>
            <polygon id="Shape" fill="#778798" points="33.98085 3.29398 32.90533 1.66798 33.67286 1.66798 34.37479 2.7688 35.05137 1.66798 35.74318 1.66798 34.70807 3.27886 35.86437 5.03613 35.09684 5.03613 34.3192 3.80906 33.55167 5.03613 32.85985 5.03613"></polygon>
            <path d="M38.23469,4.69272 L38.15141,4.77606 C38.0919242,4.83193033 38.0257908,4.88027008 37.9545,4.91999 C37.8507585,4.97802922 37.7406051,5.02377793 37.62627,5.05631 C37.4709996,5.09965615 37.3102261,5.12006867 37.14905,5.1169 C36.9727418,5.11918457 36.7977209,5.08659669 36.63405,5.02101 C36.3311221,4.90101875 36.094635,4.65624793 35.98514,4.34937 C35.9244708,4.1810276 35.8945288,4.00315744 35.89674,3.82423 C35.8951901,3.65766372 35.9251848,3.49230947 35.98514,3.3369 C36.0411959,3.19152221 36.1252489,3.05856435 36.23253,2.94557 C36.3399121,2.83357646 36.4686914,2.74428791 36.61123,2.683 C36.7652498,2.61751209 36.9312201,2.58481798 37.09857,2.587 C37.2881224,2.58123416 37.4762041,2.6219631 37.64639,2.70563 C37.7896434,2.77914459 37.9134125,2.88559609 38.00753,3.01624 C38.0998553,3.14733707 38.1666601,3.29465211 38.20445,3.45048 C38.2448688,3.61233433 38.2652283,3.7785453 38.26507,3.94537 L38.26507,4.03127 L36.4976,4.03127 C36.4964107,4.11404633 36.5164293,4.19574932 36.55575,4.2686 C36.5938004,4.33855486 36.6452603,4.40032779 36.70719,4.45039 C36.7704276,4.50142354 36.8422726,4.54075115 36.91934,4.56652 C36.9948164,4.5928494 37.074134,4.60649081 37.15407,4.60689 C37.3333914,4.61008244 37.5111419,4.57297676 37.67421,4.49831 C37.7274511,4.47432523 37.777502,4.44381097 37.82321,4.40747 C37.8618767,4.37547 37.8913433,4.34937667 37.91161,4.32919 L38.23469,4.69272 Z M37.65407,3.60202 C37.6536909,3.53975166 37.6416992,3.47810045 37.61871,3.42023 C37.5949204,3.35945805 37.5597895,3.30376517 37.51519,3.25612 C37.4657407,3.20454774 37.4065109,3.16334557 37.34096,3.13492 C37.2645226,3.10178004 37.1818687,3.08541226 37.09857,3.08692 C37.0095372,3.08530528 36.9210905,3.10162952 36.8385,3.13492 C36.7684457,3.16329069 36.7042477,3.20438282 36.64915,3.25612 C36.6001664,3.30279022 36.5607068,3.35852412 36.53296,3.42023 C36.5068285,3.47729947 36.4930737,3.53925413 36.4926,3.60202 L37.65407,3.60202 Z" id="Shape" fill="#778798"></path>
            <path d="M38.81819,1.66802 L39.41407,1.66802 L39.41407,2.82944 C39.4833982,2.771419 39.5618921,2.7253304 39.64634,2.69306 C39.7776175,2.63937371 39.9186288,2.61358731 40.06041,2.61734 C40.2180434,2.61436489 40.3742978,2.64718858 40.51741,2.71334 C40.6473933,2.77506688 40.7633979,2.86269472 40.85831,2.97085 C40.9549879,3.08299337 41.0279817,3.21353454 41.0729,3.35462 C41.1222787,3.50624539 41.1470195,3.66480901 41.14618,3.82427 C41.1473603,3.99617314 41.1156189,4.16671276 41.05267,4.32668 C40.9925344,4.47998424 40.9014266,4.61923828 40.78504,4.73574 C40.664092,4.85508827 40.5208223,4.94944719 40.36341,5.01343 C40.1870305,5.08459734 39.9982046,5.11979012 39.80803,5.11694 C39.6174636,5.1182812 39.4272062,5.10138082 39.23986,5.06647 C39.0970952,5.040663 38.956235,5.00524918 38.81824,4.96047 L38.81819,1.66802 Z M39.41407,4.55137 C39.4616416,4.56838084 39.5106547,4.5810525 39.56051,4.58923 C39.639209,4.59937754 39.7185579,4.60361273 39.79789,4.6019 C39.9072647,4.60431857 40.0158429,4.58276403 40.116,4.53875 C40.204112,4.49872052 40.2831431,4.44115614 40.34827,4.36957 C40.4123925,4.29857967 40.4613516,4.21524917 40.49215,4.12468 C40.5240238,4.03294156 40.5402499,3.93649782 40.54015,3.83938 C40.5404045,3.75081933 40.5293826,3.66258659 40.50735,3.57681 C40.4869734,3.49617038 40.4518818,3.41998652 40.40384,3.35209 C40.3569544,3.28675112 40.2955653,3.23316613 40.22449,3.19554 C40.1439423,3.15495486 40.0545812,3.1349949 39.96442,3.13745 C39.8141304,3.12631192 39.6657198,3.17639522 39.55291,3.27632 C39.4564161,3.37906008 39.4062284,3.51684774 39.41404,3.65758 L39.41407,4.55137 Z" id="Shape" fill="#778798"></path>
            <polygon id="Shape" fill="#778798" points="41.67993 2.66782 42.27579 2.66782 42.27579 5.03613 41.67993 5.03613"></polygon>
            <path d="M44.36433,4.81392 C44.2832625,4.90380385 44.1832259,4.97454034 44.07146,5.02101 C43.933409,5.08298119 43.7834674,5.11398664 43.63216,5.11185 C43.5336301,5.11172923 43.4357085,5.09640906 43.34185,5.06643 C43.2465745,5.03652896 43.157568,4.98946191 43.07922,4.92755 C42.9981502,4.86293364 42.9325764,4.78098594 42.88731,4.68772 C42.836419,4.58054469 42.8113619,4.46293142 42.81415,4.34432 C42.8119937,4.21983046 42.8378727,4.09645079 42.88987,3.98332 C42.939012,3.87899194 43.0115598,3.78740718 43.10187,3.71569 C43.1994424,3.63996447 43.3109753,3.58419973 43.4301,3.55158 C43.5681717,3.5131744 43.7109745,3.49445631 43.85428,3.49598 C43.90142,3.49598 43.9536033,3.49683333 44.01083,3.49854 C44.0680567,3.50024667 44.1236133,3.50276667 44.1775,3.5061 C44.2381,3.50949333 44.3003667,3.51286667 44.3643,3.51622 L44.3643,3.46065 C44.3679019,3.34996678 44.3145704,3.2451491 44.22298,3.1829 C44.1137754,3.11126262 43.9847475,3.07591733 43.85428,3.0819 C43.7166027,3.07662892 43.5792619,3.09895012 43.45034,3.14755 C43.3573299,3.18710239 43.2678054,3.23439521 43.18271,3.28893 L42.91007,2.88493 C42.95711,2.85129667 43.0109633,2.81679333 43.07163,2.78142 C43.1391602,2.74290219 43.2101339,2.71076316 43.28363,2.68542 C43.3749604,2.65417238 43.4687158,2.63052197 43.56394,2.61471 C43.6866408,2.59493824 43.8108033,2.585658 43.93508,2.58697 C44.0747913,2.58515286 44.2138401,2.60647091 44.34659,2.65006 C44.4622015,2.68811476 44.5693817,2.74812558 44.66225,2.8268 C44.7489902,2.90155691 44.8179705,2.99471376 44.86417,3.09949 C44.9119164,3.20849875 44.9360192,3.32638854 44.93489,3.44539 L44.93489,5.03613 L44.37939,5.03613 L44.36433,4.81392 Z M44.36433,3.96561 C44.30373,3.96227667 44.2448367,3.95890333 44.18765,3.95549 C44.1403967,3.95221 44.09073,3.94969 44.03865,3.94793 C43.98639,3.94626333 43.9417667,3.94541 43.90478,3.94537 C43.7605704,3.93059314 43.6161389,3.97121987 43.50078,4.05901 C43.4273833,4.12562581 43.3852772,4.21996184 43.3847,4.31908 C43.3805177,4.4110548 43.4209176,4.49940814 43.49322,4.55641 C43.5875228,4.620034 43.7004137,4.65025019 43.81389,4.64224 C43.9512413,4.64200722 44.0845615,4.59580225 44.1926,4.51099 C44.2420849,4.47173687 44.2840174,4.42381018 44.31635,4.36955 C44.3477054,4.31777854 44.3642786,4.2584064 44.36427,4.19788 L44.36433,3.96561 Z" id="Shape" fill="#778798"></path>
            <polygon id="Shape" fill="#778798" points="45.54098 1.66802 46.1772 1.66802 46.1772 4.47057 47.83857 4.47057 47.83857 5.03613 45.54098 5.03613"></polygon>
            <path d="M49.71053,4.81392 C49.6294646,4.90380611 49.5294273,4.97454298 49.41766,5.02101 C49.2796093,5.08298212 49.1296675,5.11398761 48.97836,5.11185 C48.8798302,5.11172827 48.7819087,5.09640813 48.68805,5.06643 C48.5927754,5.03652666 48.5037694,4.98945983 48.42542,4.92755 C48.3443529,4.86293098 48.2787795,4.78098394 48.23351,4.68772 C48.182619,4.58054469 48.1575619,4.46293142 48.16035,4.34432 C48.1581937,4.21983046 48.1840727,4.09645079 48.23607,3.98332 C48.2852126,3.87899232 48.3577603,3.7874077 48.44807,3.71569 C48.54564,3.63996652 48.6571692,3.58420193 48.77629,3.55158 C48.9143617,3.5131744 49.0571645,3.49445631 49.20047,3.49598 C49.2476233,3.49598 49.29981,3.49683333 49.35703,3.49854 C49.41425,3.50024667 49.4698067,3.50276667 49.5237,3.5061 C49.5843,3.50949333 49.6465633,3.51286667 49.71049,3.51622 L49.71049,3.46065 C49.7140919,3.34996678 49.6607604,3.2451491 49.56917,3.1829 C49.4599659,3.11126136 49.3309377,3.07591596 49.20047,3.0819 C49.0627929,3.07663081 48.9254524,3.09895195 48.79653,3.14755 C48.7035209,3.18710452 48.6139966,3.23439725 48.5289,3.28893 L48.25627,2.88493 C48.3033033,2.85129667 48.3571533,2.81679333 48.41782,2.78142 C48.4853506,2.74290302 48.5563243,2.71076402 48.62982,2.68542 C48.7211466,2.65417107 48.8148988,2.63052063 48.91012,2.61471 C49.0328242,2.59493873 49.15699,2.5856585 49.28127,2.58697 C49.420978,2.58515286 49.5600235,2.60647092 49.69277,2.65006 C49.8083846,2.68811474 49.915568,2.7481255 50.00844,2.8268 C50.0951743,2.90156003 50.1641507,2.99471626 50.21035,3.09949 C50.258101,3.20849728 50.282204,3.32638807 50.28107,3.44539 L50.28107,5.03613 L49.72557,5.03613 L49.71053,4.81392 Z M49.71053,3.96561 C49.6499367,3.96227667 49.5910467,3.95890333 49.53386,3.95549 C49.4866,3.95221 49.4369333,3.94969 49.38486,3.94793 C49.3326067,3.94626333 49.2879833,3.94541 49.25099,3.94537 C49.1068003,3.93060875 48.9623932,3.97123466 48.84705,4.05901 C48.7736533,4.12562581 48.7315472,4.21996184 48.73097,4.31908 C48.7267827,4.41105578 48.7671835,4.49941129 48.83949,4.55641 C48.9337884,4.62003539 49.0466767,4.6502518 49.16015,4.64224 C49.2975027,4.64201569 49.4308257,4.59580979 49.53886,4.51099 C49.5883449,4.47173687 49.6302774,4.42381018 49.66261,4.36955 C49.6939654,4.31777854 49.7105386,4.2584064 49.71053,4.19788 L49.71053,3.96561 Z" id="Shape" fill="#778798"></path>
            <path d="M50.88718,1.66802 L51.48307,1.66802 L51.48307,2.82944 C51.5523982,2.771419 51.6308921,2.7253304 51.71534,2.69306 C51.8466069,2.63938802 51.9876042,2.61361191 52.12937,2.61737 C52.2870033,2.61439559 52.4432575,2.64721924 52.58637,2.71337 C52.7163533,2.77509688 52.8323579,2.86272472 52.92727,2.97088 C53.0239479,3.08302337 53.0969417,3.21356454 53.14186,3.35465 C53.1912306,3.50627707 53.2159679,3.66483992 53.21513,3.8243 C53.2163134,3.9962025 53.1845755,4.16674209 53.12163,4.32671 C53.0614944,4.48001424 52.9703866,4.61926828 52.854,4.73577 C52.7330503,4.85511623 52.5897811,4.94947487 52.43237,5.01346 C52.2559905,5.08462734 52.0671646,5.11982012 51.87699,5.11697 C51.6864236,5.1183112 51.4961662,5.10141082 51.30882,5.0665 C51.1660519,5.04069282 51.0251885,5.005279 50.88719,4.9605 L50.88718,1.66802 Z M51.48307,4.55137 C51.5306381,4.56838084 51.579648,4.5810525 51.6295,4.58923 C51.7082024,4.59937744 51.7875546,4.60361263 51.86689,4.6019 C51.9762646,4.60431759 52.0848426,4.58276309 52.185,4.53875 C52.273112,4.49872052 52.3521431,4.44115614 52.41727,4.36957 C52.4813866,4.29857533 52.5303449,4.21524612 52.56115,4.12468 C52.5930238,4.03294156 52.6092499,3.93649782 52.60915,3.83938 C52.6094045,3.75081933 52.5983826,3.66258659 52.57635,3.57681 C52.5559702,3.49616976 52.5208751,3.41998589 52.47283,3.35209 C52.4259505,3.28674934 52.3645642,3.23316378 52.29349,3.19554 C52.2129412,3.15495803 52.1235809,3.13499825 52.03342,3.13745 C51.8831304,3.12631192 51.7347198,3.17639522 51.62191,3.27632 C51.5254121,3.37905757 51.4752237,3.51684704 51.48304,3.65758 L51.48307,4.55137 Z" id="Shape" fill="#778798"></path>
            <rect id="Rectangle-path" fill="#778798" x="41.65981" y="1.66802" width="1" height="1"></rect>
            <path d="M0.94353,4.25924 L0.12789,3.4436 C-0.0426215309,3.27307944 -0.0426215309,2.99662056 0.12789,2.8261 L2.78317,0.17055 C2.8923568,0.0613550479 3.04045078,9.27757607e-06 3.19487,9.27757607e-06 C3.34928922,9.27757607e-06 3.4973832,0.0613550479 3.60657,0.17055 L6.23312,2.79737 C6.31501285,2.87927358 6.36101139,2.99035708 6.36099451,3.10617864 C6.36097763,3.22200021 6.31494671,3.33307029 6.23303,3.41495 L5.41689,4.23068 C5.24634869,4.40114278 4.96991608,4.40109801 4.79943,4.23058 L3.19485,2.62573 L1.56107,4.25927 C1.4791773,4.34116102 1.36810636,4.38716427 1.25229379,4.38715865 C1.13648121,4.38715302 1.02541474,4.34113897 0.94353,4.25924 Z" id="Shape" fill="#06B052"></path>
            <path d="M24.1678,21.79045 L6.30407,21.79045 C5.12262467,21.7891053 4.16521709,20.8316754 4.1639,19.65023 L4.1639,2.31857 L2.19563,2.31857 L2.19563,19.65023 C2.19826398,21.9181782 4.03612188,23.7560674 6.30407,23.75874 L26.13586,23.75874 L24.1678,21.79045 Z" id="Shape" fill="#06B052"></path>
            <polygon id="Shape" fill="#059949" points="16.139 17.127 12.587 12.062 11.076 14.373 13.008 17.127"></polygon>
            <path d="M13.0396,7.67755 C12.8430725,7.67755057 12.6598077,7.77669476 12.55227,7.94119 L6.54749,17.12737 L8.97449,17.12737 C9.17458978,17.1273606 9.36066364,17.0245921 9.46723,16.85523 L15.46686,7.67753 L13.0396,7.67755 Z" id="Shape" fill="#06B052"></path>
            <path d="M17.97454,14.91724 L17.97454,8.25974 C17.97454,7.93820534 17.7138847,7.67755 17.39235,7.67755 L15.46684,7.67755 L15.46684,17.12728 L17.97454,14.91724 Z" id="Shape" fill="#06B052"></path>
            <path d="M20.57198,15.16518 C20.4630146,15.0097503 20.2851206,14.9171982 20.0953,14.91718 L17.97454,14.91718 L15.46685,17.12723 L15.46685,17.12737 L21.94776,17.12737 L20.57198,15.16518 Z" id="Shape" fill="#059949"></path>
            <polygon id="Shape" fill="#059949" points="9.512 7.676 6.38 7.676 9.369 11.939 10.881 9.627"></polygon>
            <path d="M22.02741,0.54252 L7.27865,0.54305 L9.24696,2.5108 L22.02741,2.5108 C23.208856,2.51213921 24.1662639,3.46957397 24.16757,4.65102 L24.16757,21.79046 L26.13587,23.75873 L26.13587,4.65102 C26.133225,2.38307022 24.2953598,0.54518709 22.02741,0.54252 Z" id="Shape" fill="#059949"></path>
            <path d="M32.86024,7.67174 L35.99276,7.67174 C36.511284,7.65766299 37.0272514,7.7492266 37.50927,7.94086 C37.8896242,8.09608989 38.2326475,8.33037814 38.51561,8.6282 C38.7616349,8.89234772 38.952044,9.20326105 39.07552,9.54246 C39.1886568,9.84648151 39.2485927,10.1677158 39.2527,10.49208 C39.2635931,11.0439876 39.1291465,11.5890543 38.86285,12.07259 C38.5823515,12.5501698 38.1652046,12.9327611 37.66521,13.17102 L39.84796,17.12543 L37.83526,17.12543 L35.92191,13.39767 L34.57531,13.39767 L34.57531,17.12543 L32.86024,17.12543 L32.86024,7.67174 Z M36.00687,11.92374 C36.399254,11.947431 36.7832007,11.8031455 37.06287,11.5269 C37.3109746,11.2681561 37.4460888,10.921424 37.43847,10.56303 C37.4522717,10.1911202 37.3081138,9.83072561 37.04163,9.57093 C36.7619171,9.30989041 36.3891791,9.17196751 36.00692,9.18806 L34.57531,9.18806 L34.57531,11.92374 L36.00687,11.92374 Z" id="Shape" fill="#4A5661"></path>
            <polygon id="Shape" fill="#4A5661" points="41.28978 7.67174 47.41312 7.67174 47.41312 9.24484 43.07569 9.24484 43.07569 11.47021 46.26479 11.47021 46.26479 13.05756 43.07569 13.05756 43.07569 15.52383 47.73925 15.52383 47.73925 17.12543 41.28978 17.12543"></polygon>
            <polygon id="Shape" fill="#4A5661" points="49.45764 7.67174 51.24369 7.67174 51.24369 15.53808 55.90683 15.53808 55.90683 17.12543 49.45764 17.12543"></polygon>
            <polygon id="Shape" fill="#4A5661" points="57.03086 7.67174 63.15391 7.67174 63.15391 9.24484 58.81691 9.24484 58.81691 11.47021 62.00587 11.47021 62.00587 13.05756 58.81692 13.05756 58.81692 15.52383 63.48007 15.52383 63.48007 17.12543 57.03086 17.12543"></polygon>
            <path d="M68.17247,7.67174 L70.01498,7.67174 L73.60107,17.12543 L71.61687,17.12543 L70.79468,14.73015 L67.27959,14.73015 L66.4574,17.12543 L64.58668,17.12543 L68.17247,7.67174 Z M70.28438,13.25598 L69.03714,9.58498 L67.77564,13.25598 L70.28438,13.25598 Z" id="Shape" fill="#4A5661"></path>
            <path d="M75.48895,14.46075 C75.6160035,14.6073152 75.7508659,14.7469244 75.89295,14.87897 C76.0556949,15.0307847 76.2311949,15.1683215 76.41751,15.29006 C76.6210829,15.4224025 76.8400315,15.5294321 77.06951,15.60878 C77.3319268,15.6974315 77.607554,15.7406255 77.88451,15.7365 C78.3316949,15.7727054 78.7756864,15.6356291 79.12463,15.35363 C79.3851889,15.1187588 79.5323246,14.7832931 79.52863,14.43252 C79.5318162,14.2489622 79.4930045,14.0671044 79.41516,13.90084 C79.3273088,13.7316258 79.1950546,13.5895161 79.03258,13.48975 C78.8135308,13.3535264 78.5776877,13.2463837 78.33099,13.17102 C77.9797881,13.0605117 77.6224459,12.9705593 77.26078,12.90162 C76.8662585,12.830998 76.4857685,12.6969851 76.13407,12.50478 C75.8360037,12.3406147 75.5695651,12.1246647 75.34724,11.86705 C75.1423855,11.6265754 74.983863,11.350224 74.8797,11.05199 C74.7762195,10.7582893 74.7234864,10.4491173 74.72376,10.13772 C74.7222854,9.78557945 74.7896904,9.43654928 74.92218,9.11028 C75.0574208,8.77971289 75.2658083,8.48408772 75.53169,8.24561 C75.8317185,7.97988515 76.1807216,7.77526736 76.55913,7.64323 C77.0263486,7.48303072 77.5181168,7.4063138 78.01193,7.41659 C78.4479587,7.40761905 78.8828218,7.46490869 79.30165,7.5865 C79.6171476,7.68065163 79.9196038,7.81396685 80.20195,7.98333 C80.4076859,8.10634983 80.5959175,8.25651604 80.76157,8.42978 C80.89385,8.5766 80.9884033,8.68293333 81.04523,8.74878 L79.8687,9.85437 C79.8213667,9.81673667 79.74582,9.74822 79.64206,9.64882 C79.5228225,9.53831869 79.3920744,9.44092811 79.25206,9.35832 C79.0748456,9.25413927 78.8872977,9.16863125 78.69243,9.10317 C78.4547642,9.02438778 78.2055662,8.98603222 77.95521,8.9897 C77.7384605,8.98516845 77.5225999,9.01874878 77.31747,9.08891 C77.1542543,9.14583054 77.002917,9.23232306 76.87103,9.34406 C76.7593934,9.43935748 76.6698864,9.5578583 76.60875,9.6913 C76.555363,9.80449665 76.5264018,9.92766358 76.52375,10.05279 C76.5207531,10.2089094 76.5521952,10.3637712 76.61584,10.50636 C76.6885271,10.6526001 76.7955343,10.7790715 76.92772,10.87497 C77.1113251,11.0074581 77.3145936,11.110297 77.5301,11.17973 C77.8450987,11.2851734 78.1672068,11.3680497 78.49398,11.42773 C78.8594817,11.5024042 79.2158222,11.6164389 79.55677,11.76784 C79.8872361,11.912752 80.1913665,12.1114945 80.45677,12.35597 C80.721681,12.6039042 80.9338383,12.9027448 81.08054,13.2346 C81.245671,13.6267724 81.3253629,14.0496234 81.31431,14.475 C81.3185328,14.8721815 81.2312265,15.2649999 81.05916,15.623 C80.8875977,15.9747824 80.6466137,16.2882038 80.35072,16.54439 C80.0343574,16.816886 79.6686309,17.0261247 79.27339,17.16075 C78.8356209,17.3108683 78.3754495,17.3852014 77.91268,17.38055 C77.479183,17.3858489 77.0471922,17.3285241 76.63008,17.21035 C76.2696324,17.1066246 75.9223764,16.9615997 75.59522,16.77816 C75.3089918,16.6186711 75.0425917,16.4259509 74.80155,16.204 C74.6008318,16.0193126 74.4137087,15.8203755 74.24164,15.60874 L75.48895,14.46075 Z" id="Shape" fill="#4A5661"></path>
            <polygon id="Shape" fill="#4A5661" points="83.25895 7.67174 89.38201 7.67174 89.38201 9.24484 85.04501 9.24484 85.04501 11.47021 88.23401 11.47021 88.23401 13.05756 85.04501 13.05756 85.04501 15.52383 89.70814 15.52383 89.70814 17.12543 83.25895 17.12543"></polygon>
        </g>
    </g>
</svg>