<?xml version="1.0" encoding="utf-8"?>
<!-- Generator: Adobe Illustrator 18.1.0, SVG Export Plug-In . SVG Version: 6.00 Build 0)  -->
<!DOCTYPE svg PUBLIC "-//W3C//DTD SVG 1.1//EN" "http://www.w3.org/Graphics/SVG/1.1/DTD/svg11.dtd">
<svg version="1.1" id="Capa_1" xmlns="http://www.w3.org/2000/svg" xmlns:xlink="http://www.w3.org/1999/xlink" x="0px" y="0px"
	 width="100px" height="100px" viewBox="-131 370.9 100 100" enable-background="new -131 370.9 100 100" xml:space="preserve">
<g>
	<path fill="#A62B7C" d="M-39.9,424.4c-0.7-0.7-1.5-1-2.4-1h-11.8v-15.5l9.1-9.1c0.7-0.7,1-1.5,1-2.4c0-0.9-0.3-1.7-1-2.4
		c-0.7-0.7-1.5-1-2.4-1c-0.9,0-1.7,0.3-2.4,1l-9.1,9.1h-44.4l-9.1-9.1c-0.7-0.7-1.5-1-2.4-1c-0.9,0-1.7,0.3-2.4,1
		c-0.7,0.7-1,1.5-1,2.4c0,0.9,0.3,1.7,1,2.4l9.1,9.1v15.5h-11.8c-0.9,0-1.7,0.3-2.4,1c-0.7,0.7-1,1.5-1,2.4c0,0.9,0.3,1.7,1,2.4
		c0.7,0.7,1.5,1,2.4,1h11.8c0,5.6,1,10.4,3.1,14.4l-10.6,11.9c-0.6,0.7-0.9,1.5-0.8,2.4c0.1,0.9,0.4,1.7,1.1,2.3
		c0.7,0.6,1.4,0.8,2.3,0.8c1,0,1.8-0.4,2.5-1.1l9.6-10.9l0.8,0.7c0.5,0.5,1.3,1,2.3,1.7s2.2,1.4,3.5,2.1c1.3,0.7,2.8,1.3,4.6,1.7
		c1.8,0.5,3.6,0.7,5.3,0.7V410h6.7v47.1c1.7,0,3.4-0.2,5.1-0.7c1.7-0.5,3.2-1,4.3-1.5c1.2-0.6,2.3-1.2,3.4-1.9
		c1.1-0.7,1.9-1.2,2.2-1.5c0.4-0.3,0.6-0.5,0.8-0.7l10.4,10.4c0.6,0.7,1.4,1,2.4,1c0.9,0,1.7-0.3,2.4-1c0.7-0.7,1-1.5,1-2.4
		s-0.3-1.7-1-2.4l-10.9-11c2.3-4.2,3.5-9.3,3.5-15.3h11.8c0.9,0,1.7-0.3,2.4-1c0.7-0.7,1-1.5,1-2.4
		C-38.9,425.9-39.3,425.1-39.9,424.4z"/>
	<path fill="#A62B7C" d="M-69.1,384.6c-3.3-3.3-7.2-4.9-11.9-4.9c-4.7,0-8.6,1.6-11.9,4.9c-3.3,3.3-4.9,7.3-4.9,11.9h33.7
		C-64.2,391.8-65.8,387.8-69.1,384.6z"/>
</g>
</svg>
