<?xml version="1.0" encoding="utf-8"?>
<!-- Generator: Adobe Illustrator 18.1.1, SVG Export Plug-In . SVG Version: 6.00 Build 0)  -->
<!DOCTYPE svg PUBLIC "-//W3C//DTD SVG 1.1//EN" "http://www.w3.org/Graphics/SVG/1.1/DTD/svg11.dtd">
<svg version="1.1" id="Capa_1" xmlns="http://www.w3.org/2000/svg" xmlns:xlink="http://www.w3.org/1999/xlink" x="0px" y="0px"
	 width="40px" height="40px" viewBox="-277 400.9 40 40" enable-background="new -277 400.9 40 40" xml:space="preserve">
<g id="_x33_56._Play">
	<g>
		<path fill="#05A901" d="M-239.7,410.9c-5.5-9.6-17.8-12.8-27.3-7.3c-9.6,5.5-12.8,17.8-7.3,27.3c5.5,9.6,17.8,12.8,27.3,7.3
			C-237.4,432.7-234.2,420.5-239.7,410.9z M-249,434.7c-7.7,4.4-17.4,1.8-21.9-5.9c-4.4-7.7-1.8-17.4,5.9-21.9
			c7.7-4.4,17.4-1.8,21.9,5.9C-238.7,420.5-241.3,430.3-249,434.7z M-249.8,420.1l-10.5-6.1c-1-0.6-1.7-0.1-1.7,1l0.1,12.1
			c0,1.1,0.8,1.6,1.7,1l10.4-6C-248.8,421.5-248.8,420.6-249.8,420.1z"/>
	</g>
</g>
</svg>
