<?xml version="1.0" encoding="utf-8"?>
<!-- Generator: Adobe Illustrator 18.1.1, SVG Export Plug-In . SVG Version: 6.00 Build 0)  -->
<!DOCTYPE svg PUBLIC "-//W3C//DTD SVG 1.1//EN" "http://www.w3.org/Graphics/SVG/1.1/DTD/svg11.dtd">
<svg version="1.1" id="Capa_1" xmlns="http://www.w3.org/2000/svg" xmlns:xlink="http://www.w3.org/1999/xlink" x="0px" y="0px"
	 width="16px" height="16px" viewBox="-289 412.9 16 16" enable-background="new -289 412.9 16 16" xml:space="preserve">
<path fill="#05A901" d="M-275,412.9h-12c-0.6,0-1,0.4-1,1v14c0,0.6,0.4,1,1,1h12c0.6,0,1-0.4,1-1v-14
	C-274,413.3-274.4,412.9-275,412.9z M-277.5,425.9h-7c-0.3,0-0.5-0.2-0.5-0.5c0-0.3,0.2-0.5,0.5-0.5h7c0.3,0,0.5,0.2,0.5,0.5
	C-277,425.7-277.2,425.9-277.5,425.9z M-277.5,422.9h-7c-0.3,0-0.5-0.2-0.5-0.5c0-0.3,0.2-0.5,0.5-0.5h7c0.3,0,0.5,0.2,0.5,0.5
	C-277,422.7-277.2,422.9-277.5,422.9z M-277.5,419.9h-7c-0.3,0-0.5-0.2-0.5-0.5c0-0.3,0.2-0.5,0.5-0.5h7c0.3,0,0.5,0.2,0.5,0.5
	C-277,419.7-277.2,419.9-277.5,419.9z M-277.5,416.9h-4c-0.3,0-0.5-0.2-0.5-0.5c0-0.3,0.2-0.5,0.5-0.5h4c0.3,0,0.5,0.2,0.5,0.5
	C-277,416.7-277.2,416.9-277.5,416.9z"/>
</svg>
