<?xml version="1.0" encoding="utf-8"?>
<!-- Generator: Adobe Illustrator 18.1.1, SVG Export Plug-In . SVG Version: 6.00 Build 0)  -->
<!DOCTYPE svg PUBLIC "-//W3C//DTD SVG 1.1//EN" "http://www.w3.org/Graphics/SVG/1.1/DTD/svg11.dtd">
<svg version="1.1" id="Layer_5" xmlns="http://www.w3.org/2000/svg" xmlns:xlink="http://www.w3.org/1999/xlink" x="0px" y="0px"
	 width="57px" height="65.6px" viewBox="-272.7 385.7 57 65.6" enable-background="new -272.7 385.7 57 65.6" xml:space="preserve">
<path fill="#05A901" d="M-219.1,386.7H-270c-0.9,0-1.7,0.7-1.7,1.7v15c0,0.9,0.7,1.7,1.7,1.7h50.9c0.9,0,1.7-0.7,1.7-1.7v-15
	C-217.3,387.4-218.1,386.7-219.1,386.7z M-244.6,399.8h-21.7v-8.7h21.7V399.8z M-219.1,408.9H-270c-0.9,0-1.7,0.7-1.7,1.7v15
	c0,0.9,0.7,1.7,1.7,1.7h50.9c0.9,0,1.7-0.7,1.7-1.7v-15C-217.3,409.6-218.1,408.9-219.1,408.9z M-244.6,421.7h-21.7V413h21.7V421.7z
	 M-219.1,430.8H-270c-0.9,0-1.7,0.7-1.7,1.7v15c0,0.9,0.7,1.7,1.7,1.7h50.9c0.9,0,1.7-0.7,1.7-1.7v-15
	C-217.3,431.6-218.1,430.8-219.1,430.8z M-244.6,444.4h-21.7v-8.7h21.7V444.4z"/>
</svg>
