<?xml version="1.0" encoding="utf-8"?>
<!-- Generator: Adobe Illustrator 18.1.1, SVG Export Plug-In . SVG Version: 6.00 Build 0)  -->
<!DOCTYPE svg PUBLIC "-//W3C//DTD SVG 1.1//EN" "http://www.w3.org/Graphics/SVG/1.1/DTD/svg11.dtd">
<svg version="1.1" id="Layer_1" xmlns="http://www.w3.org/2000/svg" xmlns:xlink="http://www.w3.org/1999/xlink" x="0px" y="0px"
	 width="512px" height="512px" viewBox="-41 164.9 512 512" enable-background="new -41 164.9 512 512" xml:space="preserve">
<path fill="#999999" d="M367,214.6H-21.5c-7.2,0-13-5.8-13-13v0c0-7.2,5.8-13,13-13H367c7.2,0,13,5.8,13,13v0
	C379.9,208.8,374.1,214.6,367,214.6z"/>
<path fill="#999999" d="M367,320.7H-21.5c-7.2,0-13-5.8-13-13v0c0-7.2,5.8-13,13-13H367c7.2,0,13,5.8,13,13v0
	C379.9,314.9,374.1,320.7,367,320.7z"/>
<path fill="#999999" d="M367,541.5H-21.5c-7.2,0-13-5.8-13-13l0,0c0-7.2,5.8-13,13-13H367c7.2,0,13,5.8,13,13l0,0
	C379.9,535.7,374.1,541.5,367,541.5z"/>
<path fill="#999999" d="M367,427.7H-21.5c-7.2,0-13-5.8-13-13v0c0-7.2,5.8-13,13-13H367c7.2,0,13,5.8,13,13v0
	C379.9,421.8,374.1,427.7,367,427.7z"/>
<path fill="#999999" d="M367,652.6H-21.5c-7.2,0-13-5.8-13-13l0,0c0-7.2,5.8-13,13-13H367c7.2,0,13,5.8,13,13l0,0
	C379.9,646.8,374.1,652.6,367,652.6z"/>
<g>
	<rect x="433.8" y="169.1" fill="#FD8D10" width="26.5" height="4.1"/>
	<rect x="433.8" y="177.7" fill="#FD8D10" width="26.5" height="6.6"/>
	<rect x="433.8" y="188.7" fill="#FD8D10" width="26.5" height="8.8"/>
	<polygon fill="#FD8D10" points="470,218.7 447,241.6 424.1,218.7 433.8,218.7 433.8,201.6 460.3,201.6 460.3,218.7 	"/>
</g>
<g>
	<rect x="432.7" y="495.9" fill="#FD8D10" width="26.5" height="4.1"/>
	<rect x="432.7" y="504.6" fill="#FD8D10" width="26.5" height="6.6"/>
	<rect x="432.7" y="515.6" fill="#FD8D10" width="26.5" height="8.8"/>
	<polygon fill="#FD8D10" points="468.9,545.5 445.9,568.5 422.9,545.5 432.7,545.5 432.7,528.5 459.2,528.5 459.2,545.5 	"/>
</g>
<g>
	<rect x="434" y="667.7" fill="#9ADA7F" width="26.2" height="4.1"/>
	<rect x="434" y="656.7" fill="#9ADA7F" width="26.2" height="6.5"/>
	<rect x="434" y="643.7" fill="#9ADA7F" width="26.2" height="8.6"/>
	<polygon fill="#9ADA7F" points="424.4,622.8 447,600.1 469.7,622.8 460.1,622.8 460.1,639.6 434,639.6 434,622.8 	"/>
</g>
<g>
	<rect x="434" y="348.8" fill="#9ADA7F" width="26.2" height="4.1"/>
	<rect x="434" y="337.8" fill="#9ADA7F" width="26.2" height="6.5"/>
	<rect x="434" y="324.8" fill="#9ADA7F" width="26.2" height="8.6"/>
	<polygon fill="#9ADA7F" points="424.4,303.9 447,281.2 469.7,303.9 460.1,303.9 460.1,320.7 434,320.7 434,303.9 	"/>
</g>
<g>
	<rect x="434" y="446.4" fill="#9ADA7F" width="26.2" height="4.1"/>
	<rect x="434" y="435.5" fill="#9ADA7F" width="26.2" height="6.5"/>
	<rect x="434" y="422.4" fill="#9ADA7F" width="26.2" height="8.6"/>
	<polygon fill="#9ADA7F" points="424.4,401.5 447,378.9 469.7,401.5 460.1,401.5 460.1,418.3 434,418.3 434,401.5 	"/>
</g>
</svg>
