<?xml version="1.0" encoding="UTF-8"?>
<svg width="300px" height="80px" viewBox="0 0 300 80" version="1.1" xmlns="http://www.w3.org/2000/svg" xmlns:xlink="http://www.w3.org/1999/xlink">
    <!-Generator: Sketch 50.2 (55047) http://www.bohemiancoding.com/sketch -->
    <title>xlr-2color-mark-300</title>
    <desc>Created with Sketch.</desc>
    <defs></defs>
    <g id="Page-1" stroke="none" stroke-width="1" fill="none" fill-rule="evenodd">
        <g id="xlr-2color-mark-300" fill-rule="nonzero">
            <path d="M179.698367,14.5316333 C179.968063,14.7937743 180.285136,15.0022533 180.6327,15.1459667 C181.040567,15.3148999 181.478871,15.3979718 181.920267,15.39 C182.270311,15.4033347 182.61946,15.3461105 182.946933,15.2217333 C183.18341,15.1408673 183.340159,14.9160172 183.334233,14.6661667 C183.345758,14.4165181 183.206397,14.1843193 182.980667,14.0770667 C182.788535,13.9665938 182.585458,13.876355 182.3747,13.8078 C182.031935,13.6946042 181.683575,13.5991114 181.331,13.5217 C181.045351,13.4490199 180.764388,13.3590315 180.489667,13.2522333 C180.196074,13.1393225 179.920908,12.9833718 179.6732,12.7895 C179.422633,12.5955239 179.211311,12.3555919 179.050533,12.0825333 C178.881164,11.7826112 178.796717,11.4422082 178.806267,11.0979 C178.800176,10.7272164 178.899384,10.3624124 179.092367,10.0458667 C179.283536,9.7369737 179.539024,9.47290247 179.841433,9.27163333 C180.162224,9.05834453 180.514355,8.8964608 180.8851,8.79183333 C181.265099,8.68080073 181.658912,8.62416023 182.0548,8.6236 C182.654231,8.61122087 183.252336,8.68491627 183.830833,8.84243333 C184.306352,8.98205583 184.753601,9.20424183 185.152133,9.49883333 L184.125133,10.8959 C183.865669,10.7149768 183.582578,10.5705597 183.2838,10.4667 C182.888808,10.3299849 182.472694,10.2644247 182.0548,10.2730667 C181.712806,10.2419579 181.369422,10.3153583 181.070033,10.4835667 C180.898584,10.5984977 180.79475,10.7905058 180.792433,10.9969 C180.792433,11.2439 180.946744,11.4374889 181.255367,11.5776667 C181.721122,11.768113 182.202677,11.9173621 182.6945,12.0237 C183.065658,12.1033765 183.428957,12.2160464 183.780067,12.3603667 C184.0805,12.4831088 184.359099,12.653645 184.605067,12.8653667 C184.831421,13.0626968 185.01225,13.3068045 185.135067,13.5808333 C185.265678,13.8922522 185.328842,14.2278058 185.3204,14.5654 C185.325193,14.9283963 185.23211,15.2859805 185.050933,15.6005667 C184.868317,15.9127688 184.618232,16.1802097 184.318967,16.3833333 C183.989223,16.6063833 183.625299,16.7741423 183.241533,16.88 C182.817095,16.9997395 182.377931,17.0592104 181.936933,17.0566667 C181.256558,17.0662285 180.579442,16.9609862 179.934067,16.7453667 C179.386064,16.5680837 178.893259,16.2520178 178.503567,15.8279 L179.698367,14.5316333 Z" id="Shape" fill="#778798"></path>
            <polygon id="Shape" fill="#778798" points="113.2695 10.9799333 109.684433 5.55993333 112.242867 5.55993333 114.582633 9.22933333 116.8379 5.55993333 119.143933 5.55993333 115.693567 10.9295333 119.5479 16.7871 116.989467 16.7871 114.397333 12.6968667 111.8389 16.7871 109.532833 16.7871"></polygon>
            <path d="M127.448967,15.6424 L127.171367,15.9202 C126.973081,16.1064344 126.752636,16.2675669 126.515,16.3999667 C126.169195,16.5934307 125.802017,16.7459264 125.4209,16.8543667 C124.903332,16.9988538 124.36742,17.0668956 123.830167,17.0563333 C123.242473,17.0639486 122.65907,16.9553223 122.1135,16.7367 C121.10374,16.3367292 120.31545,15.5208264 119.950467,14.4979 C119.748236,13.9367587 119.648429,13.3438581 119.6558,12.7474333 C119.650634,12.1922124 119.750616,11.6410316 119.950467,11.123 C120.13732,10.6384074 120.417496,10.1952145 120.7751,9.81856667 C121.13304,9.44525487 121.562305,9.14762637 122.037433,8.94333333 C122.550833,8.7250403 123.104067,8.61605993 123.6619,8.62333333 C124.293741,8.60411387 124.92068,8.739877 125.487967,9.01876667 C125.965478,9.2638153 126.378042,9.61865363 126.691767,10.0541333 C126.999518,10.4911236 127.2222,10.9821737 127.348167,11.5016 C127.482896,12.0411144 127.550761,12.595151 127.550233,13.1512333 L127.550233,13.4375667 L121.658667,13.4375667 C121.654702,13.7134878 121.721431,13.9858311 121.8525,14.2286667 C121.979335,14.4618495 122.150868,14.6677593 122.3573,14.8346333 C122.568092,15.0047451 122.807575,15.1358372 123.064467,15.2217333 C123.316055,15.309498 123.580447,15.3549694 123.8469,15.3563 C124.444638,15.3669415 125.03714,15.2432559 125.5807,14.9943667 C125.75817,14.9144174 125.925007,14.8127032 126.077367,14.6915667 C126.206256,14.5849 126.304478,14.4979222 126.372033,14.4306333 L127.448967,15.6424 Z M125.513567,12.0067333 C125.512303,11.7991722 125.472331,11.5936682 125.3957,11.4007667 C125.316401,11.1981935 125.199298,11.0125506 125.050633,10.8537333 C124.885802,10.6818258 124.68837,10.5444852 124.469867,10.4497333 C124.215075,10.3392668 123.939562,10.2847075 123.6619,10.2897333 C123.365124,10.2843509 123.070302,10.3387651 122.795,10.4497333 C122.561486,10.5443023 122.347492,10.6812761 122.163833,10.8537333 C122.000555,11.0093007 121.869023,11.1950804 121.776533,11.4007667 C121.689428,11.5909982 121.643579,11.7975138 121.642,12.0067333 L125.513567,12.0067333 Z" id="Shape" fill="#778798"></path>
            <path d="M129.393967,5.56006667 L131.380233,5.56006667 L131.380233,9.43146667 C131.611327,9.23806333 131.872974,9.08443467 132.154467,8.97686667 C132.592058,8.79791237 133.062096,8.7119577 133.5347,8.72446667 C134.060145,8.71454963 134.580993,8.82396193 135.058033,9.04446667 C135.491311,9.25022293 135.877993,9.54231573 136.194367,9.90283333 C136.516626,10.2766446 136.759939,10.7117818 136.909667,11.1820667 C137.074262,11.6874846 137.156732,12.21603 137.153933,12.7475667 C137.157868,13.3205771 137.052063,13.8890425 136.842233,14.4222667 C136.641781,14.9332808 136.338089,15.3974609 135.950133,15.7858 C135.546973,16.1836276 135.069408,16.4981573 134.5447,16.7114333 C133.956768,16.9486578 133.327349,17.0659671 132.693433,17.0564667 C132.058212,17.0609373 131.424021,17.0046027 130.799533,16.8882333 C130.323651,16.80221 129.854117,16.6841639 129.394133,16.5349 L129.393967,5.56006667 Z M131.380233,15.1712333 C131.538805,15.2279361 131.702182,15.270175 131.868367,15.2974333 C132.130697,15.3312585 132.395193,15.3453758 132.659633,15.3396667 C133.024216,15.3477286 133.386143,15.2758801 133.72,15.1291667 C134.013707,14.9957351 134.277144,14.8038538 134.494233,14.5652333 C134.707975,14.3285989 134.871172,14.0508306 134.973833,13.7489333 C135.080079,13.4431385 135.134166,13.1216594 135.133833,12.7979333 C135.134682,12.5027311 135.097942,12.208622 135.0245,11.9227 C134.956578,11.6539013 134.839606,11.3999551 134.679467,11.1736333 C134.523181,10.9558371 134.318551,10.7772204 134.081633,10.6518 C133.813141,10.5165162 133.515271,10.449983 133.214733,10.4581667 C132.713768,10.4210397 132.219066,10.5879841 131.843033,10.9210667 C131.521387,11.2635336 131.354095,11.7228258 131.380133,12.1919333 L131.380233,15.1712333 Z" id="Shape" fill="#778798"></path>
            <polygon id="Shape" fill="#778798" points="138.9331 8.89273333 140.9193 8.89273333 140.9193 16.7871 138.9331 16.7871"></polygon>
            <path d="M147.8811,16.0464 C147.610875,16.3460128 147.27742,16.5818011 146.904867,16.7367 C146.444697,16.9432706 145.944891,17.0466221 145.440533,17.0395 C145.1121,17.0390974 144.785695,16.9880302 144.472833,16.8881 C144.155248,16.7884299 143.85856,16.6315397 143.5974,16.4251667 C143.327167,16.2097788 143.108588,15.9366198 142.9577,15.6257333 C142.788063,15.2684823 142.70454,14.8764381 142.713833,14.4810667 C142.706646,14.0661015 142.792909,13.654836 142.966233,13.2777333 C143.13004,12.9299731 143.371866,12.6246906 143.6729,12.3856333 C143.998141,12.1332149 144.369918,11.9473324 144.767,11.8386 C145.227239,11.7105813 145.703248,11.6481877 146.180933,11.6532667 C146.338067,11.6532667 146.512011,11.6561111 146.702767,11.6618 C146.893522,11.6674889 147.078711,11.6758889 147.258333,11.687 C147.460333,11.6983111 147.667889,11.7095556 147.881,11.7207333 L147.881,11.5355 C147.893006,11.1665559 147.715235,10.8171637 147.409933,10.6096667 C147.045918,10.3708754 146.615825,10.2530578 146.180933,10.273 C145.722009,10.2554297 145.264206,10.3298337 144.834467,10.4918333 C144.524433,10.6236746 144.226018,10.7813174 143.942367,10.9631 L143.033567,9.61643333 C143.190367,9.50432223 143.369878,9.3893111 143.5721,9.2714 C143.797201,9.1430073 144.03378,9.0358772 144.278767,8.9514 C144.583201,8.84724127 144.895719,8.76840657 145.213133,8.7157 C145.622136,8.64979413 146.036011,8.61886 146.450267,8.62323333 C146.915971,8.6171762 147.379467,8.68823637 147.821967,8.83353333 C148.207338,8.96038253 148.564606,9.1604186 148.874167,9.42266667 C149.163301,9.67185637 149.393235,9.9823792 149.547233,10.3316333 C149.706388,10.6949958 149.786731,11.0879618 149.782967,11.4846333 L149.782967,16.7871 L147.9313,16.7871 L147.8811,16.0464 Z M147.8811,13.2187 C147.6791,13.2075889 147.482789,13.1963444 147.292167,13.1849667 C147.134656,13.1740333 146.9691,13.1656333 146.7955,13.1597667 C146.6213,13.1542111 146.472556,13.1513667 146.349267,13.1512333 C145.868568,13.1019771 145.38713,13.2373996 145.0026,13.5300333 C144.757944,13.752086 144.617591,14.0665395 144.615667,14.3969333 C144.601726,14.703516 144.736392,14.9980271 144.9774,15.1880333 C145.291743,15.4001133 145.668046,15.500834 146.0463,15.4741333 C146.504138,15.4733574 146.948538,15.3193408 147.308667,15.0366333 C147.473616,14.9057896 147.613391,14.7460339 147.721167,14.5651667 C147.825685,14.3925951 147.880929,14.194688 147.8809,13.9929333 L147.8811,13.2187 Z" id="Shape" fill="#778798"></path>
            <polygon id="Shape" fill="#778798" points="151.803267 5.56006667 153.924 5.56006667 153.924 14.9019 159.4619 14.9019 159.4619 16.7871 151.803267 16.7871"></polygon>
            <path d="M165.701767,16.0464 C165.431549,16.3460204 165.098091,16.5818099 164.725533,16.7367 C164.265364,16.9432737 163.765558,17.0466254 163.2612,17.0395 C162.932767,17.0390942 162.606362,16.9880271 162.2935,16.8881 C161.975918,16.7884222 161.679231,16.6315328 161.418067,16.4251667 C161.147843,16.2097699 160.929265,15.9366131 160.778367,15.6257333 C160.60873,15.2684823 160.525206,14.8764381 160.5345,14.4810667 C160.527312,14.0661015 160.613576,13.654836 160.7869,13.2777333 C160.950709,12.9299744 161.192534,12.6246923 161.493567,12.3856333 C161.8188,12.1332217 162.190564,11.9473398 162.587633,11.8386 C163.047872,11.7105813 163.523882,11.6481877 164.001567,11.6532667 C164.158744,11.6532667 164.3327,11.6561111 164.523433,11.6618 C164.714167,11.6674889 164.899356,11.6758889 165.079,11.687 C165.281,11.6983111 165.488544,11.7095556 165.701633,11.7207333 L165.701633,11.5355 C165.71364,11.1665559 165.535868,10.8171637 165.230567,10.6096667 C164.866553,10.3708712 164.436459,10.2530532 164.001567,10.273 C163.542643,10.255436 163.084841,10.3298398 162.6551,10.4918333 C162.34507,10.6236817 162.046655,10.7813242 161.763,10.9631 L160.854233,9.61643333 C161.011011,9.50432223 161.190511,9.3893111 161.392733,9.2714 C161.617835,9.14301007 161.854414,9.03588007 162.0994,8.9514 C162.403822,8.8472369 162.716329,8.7684021 163.033733,8.7157 C163.442747,8.64979577 163.856633,8.61886167 164.2709,8.62323333 C164.736593,8.6171762 165.200078,8.6882364 165.642567,8.83353333 C166.027949,8.96038247 166.385227,9.16041833 166.6948,9.42266667 C166.983914,9.67186677 167.213836,9.98238753 167.367833,10.3316333 C167.527003,10.6949909 167.607347,11.0879602 167.603567,11.4846333 L167.603567,16.7871 L165.7519,16.7871 L165.701767,16.0464 Z M165.701767,13.2187 C165.499789,13.2075889 165.303489,13.1963444 165.112867,13.1849667 C164.955333,13.1740333 164.789778,13.1656333 164.6162,13.1597667 C164.442022,13.1542111 164.293278,13.1513667 164.169967,13.1512333 C163.689334,13.1020292 163.207977,13.2374489 162.8235,13.5300333 C162.578844,13.752086 162.438491,14.0665395 162.436567,14.3969333 C162.422609,14.7035193 162.557278,14.9980376 162.7983,15.1880333 C163.112628,15.400118 163.488922,15.5008393 163.867167,15.4741333 C164.325009,15.4733856 164.769419,15.319366 165.129533,15.0366333 C165.294483,14.9057896 165.434258,14.7460339 165.542033,14.5651667 C165.646551,14.3925951 165.701795,14.194688 165.701767,13.9929333 L165.701767,13.2187 Z" id="Shape" fill="#778798"></path>
            <path d="M169.623933,5.56006667 L171.610233,5.56006667 L171.610233,9.43146667 C171.841327,9.23806333 172.102974,9.08443467 172.384467,8.97686667 C172.822023,8.79796007 173.292014,8.7120397 173.764567,8.72456667 C174.290011,8.71465197 174.810858,8.82406413 175.2879,9.04456667 C175.721178,9.25032293 176.10786,9.54241573 176.424233,9.90293333 C176.746493,10.2767446 176.989806,10.7118818 177.139533,11.1821667 C177.304102,11.6875902 177.38656,12.2161331 177.383767,12.7476667 C177.387711,13.320675 177.281918,13.8891403 177.0721,14.4223667 C176.871648,14.9333808 176.567955,15.3975609 176.18,15.7859 C175.776834,16.1837208 175.29927,16.4982496 174.774567,16.7115333 C174.186635,16.9487578 173.557215,17.0660671 172.9233,17.0565667 C172.288079,17.0610373 171.653887,17.0047027 171.0294,16.8883333 C170.553506,16.8023094 170.083962,16.6842633 169.623967,16.535 L169.623933,5.56006667 Z M171.610233,15.1712333 C171.768794,15.2279361 171.93216,15.270175 172.098333,15.2974333 C172.360675,15.3312581 172.625182,15.3453754 172.889633,15.3396667 C173.254215,15.3477253 173.616142,15.275877 173.95,15.1291667 C174.243707,14.9957351 174.507144,14.8038538 174.724233,14.5652333 C174.937955,14.3285844 175.10115,14.0508204 175.203833,13.7489333 C175.310079,13.4431385 175.364166,13.1216594 175.363833,12.7979333 C175.364682,12.5027311 175.327942,12.208622 175.2545,11.9227 C175.186567,11.6538992 175.069584,11.399953 174.909433,11.1736333 C174.753168,10.9558311 174.548547,10.7772126 174.311633,10.6518 C174.043137,10.5165268 173.74527,10.4499942 173.444733,10.4581667 C172.943768,10.4210397 172.449066,10.5879841 172.073033,10.9210667 C171.751374,11.2635252 171.584079,11.7228235 171.610133,12.1919333 L171.610233,15.1712333 Z" id="Shape" fill="#778798"></path>
            <rect id="Rectangle-path" fill="#778798" x="138.866033" y="5.56006667" width="2.13396667" height="2.13396667"></rect>
            <path d="M3.1451,14.1974667 L0.4263,11.4786667 C-0.14207177,10.9102648 -0.14207177,9.9887352 0.4263,9.42033333 L9.27723333,0.5685 C9.64118933,0.204516826 10.1348359,3.09252536e-05 10.6495667,3.09252536e-05 C11.1642974,3.09252536e-05 11.657944,0.204516826 12.0219,0.5685 L20.7770667,9.32456667 C21.0500428,9.5975786 21.2033713,9.96785693 21.203315,10.3539288 C21.2032588,10.7400007 21.0498224,11.1102343 20.7767667,11.3831667 L18.0563,14.1022667 C17.487829,14.6704759 16.5663869,14.6703267 15.9981,14.1019333 L10.6495,8.75243333 L5.20356667,14.1975667 C4.930591,14.4705367 4.56035453,14.6238809 4.17431263,14.6238622 C3.7882707,14.6238434 3.41804913,14.4704632 3.1451,14.1974667 Z" id="Shape" fill="#06B052"></path>
            <path d="M80.5593333,72.6348333 L21.0135667,72.6348333 C17.0754156,72.630351 13.884057,69.438918 13.8796667,65.5007667 L13.8796667,7.72856667 L7.31876667,7.72856667 L7.31876667,65.5007667 C7.3275466,73.060594 13.4537396,79.1868913 21.0135667,79.1958 L87.1195333,79.1958 L80.5593333,72.6348333 Z" id="Shape" fill="#06B052"></path>
            <polygon id="Shape" fill="#059949" points="53.7966667 57.09 41.9566667 40.2066667 36.92 47.91 43.36 57.09"></polygon>
            <path d="M43.4653333,25.5918333 C42.8102417,25.5918352 42.199359,25.9223159 41.8409,26.4706333 L21.8249667,57.0912333 L29.9149667,57.0912333 C30.5819659,57.091202 31.2022121,56.7486403 31.5574333,56.1841 L51.5562,25.5917667 L43.4653333,25.5918333 Z" id="Shape" fill="#06B052"></path>
            <path d="M59.9151333,49.7241333 L59.9151333,27.5324667 C59.9151333,26.4606845 59.0462823,25.5918333 57.9745,25.5918333 L51.5561333,25.5918333 L51.5561333,57.0909333 L59.9151333,49.7241333 Z" id="Shape" fill="#06B052"></path>
            <path d="M68.5732667,50.5506 C68.2100487,50.032501 67.6170687,49.723994 66.9843333,49.7239333 L59.9151333,49.7239333 L51.5561667,57.0907667 L51.5561667,57.0912333 L73.1592,57.0912333 L68.5732667,50.5506 Z" id="Shape" fill="#059949"></path>
            <polygon id="Shape" fill="#059949" points="31.7066667 25.5866667 21.2666667 25.5866667 31.23 39.7966667 36.27 32.09"></polygon>
            <path d="M73.4247,1.8084 L24.2621667,1.81016667 L30.8232,8.36933333 L73.4247,8.36933333 C77.3628533,8.37379737 80.554213,11.5652466 80.5585667,15.5034 L80.5585667,72.6348667 L87.1195667,79.1957667 L87.1195667,15.5034 C87.11075,7.9435674 80.9845327,1.8172903 73.4247,1.8084 Z" id="Shape" fill="#059949"></path>
            <path d="M109.534133,25.5724667 L119.975867,25.5724667 C121.70428,25.5255433 123.424171,25.8307553 125.0309,26.4695333 C126.298747,26.9869663 127.442158,27.7679271 128.385367,28.7606667 C129.20545,29.6411591 129.840147,30.6775368 130.251733,31.8082 C130.628856,32.821605 130.828642,33.892386 130.842333,34.9736 C130.878644,36.813292 130.430488,38.630181 129.542833,40.2419667 C128.607838,41.8338993 127.217349,43.1092037 125.5507,43.9034 L132.826533,57.0847667 L126.117533,57.0847667 L119.7397,44.6589 L115.251033,44.6589 L115.251033,57.0847667 L109.534133,57.0847667 L109.534133,25.5724667 Z M120.0229,39.7458 C121.330847,39.82477 122.610669,39.3438183 123.5429,38.423 C124.369915,37.5605203 124.820296,36.4047467 124.7949,35.2101 C124.840906,33.9704007 124.360379,32.7690854 123.4721,31.9031 C122.539724,31.032968 121.297264,30.573225 120.023067,30.6268667 L115.251033,30.6268667 L115.251033,39.7458 L120.0229,39.7458 Z" id="Shape" fill="#4A5661"></path>
            <polygon id="Shape" fill="#4A5661" points="137.6326 25.5724667 158.043733 25.5724667 158.043733 30.8161333 143.585633 30.8161333 143.585633 38.2340333 154.215967 38.2340333 154.215967 43.5252 143.585633 43.5252 143.585633 51.7461 159.130833 51.7461 159.130833 57.0847667 137.6326 57.0847667"></polygon>
            <polygon id="Shape" fill="#4A5661" points="164.8588 25.5724667 170.8123 25.5724667 170.8123 51.7936 186.3561 51.7936 186.3561 57.0847667 164.8588 57.0847667"></polygon>
            <polygon id="Shape" fill="#4A5661" points="190.102867 25.5724667 210.513033 25.5724667 210.513033 30.8161333 196.056367 30.8161333 196.056367 38.2340333 206.686233 38.2340333 206.686233 43.5252 196.0564 43.5252 196.0564 51.7461 211.600233 51.7461 211.600233 57.0847667 190.102867 57.0847667"></polygon>
            <path d="M227.241567,25.5724667 L233.383267,25.5724667 L245.3369,57.0847667 L238.7229,57.0847667 L235.982267,49.1005 L224.2653,49.1005 L221.524667,57.0847667 L215.288933,57.0847667 L227.241567,25.5724667 Z M234.281267,44.1866 L230.1238,31.9499333 L225.9188,44.1866 L234.281267,44.1866 Z" id="Shape" fill="#4A5661"></path>
            <path d="M251.629833,48.2025 C252.053345,48.6910507 252.502886,49.1564147 252.9765,49.5965667 C253.518983,50.1026157 254.103983,50.5610717 254.725033,50.9668667 C255.40361,51.4080083 256.133438,51.7647737 256.898367,52.0292667 C257.773089,52.3247717 258.691847,52.4687517 259.615033,52.455 C261.10565,52.5756847 262.585621,52.1187637 263.748767,51.1787667 C264.617296,50.3958627 265.107749,49.2776437 265.095433,48.1084 C265.106054,47.4965407 264.976682,46.890348 264.7172,46.3361333 C264.424363,45.772086 263.983515,45.298387 263.441933,44.9658333 C262.711769,44.5117547 261.925626,44.1546123 261.1033,43.9034 C259.932627,43.535039 258.741486,43.2351977 257.535933,43.0054 C256.220862,42.7699933 254.952562,42.3232837 253.780233,41.6826 C252.786679,41.1353823 251.89855,40.415549 251.157467,39.5568333 C250.474618,38.7552513 249.94621,37.83408 249.599,36.8399667 C249.254065,35.8609643 249.078288,34.830391 249.0792,33.7924 C249.074285,32.6185982 249.298968,31.4551643 249.7406,30.3676 C250.191403,29.2657096 250.886028,28.2802924 251.7723,27.4853667 C252.772395,26.5996172 253.935739,25.9175579 255.1971,25.4774333 C256.754495,24.9434357 258.393723,24.6877127 260.039767,24.7219667 C261.493196,24.6920635 262.942739,24.883029 264.338833,25.2883333 C265.390492,25.6021721 266.398679,26.0465562 267.339833,26.6111 C268.02562,27.0211661 268.653058,27.5217201 269.205233,28.0992667 C269.646167,28.5886667 269.961344,28.9431111 270.150767,29.1626 L266.229,32.8479 C266.071222,32.7224556 265.8194,32.4940667 265.473533,32.1627333 C265.076075,31.7943956 264.640248,31.4697604 264.173533,31.1944 C263.582819,30.8471309 262.957659,30.5621042 262.3081,30.3439 C261.515881,30.0812926 260.685221,29.9534407 259.8507,29.9656667 C259.128202,29.9505615 258.408666,30.0624959 257.7249,30.2963667 C257.180848,30.4861018 256.67639,30.7744102 256.236767,31.1468667 C255.864645,31.4645249 255.566288,31.8595277 255.3625,32.3043333 C255.184543,32.6816555 255.088006,33.0922119 255.079167,33.5093 C255.069177,34.029698 255.173984,34.545904 255.386133,35.0212 C255.628424,35.508667 255.985114,35.9302383 256.425733,36.2499 C257.03775,36.691527 257.715312,37.0343233 258.433667,37.2657667 C259.483662,37.6172447 260.557356,37.893499 261.6466,38.0924333 C262.864939,38.3413473 264.052741,38.721463 265.189233,39.2261333 C266.290787,39.7091733 267.304555,40.3716483 268.189233,41.1865667 C269.07227,42.013014 269.779461,43.0091493 270.268467,44.1153333 C270.818903,45.4225747 271.084543,46.832078 271.0477,48.25 C271.061776,49.5739383 270.770755,50.883333 270.1972,52.0766667 C269.625326,53.2492747 268.822046,54.2940127 267.835733,55.1479667 C266.781191,56.0562867 265.562103,56.753749 264.244633,57.2025 C262.785403,57.7028943 261.251498,57.9506713 259.708933,57.9351667 C258.263943,57.9528297 256.823974,57.761747 255.4336,57.3678333 C254.232108,57.022082 253.074588,56.5386657 251.984067,55.9272 C251.029973,55.3955703 250.141972,54.7531697 249.3385,54.0133333 C248.669439,53.3977087 248.045696,52.734585 247.472133,52.0291333 L251.629833,48.2025 Z" id="Shape" fill="#4A5661"></path>
            <polygon id="Shape" fill="#4A5661" points="277.529833 25.5724667 297.940033 25.5724667 297.940033 30.8161333 283.483367 30.8161333 283.483367 38.2340333 294.113367 38.2340333 294.113367 43.5252 283.483367 43.5252 283.483367 51.7461 299.027133 51.7461 299.027133 57.0847667 277.529833 57.0847667"></polygon>
        </g>
    </g>
</svg>